{
.appVersion = "3148";
copyright = "Digitized data copyright (C) 2011, Google Corporation.";
customParameters = (
{
name = panose;
value = (
2,
11,
7,
6,
3,
8,
4,
2,
2,
4
);
},
{
name = unicodeRanges;
value = (
0,
1,
2,
3,
5,
6,
7,
9,
29,
30,
31,
32,
33,
35,
36,
38,
45,
62,
67,
69
);
},
{
name = codePageRanges;
value = (
1252,
1250,
1251,
1253,
1254,
1257,
1258
);
},
{
name = glyphOrder;
value = (
.notdef,
null,
nonmarkingreturn,
space,
exclam,
quotedbl,
numbersign,
dollar,
percent,
ampersand,
quotesingle,
parenleft,
parenright,
asterisk,
plus,
comma,
hyphen,
period,
slash,
zero,
one,
two,
three,
four,
five,
six,
seven,
eight,
nine,
colon,
semicolon,
less,
equal,
greater,
question,
at,
A,
B,
C,
D,
E,
F,
G,
H,
I.alt,
J,
K,
L,
M,
N,
O,
P,
Q,
R,
S,
T,
U,
V,
W,
X,
Y,
Z,
bracketleft,
backslash,
bracketright,
asciicircum,
underscore,
grave,
a,
b,
c,
d,
e,
f,
g,
h,
i,
j,
k,
l,
m,
n,
o,
p,
q,
r,
s,
t,
u,
v,
w,
x,
y,
z,
braceleft,
bar,
braceright,
asciitilde,
nonbreakingspace,
exclamdown,
cent,
sterling,
currency,
yen,
brokenbar,
section,
dieresis,
copyright,
ordfeminine,
guillemotleft,
logicalnot,
uni00AD,
registered,
overscore,
degree,
plusminus,
twosuperior,
threesuperior,
acute,
mu,
paragraph,
periodcentered,
cedilla,
onesuperior,
ordmasculine,
guillemotright,
onequarter,
onehalf,
threequarters,
questiondown,
Agrave,
Aacute,
Acircumflex,
Atilde,
Adieresis,
Aring,
AE,
Ccedilla,
Egrave,
Eacute,
Ecircumflex,
Edieresis,
Igrave.alt,
Iacute.alt,
Icircumflex.alt,
Idieresis.alt,
Eth,
Ntilde,
Ograve,
Oacute,
Ocircumflex,
Otilde,
Odieresis,
multiply,
Oslash,
Ugrave,
Uacute,
Ucircumflex,
Udieresis,
Yacute,
Thorn,
germandbls,
agrave,
aacute,
acircumflex,
atilde,
adieresis,
aring,
ae,
ccedilla,
egrave,
eacute,
ecircumflex,
edieresis,
igrave,
iacute,
icircumflex,
idieresis,
eth,
ntilde,
ograve,
oacute,
ocircumflex,
otilde,
odieresis,
divide,
oslash,
ugrave,
uacute,
ucircumflex,
udieresis,
yacute,
thorn,
ydieresis,
Amacron,
amacron,
Abreve,
abreve,
Aogonek,
aogonek,
Cacute,
cacute,

glyphs = (
{
glyphname = .notdef;
lastChange = "2018-06-23 23:44:47 +0000";
layers = (
{
layerId = "5481159F-1A66-431E-9320-A33A99FB249E";
paths = (
{
closed = 1;
nodes = (
"505 0 LINE",
"505 714 LINE",
"94 714 LINE",
"94 0 LINE"
);
},
{
closed = 1;
nodes = (
"454 663 LINE",
"454 51 LINE",
"145 51 LINE",
"145 663 LINE"
);
}
);
width = 600;
}
);
note = ".notdef";
},
{
glyphname = exclam;
lastChange = "2018-06-23 23:44:47 +0000";
layers = (
{
layerId = "5481159F-1A66-431E-9320-A33A99FB249E";
paths = (
{
closed = 1;
nodes = (
"71 714 LINE",
"96 217 LINE",
"181 217 LINE",
"206 714 LINE"
);
},
{
closed = 1;
nodes = (
"65 13 OFFCURVE",
"92 -14 OFFCURVE",
"138 -14 CURVE SMOOTH",
"184 -14 OFFCURVE",
"210 15 OFFCURVE",
"210 61 CURVE SMOOTH",
"210 107 OFFCURVE",
"185 135 OFFCURVE",
"138 135 CURVE SMOOTH",
"91 135 OFFCURVE",
"65 109 OFFCURVE",
"65 61 CURVE SMOOTH"
);
}
);
width = 276;
}
);
note = exclam;
unicode = 0021;
},
{
glyphname = quotedbl;
lastChange = "2018-06-23 23:44:47 +0000";
layers = (
{
layerId = "5481159F-1A66-431E-9320-A33A99FB249E";
paths = (
{
closed = 1;
nodes = (
"85 456 LINE",
"158 456 LINE",
"178 714 LINE",
"65 714 LINE"
);
},
{
closed = 1;
nodes = (
"278 456 LINE",
"351 456 LINE",
"371 714 LINE",
"258 714 LINE"
);
}
);
width = 436;
}
);
note = quotedbl;
unicode = 0022;
},
{
glyphname = numbersign;
lastChange = "2018-06-23 23:44:47 +0000";
layers = (
{
layerId = "5481159F-1A66-431E-9320-A33A99FB249E";
paths = (
{
closed = 1;
nodes = (
"622 507 LINE",
"499 507 LINE",
"538 713 LINE",
"453 713 LINE",
"414 507 LINE",
"291 507 LINE",
"330 713 LINE",
"242 713 LINE",
"203 507 LINE",
"60 507 LINE",
"60 425 LINE",
"189 425 LINE",
"161 286 LINE",
"23 286 LINE",
"23 204 LINE",
"145 204 LINE",
"108 0 LINE",
"193 0 LINE",
"232 204 LINE",
"353 204 LINE",
"314 0 LINE",
"401 0 LINE",
"440 204 LINE",
"588 204 LINE",
"588 286 LINE",
"456 286 LINE",
"483 425 LINE",
"622 425 LINE"
);
},
{
closed = 1;
nodes = (
"397 425 LINE",
"369 286 LINE",
"247 286 LINE",
"275 425 LINE"
);
}
);
width = 646;
}
);
note = numbersign;
unicode = 0023;
},
{
glyphname = dollar;
lastChange = "2018-06-23 23:44:47 +0000";
layers = (
{
layerId = "5481159F-1A66-431E-9320-A33A99FB249E";
paths = (
{
closed = 1;
nodes = (
"519 297 OFFCURVE",
"479 346 OFFCURVE",
"355 393 CURVE SMOOTH",
"318 407 LINE",
"318 585 LINE",
"368 581 OFFCURVE",
"419 569 OFFCURVE",
"470 549 CURVE",
"506 638 LINE",
"447 663 OFFCURVE",
"384 676 OFFCURVE",
"318 678 CURVE",
"318 759 LINE",
"253 759 LINE",
"253 677 LINE",
"133 665 OFFCURVE",
"58 603 OFFCURVE",
"58 513 CURVE SMOOTH",
"58 429 OFFCURVE",
"105 375 OFFCURVE",
"212 334 CURVE SMOOTH",
"253 319 LINE",
"253 136 LINE",
"194 137 OFFCURVE",
"110 158 OFFCURVE",
"54 185 CURVE",
"54 82 LINE",
"106 59 OFFCURVE",
"172 46 OFFCURVE",
"253 45 CURVE",
"253 -58 LINE",
"318 -58 LINE",
"318 48 LINE",
"448 62 OFFCURVE",
"519 127 OFFCURVE",
"519 221 CURVE SMOOTH"
);
},
{
closed = 1;
nodes = (
"404 173 OFFCURVE",
"375 149 OFFCURVE",
"318 140 CURVE",
"318 296 LINE",
"380 273 OFFCURVE",
"404 251 OFFCURVE",
"404 214 CURVE SMOOTH"
);
},
{
closed = 1;
nodes = (
"173 550 OFFCURVE",
"201 575 OFFCURVE",
"253 583 CURVE",
"253 431 LINE",
"192 455 OFFCURVE",
"173 477 OFFCURVE",
"173 514 CURVE SMOOTH"
);
}
);
width = 571;
}
);
note = dollar;
unicode = 0024;
},
{
glyphname = percent;
lastChange = "2018-06-23 23:44:47 +0000";
layers = (
{
layerId = "5481159F-1A66-431E-9320-A33A99FB249E";
paths = (
{
closed = 1;
nodes = (
"136 548 OFFCURVE",
"141 584 OFFCURVE",
"150 608 CURVE SMOOTH",
"160 632 OFFCURVE",
"175 644 OFFCURVE",
"197 644 CURVE SMOOTH",
"240 644 OFFCURVE",
"261 596 OFFCURVE",
"261 500 CURVE SMOOTH",
"261 404 OFFCURVE",
"240 356 OFFCURVE",
"197 356 CURVE SMOOTH",
"175 356 OFFCURVE",
"160 368 OFFCURVE",
"150 392 CURVE SMOOTH",
"141 416 OFFCURVE",
"136 452 OFFCURVE",
"136 500 CURVE SMOOTH"
);
},
{
closed = 1;
nodes = (
"356 644 OFFCURVE",
"299 724 OFFCURVE",
"197 724 CURVE SMOOTH",
"93 724 OFFCURVE",
"41 650 OFFCURVE",
"41 501 CURVE SMOOTH",
"41 356 OFFCURVE",
"98 276 OFFCURVE",
"197 276 CURVE SMOOTH",
"302 276 OFFCURVE",
"356 351 OFFCURVE",
"356 501 CURVE SMOOTH"
);
},
{
closed = 1;
nodes = (
"601 263 OFFCURVE",
"606 299 OFFCURVE",
"616 323 CURVE SMOOTH",
"625 346 OFFCURVE",
"641 358 OFFCURVE",
"662 358 CURVE SMOOTH",
"705 358 OFFCURVE",
"726 310 OFFCURVE",
"726 215 CURVE SMOOTH",
"726 118 OFFCURVE",
"705 70 OFFCURVE",
"662 70 CURVE SMOOTH",
"641 70 OFFCURVE",
"625 82 OFFCURVE",
"616 106 CURVE SMOOTH",
"606 130 OFFCURVE",
"601 167 OFFCURVE",
"601 215 CURVE SMOOTH"
);
},
{
closed = 1;
nodes = (
"821 359 OFFCURVE",
"762 438 OFFCURVE",
"662 438 CURVE SMOOTH",
"558 438 OFFCURVE",
"506 364 OFFCURVE",
"506 215 CURVE SMOOTH",
"506 70 OFFCURVE",
"563 -10 OFFCURVE",
"662 -10 CURVE SMOOTH",
"766 -10 OFFCURVE",
"821 65 OFFCURVE",
"821 215 CURVE SMOOTH"
);
},
{
closed = 1;
nodes = (
"185 0 LINE",
"280 0 LINE",
"676 714 LINE",
"581 714 LINE"
);
}
);
width = 862;
}
);
note = percent;
unicode = 0025;
},
{
glyphname = ampersand;
lastChange = "2018-06-23 23:44:47 +0000";
layers = (
{
layerId = "5481159F-1A66-431E-9320-A33A99FB249E";
paths = (
{
closed = 1;
nodes = (
"220 604 OFFCURVE",
"253 633 OFFCURVE",
"304 633 CURVE SMOOTH",
"351 633 OFFCURVE",
"382 605 OFFCURVE",
"382 563 CURVE SMOOTH",
"382 518 OFFCURVE",
"356 485 OFFCURVE",
"282 444 CURVE",
"243 485 OFFCURVE",
"220 519 OFFCURVE",
"220 560 CURVE SMOOTH"
);
},
{
closed = 1;
nodes = (
"217 89 OFFCURVE",
"168 133 OFFCURVE",
"168 197 CURVE SMOOTH",
"168 246 OFFCURVE",
"190 281 OFFCURVE",
"259 325 CURVE",
"446 141 LINE",
"403 106 OFFCURVE",
"353 89 OFFCURVE",
"293 89 CURVE SMOOTH"
);
},
{
closed = 1;
nodes = (
"47 66 OFFCURVE",
"137 -10 OFFCURVE",
"287 -10 CURVE SMOOTH",
"378 -10 OFFCURVE",
"452 18 OFFCURVE",
"518 71 CURVE",
"591 0 LINE",
"739 0 LINE",
"592 142 LINE",
"642 200 OFFCURVE",
"678 276 OFFCURVE",
"701 368 CURVE",
"583 368 LINE",
"565 301 OFFCURVE",
"543 250 OFFCURVE",
"517 215 CURVE",
"348 378 LINE",
"451 438 OFFCURVE",
"491 496 OFFCURVE",
"491 570 CURVE SMOOTH",
"491 664 OFFCURVE",
"421 724 OFFCURVE",
"306 724 CURVE SMOOTH",
"187 724 OFFCURVE",
"111 663 OFFCURVE",
"111 564 CURVE SMOOTH",
"111 511 OFFCURVE",
"129 467 OFFCURVE",
"191 395 CURVE",
"82 333 OFFCURVE",
"47 274 OFFCURVE",
"47 189 CURVE SMOOTH"
);
}
);
width = 740;
}
);
note = ampersand;
unicode = 0026;
},
{
glyphname = quotesingle;
lastChange = "2018-06-23 23:44:47 +0000";
layers = (
{
layerId = "5481159F-1A66-431E-9320-A33A99FB249E";
paths = (
{
closed = 1;
nodes = (
"85 456 LINE",
"158 456 LINE",
"178 714 LINE",
"65 714 LINE"
);
}
);
width = 243;
}
);
note = quotesingle;
unicode = 0027;
},
{
glyphname = parenleft;
lastChange = "2018-06-23 23:44:47 +0000";
layers = (
{
layerId = "5481159F-1A66-431E-9320-A33A99FB249E";
paths = (
{
closed = 1;
nodes = (
"40 104 OFFCURVE",
"91 -47 OFFCURVE",
"187 -158 CURVE",
"286 -158 LINE",
"197 -38 OFFCURVE",
"147 116 OFFCURVE",
"147 275 CURVE SMOOTH",
"147 434 OFFCURVE",
"197 591 OFFCURVE",
"287 714 CURVE",
"187 714 LINE",
"92 601 OFFCURVE",
"40 446 OFFCURVE",
"40 274 CURVE SMOOTH"
);
}
);
width = 317;
}
);
note = parenleft;
unicode = 0028;
},
{
glyphname = parenright;
lastChange = "2018-06-23 23:44:47 +0000";
layers = (
{
layerId = "5481159F-1A66-431E-9320-A33A99FB249E";
paths = (
{
closed = 1;
nodes = (
"277 445 OFFCURVE",
"226 600 OFFCURVE",
"130 714 CURVE",
"30 714 LINE",
"120 591 OFFCURVE",
"170 435 OFFCURVE",
"170 275 CURVE SMOOTH",
"170 116 OFFCURVE",
"121 -37 OFFCURVE",
"31 -158 CURVE",
"130 -158 LINE",
"225 -49 OFFCURVE",
"277 103 OFFCURVE",
"277 274 CURVE SMOOTH"
);
}
);
width = 317;
}
);
note = parenright;
unicode = 0029;
},
{
glyphname = asterisk;
lastChange = "2018-06-23 23:44:47 +0000";
layers = (
{
layerId = "5481159F-1A66-431E-9320-A33A99FB249E";
paths = (
{
closed = 1;
nodes = (
"237 573 LINE",
"53 626 LINE",
"36 520 LINE",
"211 506 LINE",
"98 354 LINE",
"198 302 LINE",
"271 467 LINE",
"352 302 LINE",
"449 354 LINE",
"334 506 LINE",
"510 520 LINE",
"496 626 LINE",
"308 573 LINE",
"328 760 LINE",
"217 760 LINE"
);
}
);
width = 548;
}
);
note = asterisk;
unicode = 002A;
},
{
glyphname = plus;
lastChange = "2018-06-23 23:44:47 +0000";
layers = (
{
layerId = "5481159F-1A66-431E-9320-A33A99FB249E";
paths = (
{
closed = 1;
nodes = (
"329 111 LINE",
"329 309 LINE",
"524 309 LINE",
"524 396 LINE",
"329 396 LINE",
"329 595 LINE",
"241 595 LINE",
"241 396 LINE",
"47 396 LINE",
"47 309 LINE",
"241 309 LINE",
"241 111 LINE"
);
}
);
width = 571;
}
);
note = plus;
unicode = 002B;
},
{
glyphname = comma;
lastChange = "2018-06-23 23:44:47 +0000";
layers = (
{
layerId = "5481159F-1A66-431E-9320-A33A99FB249E";
paths = (
{
closed = 1;
nodes = (
"81 116 LINE",
"70 41 OFFCURVE",
"53 -41 OFFCURVE",
"31 -129 CURVE",
"115 -129 LINE",
"157 -34 OFFCURVE",
"186 44 OFFCURVE",
"201 105 CURVE",
"194 116 LINE"
);
}
);
width = 267;
}
);
note = comma;
unicode = 002C;
},
{
glyphname = hyphen;
lastChange = "2018-06-23 23:44:47 +0000";
layers = (
{
layerId = "5481159F-1A66-431E-9320-A33A99FB249E";
paths = (
{
closed = 1;
nodes = (
"286 317 LINE",
"35 317 LINE",
"35 219 LINE",
"286 219 LINE"
);
}
);
width = 322;
}
);
note = hyphen;
unicode = 002D;
},
{
glyphname = period;
lastChange = "2018-06-23 23:44:47 +0000";
layers = (
{
layerId = "5481159F-1A66-431E-9320-A33A99FB249E";
paths = (
{
closed = 1;
nodes = (
"65 14 OFFCURVE",
"90 -14 OFFCURVE",
"137 -14 CURVE SMOOTH",
"184 -14 OFFCURVE",
"210 15 OFFCURVE",
"210 61 CURVE SMOOTH",
"210 106 OFFCURVE",
"185 135 OFFCURVE",
"137 135 CURVE SMOOTH",
"90 135 OFFCURVE",
"65 108 OFFCURVE",
"65 61 CURVE SMOOTH"
);
}
);
width = 275;
}
);
note = period;
unicode = 002E;
},
{
glyphname = slash;
lastChange = "2018-06-23 23:44:47 +0000";
layers = (
{
layerId = "5481159F-1A66-431E-9320-A33A99FB249E";
paths = (
{
closed = 1;
nodes = (
"8 0 LINE",
"116 0 LINE",
"382 714 LINE",
"274 714 LINE"
);
}
);
width = 390;
}
);
note = slash;
unicode = 002F;
},
{
glyphname = zero;
lastChange = "2018-06-23 23:44:47 +0000";
layers = (
{
layerId = "5481159F-1A66-431E-9320-A33A99FB249E";
paths = (
{
closed = 1;
nodes = (
"528 598 OFFCURVE",
"445 725 OFFCURVE",
"285 725 CURVE SMOOTH",
"122 725 OFFCURVE",
"43 609 OFFCURVE",
"43 357 CURVE SMOOTH",
"43 117 OFFCURVE",
"126 -10 OFFCURVE",
"285 -10 CURVE SMOOTH",
"449 -10 OFFCURVE",
"528 109 OFFCURVE",
"528 357 CURVE SMOOTH"
);
},
{
closed = 1;
nodes = (
"159 454 OFFCURVE",
"169 524 OFFCURVE",
"189 566 CURVE SMOOTH",
"209 608 OFFCURVE",
"241 629 OFFCURVE",
"285 629 CURVE SMOOTH",
"329 629 OFFCURVE",
"361 607 OFFCURVE",
"382 565 CURVE SMOOTH",
"402 522 OFFCURVE",
"412 453 OFFCURVE",
"412 357 CURVE SMOOTH",
"412 261 OFFCURVE",
"402 192 OFFCURVE",
"382 149 CURVE SMOOTH",
"361 107 OFFCURVE",
"329 86 OFFCURVE",
"285 86 CURVE SMOOTH",
"241 86 OFFCURVE",
"209 107 OFFCURVE",
"189 148 CURVE SMOOTH",
"169 190 OFFCURVE",
"159 260 OFFCURVE",
"159 357 CURVE SMOOTH"
);
}
);
width = 571;
}
);
note = zero;
unicode = 0030;
},
{
glyphname = one;
lastChange = "2018-06-23 23:44:47 +0000";
layers = (
{
layerId = "5481159F-1A66-431E-9320-A33A99FB249E";
paths = (
{
closed = 1;
nodes = (
"285 714 LINE",
"75 549 LINE",
"133 476 LINE",
"195 526 OFFCURVE",
"231 557 OFFCURVE",
"243 566 CURVE SMOOTH",
"253 575 OFFCURVE",
"263 584 OFFCURVE",
"270 592 CURVE",
"268 560 OFFCURVE",
"266 516 OFFCURVE",
"266 461 CURVE SMOOTH",
"266 0 LINE",
"381 0 LINE",
"381 714 LINE"
);
}
);
width = 571;
}
);
note = one;
unicode = 0031;
},
{
glyphname = two;
lastChange = "2018-06-23 23:44:47 +0000";
layers = (
{
layerId = "5481159F-1A66-431E-9320-A33A99FB249E";
paths = (
{
closed = 1;
nodes = (
"189 101 LINE",
"189 106 LINE",
"313 226 LINE SMOOTH",
"369 278 OFFCURVE",
"409 320 OFFCURVE",
"433 351 CURVE SMOOTH",
"480 413 OFFCURVE",
"503 468 OFFCURVE",
"503 532 CURVE SMOOTH",
"503 649 OFFCURVE",
"416 724 OFFCURVE",
"283 724 CURVE SMOOTH",
"199 724 OFFCURVE",
"127 699 OFFCURVE",
"48 632 CURVE",
"110 556 LINE",
"177 609 OFFCURVE",
"223 626 OFFCURVE",
"278 626 CURVE SMOOTH",
"346 626 OFFCURVE",
"387 586 OFFCURVE",
"387 522 CURVE SMOOTH",
"387 475 OFFCURVE",
"372 437 OFFCURVE",
"336 391 CURVE SMOOTH",
"318 367 OFFCURVE",
"282 328 OFFCURVE",
"228 272 CURVE SMOOTH",
"44 87 LINE",
"44 0 LINE",
"528 0 LINE",
"528 101 LINE"
);
}
);
width = 571;
}
);
note = two;
unicode = 0032;
},
{
glyphname = three;
lastChange = "2018-06-23 23:44:47 +0000";
layers = (
{
layerId = "5481159F-1A66-431E-9320-A33A99FB249E";
paths = (
{
closed = 1;
nodes = (
"501 659 OFFCURVE",
"416 724 OFFCURVE",
"272 724 CURVE SMOOTH",
"186 724 OFFCURVE",
"109 700 OFFCURVE",
"44 652 CURVE",
"100 572 LINE",
"168 616 OFFCURVE",
"213 628 OFFCURVE",
"267 628 CURVE SMOOTH",
"345 628 OFFCURVE",
"385 593 OFFCURVE",
"385 532 CURVE SMOOTH",
"385 454 OFFCURVE",
"328 414 OFFCURVE",
"214 414 CURVE SMOOTH",
"151 414 LINE",
"151 321 LINE",
"213 321 LINE SMOOTH",
"342 321 OFFCURVE",
"401 286 OFFCURVE",
"401 210 CURVE SMOOTH",
"401 124 OFFCURVE",
"347 84 OFFCURVE",
"236 84 CURVE SMOOTH",
"173 84 OFFCURVE",
"103 101 OFFCURVE",
"42 131 CURVE",
"42 29 LINE",
"96 3 OFFCURVE",
"163 -10 OFFCURVE",
"242 -10 CURVE SMOOTH",
"421 -10 OFFCURVE",
"522 68 OFFCURVE",
"522 205 CURVE SMOOTH",
"522 299 OFFCURVE",
"465 358 OFFCURVE",
"350 372 CURVE",
"350 376 LINE",
"446 397 OFFCURVE",
"501 459 OFFCURVE",
"501 550 CURVE SMOOTH"
);
}
);
width = 571;
}
);
note = three;
unicode = 0033;
},
{
glyphname = four;
lastChange = "2018-06-23 23:44:47 +0000";
layers = (
{
layerId = "5481159F-1A66-431E-9320-A33A99FB249E";
paths = (
{
closed = 1;
nodes = (
"457 251 LINE",
"457 716 LINE",
"345 716 LINE",
"19 244 LINE",
"19 156 LINE",
"345 156 LINE",
"345 0 LINE",
"457 0 LINE",
"457 156 LINE",
"553 156 LINE",
"553 251 LINE"
);
},
{
closed = 1;
nodes = (
"303 509 LINE",
"323 540 OFFCURVE",
"337 565 OFFCURVE",
"346 587 CURVE",
"350 587 LINE",
"347 546 OFFCURVE",
"345 494 OFFCURVE",
"345 430 CURVE SMOOTH",
"345 251 LINE",
"126 251 LINE"
);
}
);
width = 571;
}
);
note = four;
unicode = 0034;
},
{
glyphname = five;
lastChange = "2018-06-23 23:44:47 +0000";
layers = (
{
layerId = "5481159F-1A66-431E-9320-A33A99FB249E";
paths = (
{
closed = 1;
nodes = (
"239 446 OFFCURVE",
"207 439 OFFCURVE",
"184 435 CURVE",
"200 612 LINE",
"470 612 LINE",
"470 714 LINE",
"99 714 LINE",
"72 365 LINE",
"123 335 LINE",
"157 343 OFFCURVE",
"208 350 OFFCURVE",
"239 350 CURVE SMOOTH",
"348 350 OFFCURVE",
"402 308 OFFCURVE",
"402 222 CURVE SMOOTH",
"402 133 OFFCURVE",
"347 86 OFFCURVE",
"243 86 CURVE SMOOTH",
"185 86 OFFCURVE",
"110 103 OFFCURVE",
"57 133 CURVE",
"57 29 LINE",
"103 3 OFFCURVE",
"166 -10 OFFCURVE",
"245 -10 CURVE SMOOTH",
"421 -10 OFFCURVE",
"520 81 OFFCURVE",
"520 233 CURVE SMOOTH",
"520 364 OFFCURVE",
"430 446 OFFCURVE",
"286 446 CURVE SMOOTH"
);
}
);
width = 571;
}
);
note = five;
unicode = 0035;
},
{
glyphname = six;
lastChange = "2018-06-23 23:44:47 +0000";
layers = (
{
layerId = "5481159F-1A66-431E-9320-A33A99FB249E";
paths = (
{
closed = 1;
nodes = (
"46 238 OFFCURVE",
"56 182 OFFCURVE",
"77 135 CURVE SMOOTH",
"117 41 OFFCURVE",
"195 -10 OFFCURVE",
"297 -10 CURVE SMOOTH",
"441 -10 OFFCURVE",
"531 83 OFFCURVE",
"531 233 CURVE SMOOTH",
"531 369 OFFCURVE",
"455 454 OFFCURVE",
"325 454 CURVE SMOOTH",
"250 454 OFFCURVE",
"194 424 OFFCURVE",
"163 371 CURVE",
"157 371 LINE",
"164 552 OFFCURVE",
"239 630 OFFCURVE",
"392 630 CURVE SMOOTH",
"425 630 OFFCURVE",
"453 626 OFFCURVE",
"478 619 CURVE",
"478 715 LINE",
"453 720 OFFCURVE",
"423 723 OFFCURVE",
"387 723 CURVE SMOOTH",
"160 723 OFFCURVE",
"46 583 OFFCURVE",
"46 304 CURVE SMOOTH"
);
},
{
closed = 1;
nodes = (
"217 85 OFFCURVE",
"162 156 OFFCURVE",
"162 248 CURVE SMOOTH",
"162 267 OFFCURVE",
"168 286 OFFCURVE",
"180 305 CURVE SMOOTH",
"204 341 OFFCURVE",
"249 364 OFFCURVE",
"298 364 CURVE SMOOTH",
"378 364 OFFCURVE",
"418 314 OFFCURVE",
"418 232 CURVE SMOOTH",
"418 138 OFFCURVE",
"374 85 OFFCURVE",
"295 85 CURVE SMOOTH"
);
}
);
width = 571;
}
);
note = six;
unicode = 0036;
},
{
glyphname = seven;
lastChange = "2018-06-23 23:44:47 +0000";
layers = (
{
layerId = "5481159F-1A66-431E-9320-A33A99FB249E";
paths = (
{
closed = 1;
nodes = (
"530 633 LINE",
"530 713 LINE",
"36 713 LINE",
"36 612 LINE",
"407 612 LINE",
"125 0 LINE",
"249 0 LINE"
);
}
);
width = 571;
}
);
note = seven;
unicode = 0037;
},
{
glyphname = eight;
lastChange = "2018-06-23 23:44:47 +0000";
layers = (
{
layerId = "5481159F-1A66-431E-9320-A33A99FB249E";
paths = (
{
closed = 1;
nodes = (
"154 723 OFFCURVE",
"65 657 OFFCURVE",
"65 553 CURVE SMOOTH",
"65 481 OFFCURVE",
"99 425 OFFCURVE",
"186 373 CURVE",
"84 324 OFFCURVE",
"43 261 OFFCURVE",
"43 181 CURVE SMOOTH",
"43 60 OFFCURVE",
"132 -10 OFFCURVE",
"287 -10 CURVE SMOOTH",
"435 -10 OFFCURVE",
"528 67 OFFCURVE",
"528 185 CURVE SMOOTH",
"528 261 OFFCURVE",
"485 321 OFFCURVE",
"373 377 CURVE",
"461 420 OFFCURVE",
"505 479 OFFCURVE",
"505 552 CURVE SMOOTH",
"505 656 OFFCURVE",
"420 723 OFFCURVE",
"285 723 CURVE SMOOTH"
);
},
{
closed = 1;
nodes = (
"153 244 OFFCURVE",
"188 288 OFFCURVE",
"274 325 CURVE",
"288 319 LINE SMOOTH",
"375 282 OFFCURVE",
"418 239 OFFCURVE",
"418 186 CURVE SMOOTH",
"418 120 OFFCURVE",
"369 78 OFFCURVE",
"285 78 CURVE SMOOTH",
"204 78 OFFCURVE",
"153 117 OFFCURVE",
"153 185 CURVE SMOOTH"
);
},
{
closed = 1;
nodes = (
"351 635 OFFCURVE",
"394 600 OFFCURVE",
"394 545 CURVE SMOOTH",
"394 494 OFFCURVE",
"365 458 OFFCURVE",
"287 424 CURVE",
"254 439 OFFCURVE",
"231 452 OFFCURVE",
"218 463 CURVE SMOOTH",
"190 485 OFFCURVE",
"176 511 OFFCURVE",
"176 545 CURVE SMOOTH",
"176 600 OFFCURVE",
"219 635 OFFCURVE",
"284 635 CURVE SMOOTH"
);
}
);
width = 571;
}
);
note = eight;
unicode = 0038;
},
{
glyphname = nine;
lastChange = "2018-06-23 23:44:47 +0000";
layers = (
{
layerId = "5481159F-1A66-431E-9320-A33A99FB249E";
paths = (
{
closed = 1;
nodes = (
"527 475 OFFCURVE",
"517 531 OFFCURVE",
"496 579 CURVE SMOOTH",
"455 672 OFFCURVE",
"377 723 OFFCURVE",
"276 723 CURVE SMOOTH",
"131 723 OFFCURVE",
"42 628 OFFCURVE",
"42 479 CURVE SMOOTH",
"42 342 OFFCURVE",
"119 258 OFFCURVE",
"245 258 CURVE SMOOTH",
"318 258 OFFCURVE",
"372 282 OFFCURVE",
"410 341 CURVE",
"416 341 LINE",
"409 163 OFFCURVE",
"335 82 OFFCURVE",
"180 82 CURVE SMOOTH",
"151 82 OFFCURVE",
"122 86 OFFCURVE",
"93 94 CURVE",
"93 -2 LINE",
"112 -7 OFFCURVE",
"143 -10 OFFCURVE",
"186 -10 CURVE SMOOTH",
"414 -10 OFFCURVE",
"527 128 OFFCURVE",
"527 409 CURVE SMOOTH"
);
},
{
closed = 1;
nodes = (
"304 628 OFFCURVE",
"327 621 OFFCURVE",
"347 606 CURVE SMOOTH",
"388 577 OFFCURVE",
"411 523 OFFCURVE",
"411 465 CURVE SMOOTH",
"411 403 OFFCURVE",
"352 349 OFFCURVE",
"274 349 CURVE SMOOTH",
"194 349 OFFCURVE",
"155 398 OFFCURVE",
"155 480 CURVE SMOOTH",
"155 574 OFFCURVE",
"198 628 OFFCURVE",
"278 628 CURVE SMOOTH"
);
}
);
width = 571;
}
);
note = nine;
unicode = 0039;
},
{
glyphname = colon;
lastChange = "2018-06-23 23:44:47 +0000";
layers = (
{
layerId = "5481159F-1A66-431E-9320-A33A99FB249E";
paths = (
{
closed = 1;
nodes = (
"65 14 OFFCURVE",
"90 -14 OFFCURVE",
"137 -14 CURVE SMOOTH",
"184 -14 OFFCURVE",
"210 15 OFFCURVE",
"210 61 CURVE SMOOTH",
"210 106 OFFCURVE",
"185 135 OFFCURVE",
"137 135 CURVE SMOOTH",
"90 135 OFFCURVE",
"65 108 OFFCURVE",
"65 61 CURVE SMOOTH"
);
},
{
closed = 1;
nodes = (
"65 431 OFFCURVE",
"90 403 OFFCURVE",
"137 403 CURVE SMOOTH",
"184 403 OFFCURVE",
"210 432 OFFCURVE",
"210 478 CURVE SMOOTH",
"210 524 OFFCURVE",
"186 552 OFFCURVE",
"137 552 CURVE SMOOTH",
"89 552 OFFCURVE",
"65 527 OFFCURVE",
"65 478 CURVE SMOOTH"
);
}
);
width = 275;
}
);
note = colon;
unicode = 003A;
},
{
glyphname = semicolon;
lastChange = "2018-06-23 23:44:47 +0000";
layers = (
{
layerId = "5481159F-1A66-431E-9320-A33A99FB249E";
paths = (
{
closed = 1;
nodes = (
"70 41 OFFCURVE",
"53 -41 OFFCURVE",
"31 -129 CURVE",
"115 -129 LINE",
"157 -34 OFFCURVE",
"186 44 OFFCURVE",
"201 105 CURVE",
"194 116 LINE",
"81 116 LINE"
);
},
{
closed = 1;
nodes = (
"64 431 OFFCURVE",
"89 403 OFFCURVE",
"136 403 CURVE SMOOTH",
"183 403 OFFCURVE",
"209 432 OFFCURVE",
"209 478 CURVE SMOOTH",
"209 524 OFFCURVE",
"185 552 OFFCURVE",
"136 552 CURVE SMOOTH",
"88 552 OFFCURVE",
"64 527 OFFCURVE",
"64 478 CURVE SMOOTH"
);
}
);
width = 278;
}
);
note = semicolon;
unicode = 003B;
},
{
glyphname = less;
lastChange = "2018-06-23 23:44:47 +0000";
layers = (
{
layerId = "5481159F-1A66-431E-9320-A33A99FB249E";
paths = (
{
closed = 1;
nodes = (
"166 352 LINE",
"524 520 LINE",
"524 615 LINE",
"47 377 LINE",
"47 318 LINE",
"524 108 LINE",
"524 204 LINE"
);
}
);
width = 571;
}
);
note = less;
unicode = 003C;
},
{
glyphname = equal;
lastChange = "2018-06-23 23:44:47 +0000";
layers = (
{
layerId = "5481159F-1A66-431E-9320-A33A99FB249E";
paths = (
{
closed = 1;
nodes = (
"520 493 LINE",
"50 493 LINE",
"50 406 LINE",
"520 406 LINE"
);
},
{
closed = 1;
nodes = (
"520 298 LINE",
"50 298 LINE",
"50 211 LINE",
"520 211 LINE"
);
}
);
width = 571;
}
);
note = equal;
unicode = 003D;
},
{
glyphname = greater;
lastChange = "2018-06-23 23:44:47 +0000";
layers = (
{
layerId = "5481159F-1A66-431E-9320-A33A99FB249E";
paths = (
{
closed = 1;
nodes = (
"524 318 LINE",
"524 377 LINE",
"47 615 LINE",
"47 520 LINE",
"405 352 LINE",
"47 204 LINE",
"47 108 LINE"
);
}
);
width = 571;
}
);
note = greater;
unicode = 003E;
},
{
glyphname = question;
lastChange = "2018-06-23 23:44:47 +0000";
layers = (
{
layerId = "5481159F-1A66-431E-9320-A33A99FB249E";
paths = (
{
closed = 1;
nodes = (
"234 239 LINE SMOOTH",
"234 292 OFFCURVE",
"250 313 OFFCURVE",
"310 361 CURVE SMOOTH",
"346 389 OFFCURVE",
"371 411 OFFCURVE",
"385 428 CURVE SMOOTH",
"414 463 OFFCURVE",
"428 499 OFFCURVE",
"428 548 CURVE SMOOTH",
"428 658 OFFCURVE",
"348 724 OFFCURVE",
"220 724 CURVE SMOOTH",
"145 724 OFFCURVE",
"74 706 OFFCURVE",
"8 669 CURVE",
"49 583 LINE",
"99 608 OFFCURVE",
"150 628 OFFCURVE",
"212 628 CURVE SMOOTH",
"280 628 OFFCURVE",
"318 598 OFFCURVE",
"318 543 CURVE SMOOTH",
"318 496 OFFCURVE",
"304 472 OFFCURVE",
"226 411 CURVE SMOOTH",
"161 360 OFFCURVE",
"138 320 OFFCURVE",
"138 248 CURVE SMOOTH",
"138 217 LINE",
"234 217 LINE"
);
},
{
closed = 1;
nodes = (
"118 14 OFFCURVE",
"144 -14 OFFCURVE",
"190 -14 CURVE SMOOTH",
"236 -14 OFFCURVE",
"262 15 OFFCURVE",
"262 61 CURVE SMOOTH",
"262 108 OFFCURVE",
"237 135 OFFCURVE",
"190 135 CURVE SMOOTH",
"142 135 OFFCURVE",
"118 110 OFFCURVE",
"118 61 CURVE SMOOTH"
);
}
);
width = 453;
}
);
note = question;
unicode = 003F;
},
{
glyphname = at;
lastChange = "2018-06-23 23:44:47 +0000";
layers = (
{
layerId = "5481159F-1A66-431E-9320-A33A99FB249E";
paths = (
{
closed = 1;
nodes = (
"843 432 OFFCURVE",
"828 495 OFFCURVE",
"797 549 CURVE SMOOTH",
"736 657 OFFCURVE",
"621 718 OFFCURVE",
"480 718 CURVE SMOOTH",
"398 718 OFFCURVE",
"325 700 OFFCURVE",
"261 665 CURVE SMOOTH",
"131 595 OFFCURVE",
"54 456 OFFCURVE",
"54 286 CURVE SMOOTH",
"54 54 OFFCURVE",
"196 -83 OFFCURVE",
"437 -83 CURVE SMOOTH",
"518 -83 OFFCURVE",
"592 -69 OFFCURVE",
"660 -41 CURVE",
"660 39 LINE",
"582 10 OFFCURVE",
"507 -5 OFFCURVE",
"435 -5 CURVE SMOOTH",
"246 -5 OFFCURVE",
"142 100 OFFCURVE",
"142 289 CURVE SMOOTH",
"142 359 OFFCURVE",
"156 421 OFFCURVE",
"183 475 CURVE SMOOTH",
"237 581 OFFCURVE",
"342 640 OFFCURVE",
"481 640 CURVE SMOOTH",
"535 640 OFFCURVE",
"583 629 OFFCURVE",
"625 606 CURVE SMOOTH",
"709 561 OFFCURVE",
"757 473 OFFCURVE",
"757 362 CURVE SMOOTH",
"757 259 OFFCURVE",
"724 185 OFFCURVE",
"673 185 CURVE SMOOTH",
"639 185 OFFCURVE",
"622 211 OFFCURVE",
"622 263 CURVE SMOOTH",
"622 275 LINE",
"633 502 LINE",
"586 518 OFFCURVE",
"520 527 OFFCURVE",
"470 527 CURVE SMOOTH",
"334 527 OFFCURVE",
"247 435 OFFCURVE",
"247 301 CURVE SMOOTH",
"247 184 OFFCURVE",
"312 111 OFFCURVE",
"418 111 CURVE SMOOTH",
"477 111 OFFCURVE",
"524 136 OFFCURVE",
"556 187 CURVE",
"562 187 LINE",
"575 140 OFFCURVE",
"616 111 OFFCURVE",
"667 111 CURVE SMOOTH",
"702 111 OFFCURVE",
"732 122 OFFCURVE",
"759 143 CURVE SMOOTH",
"812 186 OFFCURVE",
"843 268 OFFCURVE",
"843 361 CURVE SMOOTH"
);
},
{
closed = 1;
nodes = (
"341 394 OFFCURVE",
"390 453 OFFCURVE",
"473 453 CURVE SMOOTH",
"497 453 OFFCURVE",
"519 450 OFFCURVE",
"539 445 CURVE",
"533 328 LINE SMOOTH",
"527 233 OFFCURVE",
"493 185 OFFCURVE",
"430 185 CURVE SMOOTH",
"371 185 OFFCURVE",
"341 223 OFFCURVE",
"341 299 CURVE SMOOTH"
);
}
);
width = 898;
}
);
note = at;
unicode = 0040;
},
{
glyphname = A;
lastChange = "2018-06-23 23:44:47 +0000";
layers = (
{
anchors = (
{
name = bottom;
position = "{331, 0}";
},
{
name = ogonek;
position = "{595, 5}";
},
{
name = top;
position = "{331, 714}";
}
);
layerId = "5481159F-1A66-431E-9320-A33A99FB249E";
paths = (
{
closed = 1;
nodes = (
"394 717 LINE",
"267 717 LINE",
"0 0 LINE",
"123 0 LINE",
"193 198 LINE",
"466 198 LINE",
"537 0 LINE",
"661 0 LINE"
);
},
{
closed = 1;
nodes = (
"292 485 LINE SMOOTH",
"309 532 OFFCURVE",
"321 576 OFFCURVE",
"330 616 CURVE",
"336 590 OFFCURVE",
"358 519 OFFCURVE",
"368 493 CURVE SMOOTH",
"435 299 LINE",
"227 299 LINE"
);
}
);
width = 661;
}
);
note = A;
unicode = 0041;
},
{
glyphname = B;
lastChange = "2018-06-23 23:44:47 +0000";
layers = (
{
anchors = (
{
name = bottom;
position = "{330, 0}";
},
{
name = top;
position = "{330, 714}";
}
);
layerId = "5481159F-1A66-431E-9320-A33A99FB249E";
paths = (
{
closed = 1;
nodes = (
"352 0 LINE SMOOTH",
"512 0 OFFCURVE",
"606 77 OFFCURVE",
"606 205 CURVE SMOOTH",
"606 300 OFFCURVE",
"560 355 OFFCURVE",
"460 374 CURVE",
"460 379 LINE",
"541 393 OFFCURVE",
"585 452 OFFCURVE",
"585 535 CURVE SMOOTH",
"585 659 OFFCURVE",
"503 714 OFFCURVE",
"306 714 CURVE SMOOTH",
"94 714 LINE",
"94 0 LINE"
);
},
{
closed = 1;
nodes = (
"312 616 LINE SMOOTH",
"417 616 OFFCURVE",
"464 588 OFFCURVE",
"464 521 CURVE SMOOTH",
"464 447 OFFCURVE",
"421 419 OFFCURVE",
"323 419 CURVE SMOOTH",
"211 419 LINE",
"211 616 LINE"
);
},
{
closed = 1;
nodes = (
"433 324 OFFCURVE",
"483 289 OFFCURVE",
"483 215 CURVE SMOOTH",
"483 134 OFFCURVE",
"433 98 OFFCURVE",
"335 98 CURVE SMOOTH",
"211 98 LINE",
"211 324 LINE",
"329 324 LINE SMOOTH"
);
}
);
width = 660;
}
);
note = B;
unicode = 0042;
},
{
glyphname = C;
lastChange = "2018-06-23 23:44:47 +0000";
layers = (
{
anchors = (
{
name = bottom;
position = "{317, 0}";
},
{
name = top;
position = "{317, 714}";
}
);
layerId = "5481159F-1A66-431E-9320-A33A99FB249E";
paths = (
{
closed = 1;
nodes = (
"457 624 OFFCURVE",
"511 604 OFFCURVE",
"559 581 CURVE",
"601 678 LINE",
"539 709 OFFCURVE",
"472 724 OFFCURVE",
"399 724 CURVE SMOOTH",
"330 724 OFFCURVE",
"269 709 OFFCURVE",
"218 680 CURVE SMOOTH",
"115 621 OFFCURVE",
"59 505 OFFCURVE",
"59 357 CURVE SMOOTH",
"59 121 OFFCURVE",
"175 -10 OFFCURVE",
"384 -10 CURVE SMOOTH",
"455 -10 OFFCURVE",
"518 1 OFFCURVE",
"574 22 CURVE",
"574 122 LINE",
"513 103 OFFCURVE",
"458 90 OFFCURVE",
"398 90 CURVE SMOOTH",
"258 90 OFFCURVE",
"182 181 OFFCURVE",
"182 356 CURVE SMOOTH",
"182 523 OFFCURVE",
"264 624 OFFCURVE",
"398 624 CURVE SMOOTH"
);
}
);
width = 634;
}
);
note = C;
unicode = 0043;
},
{
glyphname = D;
lastChange = "2018-06-23 23:44:47 +0000";
layers = (
{
anchors = (
{
name = bottom;
position = "{367, 0}";
},
{
name = center;
position = "{367, 357}";
},
{
name = top;
position = "{367, 714}";
}
);
layerId = "5481159F-1A66-431E-9320-A33A99FB249E";
paths = (
{
closed = 1;
nodes = (
"675 586 OFFCURVE",
"542 714 OFFCURVE",
"315 714 CURVE SMOOTH",
"94 714 LINE",
"94 0 LINE",
"294 0 LINE SMOOTH",
"540 0 OFFCURVE",
"675 128 OFFCURVE",
"675 364 CURVE SMOOTH"
);
},
{
closed = 1;
nodes = (
"552 186 OFFCURVE",
"466 98 OFFCURVE",
"294 98 CURVE SMOOTH",
"211 98 LINE",
"211 616 LINE",
"312 616 LINE SMOOTH",
"472 616 OFFCURVE",
"552 531 OFFCURVE",
"552 360 CURVE SMOOTH"
);
}
);
width = 734;
}
);
note = D;
unicode = 0044;
},
{
glyphname = E;
lastChange = "2018-06-23 23:44:47 +0000";
layers = (
{
anchors = (
{
name = bottom;
position = "{279, 0}";
},
{
name = ogonek;
position = "{502, 5}";
},
{
name = top;
position = "{279, 714}";
},
{
name = topleft;
position = "{10, 714}";
}
);
layerId = "5481159F-1A66-431E-9320-A33A99FB249E";
paths = (
{
closed = 1;
nodes = (
"211 99 LINE",
"211 323 LINE",
"480 323 LINE",
"480 421 LINE",
"211 421 LINE",
"211 615 LINE",
"498 615 LINE",
"498 714 LINE",
"94 714 LINE",
"94 0 LINE",
"498 0 LINE",
"498 99 LINE"
);
}
);
width = 558;
}
);
note = E;
unicode = 0045;
},
{
glyphname = F;
lastChange = "2018-06-23 23:44:47 +0000";
layers = (
{
anchors = (
{
name = bottom;
position = "{266, 0}";
},
{
name = top;
position = "{266, 714}";
}
);
layerId = "5481159F-1A66-431E-9320-A33A99FB249E";
paths = (
{
closed = 1;
nodes = (
"479 293 LINE",
"479 392 LINE",
"210 392 LINE",
"210 615 LINE",
"497 615 LINE",
"497 714 LINE",
"94 714 LINE",
"94 0 LINE",
"210 0 LINE",
"210 293 LINE"
);
}
);
width = 532;
}
);
note = F;
unicode = 0046;
},
{
glyphname = G;
lastChange = "2018-06-23 23:44:47 +0000";
layers = (
{
anchors = (
{
name = bottom;
position = "{363, 0}";
},
{
name = top;
position = "{363, 714}";
}
);
layerId = "5481159F-1A66-431E-9320-A33A99FB249E";
paths = (
{
closed = 1;
nodes = (
"534 287 LINE",
"534 103 LINE",
"491 94 OFFCURVE",
"451 89 OFFCURVE",
"413 89 CURVE SMOOTH",
"263 89 OFFCURVE",
"181 182 OFFCURVE",
"181 356 CURVE SMOOTH",
"181 522 OFFCURVE",
"276 624 OFFCURVE",
"428 624 CURVE SMOOTH",
"486 624 OFFCURVE",
"544 611 OFFCURVE",
"602 584 CURVE",
"643 681 LINE",
"576 710 OFFCURVE",
"506 724 OFFCURVE",
"431 724 CURVE SMOOTH",
"199 724 OFFCURVE",
"59 587 OFFCURVE",
"59 357 CURVE SMOOTH",
"59 124 OFFCURVE",
"181 -10 OFFCURVE",
"397 -10 CURVE SMOOTH",
"489 -10 OFFCURVE",
"563 1 OFFCURVE",
"649 29 CURVE",
"649 387 LINE",
"386 387 LINE",
"386 287 LINE"
);
}
);
width = 726;
}
);
note = G;
unicode = 0047;
},
{
glyphname = H;
lastChange = "2018-06-23 23:44:47 +0000";
layers = (
{
anchors = (
{
name = bottom;
position = "{375, 0}";
},
{
name = center;
position = "{375, 357}";
},
{
name = top;
position = "{375, 714}";
},
{
name = topleft;
position = "{10, 714}";
}
);
layerId = "5481159F-1A66-431E-9320-A33A99FB249E";
paths = (
{
closed = 1;
nodes = (
"540 714 LINE",
"540 422 LINE",
"211 422 LINE",
"211 714 LINE",
"94 714 LINE",
"94 0 LINE",
"211 0 LINE",
"211 322 LINE",
"540 322 LINE",
"540 0 LINE",
"657 0 LINE",
"657 714 LINE"
);
}
);
width = 751;
}
);
note = H;
unicode = 0048;
},
{
glyphname = I.alt;
lastChange = "2018-06-23 23:44:47 +0000";
layers = (
{
anchors = (
{
name = bottom;
position = "{181, 0}";
},
{
name = ogonek;
position = "{325, 5}";
},
{
name = top;
position = "{181, 714}";
},
{
name = topleft;
position = "{10, 714}";
}
);
layerId = "5481159F-1A66-431E-9320-A33A99FB249E";
paths = (
{
closed = 1;
nodes = (
"239 95 LINE",
"239 618 LINE",
"324 647 LINE",
"324 714 LINE",
"36 714 LINE",
"36 647 LINE",
"122 618 LINE",
"122 95 LINE",
"36 67 LINE",
"36 0 LINE",
"324 0 LINE",
"324 67 LINE"
);
}
);
width = 361;
}
);
note = I.alt;
},
{
glyphname = J;
lastChange = "2018-06-23 23:44:47 +0000";
layers = (
{
anchors = (
{
name = bottom;
position = "{149, 0}";
},
{
name = top;
position = "{149, 714}";
}
);
layerId = "5481159F-1A66-431E-9320-A33A99FB249E";
paths = (
{
closed = 1;
nodes = (
"137 -199 OFFCURVE",
"208 -120 OFFCURVE",
"208 26 CURVE SMOOTH",
"208 714 LINE",
"91 714 LINE",
"91 22 LINE SMOOTH",
"91 -59 OFFCURVE",
"59 -99 OFFCURVE",
"-5 -99 CURVE SMOOTH",
"-25 -99 OFFCURVE",
"-49 -96 OFFCURVE",
"-76 -89 CURVE",
"-76 -187 LINE",
"-55 -195 OFFCURVE",
"-28 -199 OFFCURVE",
"4 -199 CURVE SMOOTH"
);
}
);
width = 299;
}
);
note = J;
unicode = 004A;
},
{
glyphname = K;
lastChange = "2018-06-23 23:44:47 +0000";
layers = (
{
anchors = (
{
name = bottom;
position = "{320, 0}";
},
{
name = top;
position = "{320, 714}";
}
);
layerId = "5481159F-1A66-431E-9320-A33A99FB249E";
paths = (
{
closed = 1;
nodes = (
"418 463 OFFCURVE",
"507 567 OFFCURVE",
"632 714 CURVE",
"499 714 LINE",
"306 486 LINE SMOOTH",
"274 450 OFFCURVE",
"243 412 OFFCURVE",
"211 373 CURVE",
"211 714 LINE",
"94 714 LINE",
"94 0 LINE",
"211 0 LINE",
"211 267 LINE",
"280 323 LINE",
"504 0 LINE",
"639 0 LINE",
"364 401 LINE"
);
}
);
width = 639;
}
);
note = K;
unicode = 004B;
},
{
glyphname = L;
lastChange = "2018-06-23 23:44:47 +0000";
layers = (
{
anchors = (
{
name = bottom;
position = "{271, 0}";
},
{
name = center;
position = "{271, 357}";
},
{
name = top;
position = "{271, 714}";
},
{
name = topright;
position = "{532, 714}";
}
);
layerId = "5481159F-1A66-431E-9320-A33A99FB249E";
paths = (
{
closed = 1;
nodes = (
"513 100 LINE",
"211 100 LINE",
"211 714 LINE",
"94 714 LINE",
"94 0 LINE",
"513 0 LINE"
);
}
);
width = 542;
}
);
note = L;
unicode = 004C;
},
{
glyphname = M;
lastChange = "2018-06-23 23:44:47 +0000";
layers = (
{
anchors = (
{
name = bottom;
position = "{461, 0}";
},
{
name = top;
position = "{461, 714}";
}
);
layerId = "5481159F-1A66-431E-9320-A33A99FB249E";
paths = (
{
closed = 1;
nodes = (
"720 595 LINE",
"724 595 LINE",
"722 571 OFFCURVE",
"717 424 OFFCURVE",
"717 353 CURVE SMOOTH",
"717 0 LINE",
"829 0 LINE",
"829 714 LINE",
"664 714 LINE",
"460 146 LINE",
"457 146 LINE",
"259 714 LINE",
"94 714 LINE",
"94 0 LINE",
"200 0 LINE",
"200 347 LINE SMOOTH",
"200 425 OFFCURVE",
"197 508 OFFCURVE",
"192 596 CURVE",
"196 596 LINE",
"403 0 LINE",
"506 0 LINE"
);
}
);
width = 923;
}
);
note = M;
unicode = 004D;
},
{
glyphname = N;
lastChange = "2018-06-23 23:44:47 +0000";
layers = (
{
anchors = (
{
name = bottom;
position = "{392, 0}";
},
{
name = top;
position = "{392, 714}";
}
);
layerId = "5481159F-1A66-431E-9320-A33A99FB249E";
paths = (
{
closed = 1;
nodes = (
"582 714 LINE",
"582 340 LINE SMOOTH",
"582 287 OFFCURVE",
"587 163 OFFCURVE",
"589 148 CURVE",
"586 148 LINE",
"236 714 LINE",
"94 714 LINE",
"94 0 LINE",
"200 0 LINE",
"200 371 LINE SMOOTH",
"200 421 OFFCURVE",
"198 477 OFFCURVE",
"193 537 CURVE SMOOTH",
"191 569 LINE",
"195 569 LINE",
"546 0 LINE",
"689 0 LINE",
"689 714 LINE"
);
}
);
width = 783;
}
);
note = N;
unicode = 004E;
},
{
glyphname = O;
lastChange = "2018-06-23 23:44:47 +0000";
layers = (
{
anchors = (
{
name = bottom;
position = "{394, 0}";
},
{
name = center;
position = "{394, 357}";
},
{
name = ogonek;
position = "{708, 5}";
},
{
name = top;
position = "{394, 714}";
},
{
name = topleft;
position = "{10, 714}";
},
{
name = topright;
position = "{777, 714}";
}
);
layerId = "5481159F-1A66-431E-9320-A33A99FB249E";
paths = (
{
closed = 1;
nodes = (
"728 591 OFFCURVE",
"607 725 OFFCURVE",
"395 725 CURVE SMOOTH",
"180 725 OFFCURVE",
"59 595 OFFCURVE",
"59 359 CURVE SMOOTH",
"59 123 OFFCURVE",
"179 -10 OFFCURVE",
"394 -10 CURVE SMOOTH",
"607 -10 OFFCURVE",
"728 125 OFFCURVE",
"728 358 CURVE SMOOTH"
);
},
{
closed = 1;
nodes = (
"183 533 OFFCURVE",
"255 625 OFFCURVE",
"395 625 CURVE SMOOTH",
"534 625 OFFCURVE",
"604 533 OFFCURVE",
"604 358 CURVE SMOOTH",
"604 180 OFFCURVE",
"533 90 OFFCURVE",
"394 90 CURVE SMOOTH",
"255 90 OFFCURVE",
"183 182 OFFCURVE",
"183 358 CURVE SMOOTH"
);
}
);
width = 787;
}
);
note = O;
unicode = 004F;
},
{
glyphname = P;
lastChange = "2018-06-23 23:44:47 +0000";
layers = (
{
anchors = (
{
name = bottom;
position = "{308, 0}";
},
{
name = top;
position = "{308, 714}";
}
);
layerId = "5481159F-1A66-431E-9320-A33A99FB249E";
paths = (
{
closed = 1;
nodes = (
"567 640 OFFCURVE",
"478 714 OFFCURVE",
"300 714 CURVE SMOOTH",
"94 714 LINE",
"94 0 LINE",
"211 0 LINE",
"211 267 LINE",
"285 267 LINE SMOOTH",
"465 267 OFFCURVE",
"567 349 OFFCURVE",
"567 498 CURVE SMOOTH"
);
},
{
closed = 1;
nodes = (
"292 616 LINE SMOOTH",
"398 616 OFFCURVE",
"447 576 OFFCURVE",
"447 494 CURVE SMOOTH",
"447 406 OFFCURVE",
"393 365 OFFCURVE",
"273 365 CURVE SMOOTH",
"211 365 LINE",
"211 616 LINE"
);
}
);
width = 615;
}
);
note = P;
unicode = 0050;
},
{
glyphname = Q;
lastChange = "2018-06-23 23:44:47 +0000";
layers = (
{
anchors = (
{
name = bottom;
position = "{394, 0}";
},
{
name = top;
position = "{394, 714}";
}
);
layerId = "5481159F-1A66-431E-9320-A33A99FB249E";
paths = (
{
closed = 1;
nodes = (
"728 591 OFFCURVE",
"607 725 OFFCURVE",
"395 725 CURVE SMOOTH",
"180 725 OFFCURVE",
"59 595 OFFCURVE",
"59 359 CURVE SMOOTH",
"59 123 OFFCURVE",
"179 -10 OFFCURVE",
"394 -10 CURVE SMOOTH",
"413 -10 LINE",
"548 -170 LINE",
"705 -170 LINE",
"534 14 LINE",
"661 63 OFFCURVE",
"728 185 OFFCURVE",
"728 358 CURVE SMOOTH"
);
},
{
closed = 1;
nodes = (
"183 533 OFFCURVE",
"255 625 OFFCURVE",
"395 625 CURVE SMOOTH",
"534 625 OFFCURVE",
"604 533 OFFCURVE",
"604 358 CURVE SMOOTH",
"604 180 OFFCURVE",
"533 90 OFFCURVE",
"394 90 CURVE SMOOTH",
"255 90 OFFCURVE",
"183 182 OFFCURVE",
"183 358 CURVE SMOOTH"
);
}
);
width = 787;
}
);
note = Q;
unicode = 0051;
},
{
glyphname = R;
lastChange = "2018-06-23 23:44:47 +0000";
layers = (
{
anchors = (
{
name = bottom;
position = "{320, 0}";
},
{
name = top;
position = "{320, 714}";
}
);
layerId = "5481159F-1A66-431E-9320-A33A99FB249E";
paths = (
{
closed = 1;
nodes = (
"288 615 LINE SMOOTH",
"394 615 OFFCURVE",
"447 583 OFFCURVE",
"447 502 CURVE SMOOTH",
"447 422 OFFCURVE",
"401 382 OFFCURVE",
"292 382 CURVE SMOOTH",
"211 382 LINE",
"211 615 LINE"
);
},
{
closed = 1;
nodes = (
"497 0 LINE",
"630 0 LINE",
"428 316 LINE",
"521 354 OFFCURVE",
"567 417 OFFCURVE",
"567 506 CURVE SMOOTH",
"567 645 OFFCURVE",
"480 714 OFFCURVE",
"296 714 CURVE SMOOTH",
"94 714 LINE",
"94 0 LINE",
"211 0 LINE",
"211 285 LINE",
"326 285 LINE"
);
}
);
width = 639;
}
);
note = R;
unicode = 0052;
},
{
glyphname = S;
lastChange = "2018-06-23 23:44:47 +0000";
layers = (
{
anchors = (
{
name = bottom;
position = "{275, 0}";
},
{
name = top;
position = "{275, 714}";
}
);
layerId = "5481159F-1A66-431E-9320-A33A99FB249E";
paths = (
{
closed = 1;
nodes = (
"506 226 OFFCURVE",
"500 254 OFFCURVE",
"489 278 CURVE SMOOTH",
"466 325 OFFCURVE",
"425 359 OFFCURVE",
"320 403 CURVE SMOOTH",
"273 422 OFFCURVE",
"241 438 OFFCURVE",
"223 449 CURVE SMOOTH",
"188 473 OFFCURVE",
"173 497 OFFCURVE",
"173 534 CURVE SMOOTH",
"173 588 OFFCURVE",
"212 624 OFFCURVE",
"288 624 CURVE SMOOTH",
"338 624 OFFCURVE",
"395 611 OFFCURVE",
"458 584 CURVE",
"495 679 LINE",
"427 709 OFFCURVE",
"359 724 OFFCURVE",
"291 724 CURVE SMOOTH",
"148 724 OFFCURVE",
"57 651 OFFCURVE",
"57 532 CURVE SMOOTH",
"57 437 OFFCURVE",
"104 373 OFFCURVE",
"235 320 CURVE SMOOTH",
"298 294 OFFCURVE",
"340 272 OFFCURVE",
"360 254 CURVE SMOOTH",
"380 235 OFFCURVE",
"390 213 OFFCURVE",
"390 186 CURVE SMOOTH",
"390 127 OFFCURVE",
"347 89 OFFCURVE",
"255 89 CURVE SMOOTH",
"192 89 OFFCURVE",
"114 107 OFFCURVE",
"49 138 CURVE",
"49 28 LINE",
"100 3 OFFCURVE",
"167 -10 OFFCURVE",
"247 -10 CURVE SMOOTH",
"409 -10 OFFCURVE",
"506 67 OFFCURVE",
"506 194 CURVE SMOOTH"
);
}
);
width = 550;
}
);
note = S;
unicode = 0053;
},
{
glyphname = T;
lastChange = "2018-06-23 23:44:47 +0000";
layers = (
{
anchors = (
{
name = bottom;
position = "{283, 0}";
},
{
name = center;
position = "{283, 357}";
},
{
name = top;
position = "{283, 714}";
}
);
layerId = "5481159F-1A66-431E-9320-A33A99FB249E";
paths = (
{
closed = 1;
nodes = (
"551 614 LINE",
"551 714 LINE",
"14 714 LINE",
"14 614 LINE",
"224 614 LINE",
"224 0 LINE",
"341 0 LINE",
"341 614 LINE"
);
}
);
width = 566;
}
);
note = T;
unicode = 0054;
},
{
glyphname = U;
lastChange = "2018-06-23 23:44:47 +0000";
layers = (
{
anchors = (
{
name = bottom;
position = "{371, 0}";
},
{
name = ogonek;
position = "{668, 5}";
},
{
name = top;
position = "{371, 714}";
},
{
name = topright;
position = "{732, 714}";
}
);
layerId = "5481159F-1A66-431E-9320-A33A99FB249E";
paths = (
{
closed = 1;
nodes = (
"537 263 LINE SMOOTH",
"537 147 OFFCURVE",
"482 90 OFFCURVE",
"372 90 CURVE SMOOTH",
"259 90 OFFCURVE",
"205 145 OFFCURVE",
"205 262 CURVE SMOOTH",
"205 714 LINE",
"88 714 LINE",
"88 254 LINE SMOOTH",
"88 90 OFFCURVE",
"191 -10 OFFCURVE",
"368 -10 CURVE SMOOTH",
"428 -10 OFFCURVE",
"479 1 OFFCURVE",
"522 22 CURVE SMOOTH",
"607 65 OFFCURVE",
"654 146 OFFCURVE",
"654 252 CURVE SMOOTH",
"654 714 LINE",
"537 714 LINE"
);
}
);
width = 742;
}
);
note = U;
unicode = 0055;
},
{
glyphname = V;
lastChange = "2018-06-23 23:44:47 +0000";
layers = (
{
anchors = (
{
name = bottom;
position = "{311, 0}";
},
{
name = top;
position = "{311, 714}";
}
);
layerId = "5481159F-1A66-431E-9320-A33A99FB249E";
paths = (
{
closed = 1;
nodes = (
"341 241 OFFCURVE",
"319 163 OFFCURVE",
"311 114 CURVE",
"306 146 OFFCURVE",
"285 228 OFFCURVE",
"269 270 CURVE SMOOTH",
"120 714 LINE",
"0 714 LINE",
"249 0 LINE",
"372 0 LINE",
"622 714 LINE",
"501 714 LINE",
"352 272 LINE SMOOTH"
);
}
);
width = 622;
}
);
note = V;
unicode = 0056;
},
{
glyphname = W;
lastChange = "2018-06-23 23:44:47 +0000";
layers = (
{
anchors = (
{
name = bottom;
position = "{473, 0}";
},
{
name = top;
position = "{473, 714}";
}
);
layerId = "5481159F-1A66-431E-9320-A33A99FB249E";
paths = (
{
closed = 1;
nodes = (
"821 714 LINE",
"719 299 LINE SMOOTH",
"701 227 OFFCURVE",
"689 167 OFFCURVE",
"684 121 CURVE",
"671 198 OFFCURVE",
"659 256 OFFCURVE",
"648 295 CURVE SMOOTH",
"529 714 LINE",
"413 714 LINE",
"297 297 LINE SMOOTH",
"285 254 OFFCURVE",
"269 176 OFFCURVE",
"261 121 CURVE",
"254 172 OFFCURVE",
"243 231 OFFCURVE",
"227 298 CURVE SMOOTH",
"125 714 LINE",
"6 714 LINE",
"100 357 LINE",
"192 0 LINE",
"319 0 LINE",
"437 424 LINE SMOOTH",
"447 457 OFFCURVE",
"465 538 OFFCURVE",
"471 579 CURVE",
"475 552 OFFCURVE",
"495 463 OFFCURVE",
"505 426 CURVE SMOOTH",
"626 0 LINE",
"753 0 LINE",
"939 714 LINE"
);
}
);
width = 946;
}
);
note = W;
unicode = 0057;
},
{
glyphname = X;
lastChange = "2018-06-23 23:44:47 +0000";
layers = (
{
anchors = (
{
name = bottom;
position = "{311, 0}";
},
{
name = top;
position = "{311, 714}";
}
);
layerId = "5481159F-1A66-431E-9320-A33A99FB249E";
paths = (
{
closed = 1;
nodes = (
"603 714 LINE",
"477 714 LINE",
"312 444 LINE",
"147 714 LINE",
"17 714 LINE",
"239 370 LINE",
"2 0 LINE",
"127 0 LINE",
"307 292 LINE",
"486 0 LINE",
"620 0 LINE",
"380 368 LINE"
);
}
);
width = 622;
}
);
note = X;
unicode = 0058;
},
{
glyphname = Y;
lastChange = "2018-06-23 23:44:47 +0000";
layers = (
{
anchors = (
{
name = bottom;
position = "{296, 0}";
},
{
name = top;
position = "{296, 714}";
},
{
name = topleft;
position = "{10, 714}";
}
);
layerId = "5481159F-1A66-431E-9320-A33A99FB249E";
paths = (
{
closed = 1;
nodes = (
"0 714 LINE",
"237 273 LINE",
"237 0 LINE",
"354 0 LINE",
"354 277 LINE",
"592 714 LINE",
"465 714 LINE",
"296 388 LINE",
"127 714 LINE"
);
}
);
width = 592;
}
);
note = Y;
unicode = 0059;
},
{
glyphname = Z;
lastChange = "2018-06-23 23:44:47 +0000";
layers = (
{
anchors = (
{
name = bottom;
position = "{288, 0}";
},
{
name = top;
position = "{288, 714}";
}
);
layerId = "5481159F-1A66-431E-9320-A33A99FB249E";
paths = (
{
closed = 1;
nodes = (
"172 100 LINE",
"533 632 LINE",
"533 714 LINE",
"42 714 LINE",
"42 614 LINE",
"392 614 LINE",
"32 81 LINE",
"32 0 LINE",
"543 0 LINE",
"543 100 LINE"
);
}
);
width = 575;
}
);
note = Z;
unicode = 005A;
},
{
glyphname = bracketleft;
lastChange = "2018-06-23 23:44:47 +0000";
layers = (
{
layerId = "5481159F-1A66-431E-9320-A33A99FB249E";
paths = (
{
closed = 1;
nodes = (
"180 -72 LINE",
"180 628 LINE",
"305 628 LINE",
"305 714 LINE",
"75 714 LINE",
"75 -158 LINE",
"305 -158 LINE",
"305 -72 LINE"
);
}
);
width = 330;
}
);
note = bracketleft;
unicode = 005B;
},
{
glyphname = backslash;
lastChange = "2018-06-23 23:44:47 +0000";
layers = (
{
layerId = "5481159F-1A66-431E-9320-A33A99FB249E";
paths = (
{
closed = 1;
nodes = (
"274 0 LINE",
"382 0 LINE",
"116 714 LINE",
"8 714 LINE"
);
}
);
width = 390;
}
);
note = backslash;
unicode = 005C;
},
{
glyphname = bracketright;
lastChange = "2018-06-23 23:44:47 +0000";
layers = (
{
layerId = "5481159F-1A66-431E-9320-A33A99FB249E";
paths = (
{
closed = 1;
nodes = (
"254 -158 LINE",
"254 714 LINE",
"25 714 LINE",
"25 628 LINE",
"150 628 LINE",
"150 -72 LINE",
"25 -72 LINE",
"25 -158 LINE"
);
}
);
width = 330;
}
);
note = bracketright;
unicode = 005D;
},
{
glyphname = asciicircum;
lastChange = "2018-06-23 23:44:47 +0000";
layers = (
{
layerId = "5481159F-1A66-431E-9320-A33A99FB249E";
paths = (
{
closed = 1;
nodes = (
"258 600 LINE",
"428 261 LINE",
"523 261 LINE",
"286 718 LINE",
"227 718 LINE",
"14 261 LINE",
"108 261 LINE"
);
}
);
width = 537;
}
);
note = asciicircum;
unicode = 005E;
},
{
glyphname = underscore;
lastChange = "2018-06-23 23:44:47 +0000";
layers = (
{
layerId = "5481159F-1A66-431E-9320-A33A99FB249E";
paths = (
{
closed = 1;
nodes = (
"-2 -90 LINE",
"-2 -156 LINE",
"431 -156 LINE",
"431 -90 LINE"
);
}
);
width = 429;
}
);
note = underscore;
unicode = 005F;
},
{
glyphname = grave;
lastChange = "2018-06-23 23:44:47 +0000";
layers = (
{
layerId = "5481159F-1A66-431E-9320-A33A99FB249E";
paths = (
{
closed = 1;
nodes = (
"414 618 LINE",
"385 651 OFFCURVE",
"335 721 OFFCURVE",
"310 766 CURVE",
"177 766 LINE",
"177 756 LINE",
"208 718 OFFCURVE",
"292 640 OFFCURVE",
"337 606 CURVE",
"414 606 LINE"
);
}
);
width = 592;
}
);
note = grave;
unicode = 0060;
},
{
glyphname = a;
lastChange = "2018-06-23 23:44:47 +0000";
layers = (
{
anchors = (
{
name = bottom;
position = "{290, 0}";
},
{
name = ogonek;
position = "{522, 5}";
},
{
name = top;
position = "{290, 540}";
}
);
layerId = "5481159F-1A66-431E-9320-A33A99FB249E";
paths = (
{
closed = 1;
nodes = (
"502 364 LINE SMOOTH",
"502 492 OFFCURVE",
"431 550 OFFCURVE",
"294 550 CURVE SMOOTH",
"232 550 OFFCURVE",
"158 534 OFFCURVE",
"99 503 CURVE",
"136 421 LINE",
"183 443 OFFCURVE",
"234 462 OFFCURVE",
"289 462 CURVE SMOOTH",
"357 462 OFFCURVE",
"388 428 OFFCURVE",
"388 359 CURVE SMOOTH",
"388 330 LINE",
"295 327 LINE SMOOTH",
"125 322 OFFCURVE",
"44 266 OFFCURVE",
"44 155 CURVE SMOOTH",
"44 50 OFFCURVE",
"107 -10 OFFCURVE",
"213 -10 CURVE SMOOTH",
"295 -10 OFFCURVE",
"341 9 OFFCURVE",
"393 75 CURVE",
"397 75 LINE",
"420 0 LINE",
"502 0 LINE"
);
},
{
closed = 1;
nodes = (
"192 78 OFFCURVE",
"163 105 OFFCURVE",
"163 154 CURVE SMOOTH",
"163 220 OFFCURVE",
"210 251 OFFCURVE",
"318 255 CURVE SMOOTH",
"387 258 LINE",
"387 211 LINE SMOOTH",
"387 127 OFFCURVE",
"333 78 OFFCURVE",
"249 78 CURVE SMOOTH"
);
}
);
width = 580;
}
);
note = a;
unicode = 0061;
},
{
glyphname = b;
lastChange = "2018-06-23 23:44:47 +0000";
layers = (
{
anchors = (
{
name = bottom;
position = "{312, 0}";
},
{
name = top;
position = "{312, 540}";
}
);
layerId = "5481159F-1A66-431E-9320-A33A99FB249E";
paths = (
{
closed = 1;
nodes = (
"287 550 OFFCURVE",
"233 523 OFFCURVE",
"197 469 CURVE",
"192 469 LINE",
"193 483 OFFCURVE",
"197 552 OFFCURVE",
"197 579 CURVE SMOOTH",
"197 760 LINE",
"82 760 LINE",
"82 0 LINE",
"168 0 LINE",
"189 64 LINE",
"197 64 LINE",
"234 15 OFFCURVE",
"288 -10 OFFCURVE",
"356 -10 CURVE SMOOTH",
"491 -10 OFFCURVE",
"572 94 OFFCURVE",
"572 271 CURVE SMOOTH",
"572 447 OFFCURVE",
"493 550 OFFCURVE",
"358 550 CURVE SMOOTH"
);
},
{
closed = 1;
nodes = (
"412 456 OFFCURVE",
"454 395 OFFCURVE",
"454 272 CURVE SMOOTH",
"454 150 OFFCURVE",
"412 84 OFFCURVE",
"330 84 CURVE SMOOTH",
"236 84 OFFCURVE",
"197 140 OFFCURVE",
"197 271 CURVE SMOOTH",
"197 279 LINE SMOOTH",
"198 406 OFFCURVE",
"236 456 OFFCURVE",
"328 456 CURVE SMOOTH"
);
}
);
width = 623;
}
);
note = b;
unicode = 0062;
},
{
glyphname = c;
lastChange = "2018-06-23 23:44:47 +0000";
layers = (
{
anchors = (
{
name = bottom;
position = "{285, 0}";
},
{
name = top;
position = "{310, 540}";
}
);
layerId = "5481159F-1A66-431E-9320-A33A99FB249E";
paths = (
{
closed = 1;
nodes = (
"366 -10 OFFCURVE",
"409 0 OFFCURVE",
"450 24 CURVE",
"450 124 LINE",
"405 99 OFFCURVE",
"356 86 OFFCURVE",
"305 86 CURVE SMOOTH",
"215 86 OFFCURVE",
"168 147 OFFCURVE",
"168 268 CURVE SMOOTH",
"168 392 OFFCURVE",
"215 454 OFFCURVE",
"308 454 CURVE SMOOTH",
"340 454 OFFCURVE",
"380 445 OFFCURVE",
"428 426 CURVE",
"463 518 LINE",
"417 539 OFFCURVE",
"366 550 OFFCURVE",
"309 550 CURVE SMOOTH",
"141 550 OFFCURVE",
"50 449 OFFCURVE",
"50 267 CURVE SMOOTH",
"50 89 OFFCURVE",
"136 -10 OFFCURVE",
"300 -10 CURVE SMOOTH"
);
}
);
width = 495;
}
);
note = c;
unicode = 0063;
},
{
glyphname = d;
lastChange = "2018-06-23 23:44:47 +0000";
layers = (
{
anchors = (
{
name = bottom;
position = "{312, 0}";
},
{
name = center;
position = "{312, 270}";
},
{
name = top;
position = "{312, 540}";
},
{
name = topright;
position = "{613, 540}";
}
);
layerId = "5481159F-1A66-431E-9320-A33A99FB249E";
paths = (
{
closed = 1;
nodes = (
"335 -10 OFFCURVE",
"389 17 OFFCURVE",
"426 71 CURVE",
"431 71 LINE",
"451 0 LINE",
"541 0 LINE",
"541 760 LINE",
"426 760 LINE",
"426 563 LINE SMOOTH",
"426 541 OFFCURVE",
"429 510 OFFCURVE",
"434 471 CURVE",
"428 471 LINE",
"391 523 OFFCURVE",
"337 550 OFFCURVE",
"266 550 CURVE SMOOTH",
"131 550 OFFCURVE",
"50 446 OFFCURVE",
"50 269 CURVE SMOOTH",
"50 93 OFFCURVE",
"129 -10 OFFCURVE",
"264 -10 CURVE SMOOTH"
);
},
{
closed = 1;
nodes = (
"210 83 OFFCURVE",
"168 147 OFFCURVE",
"168 267 CURVE SMOOTH",
"168 388 OFFCURVE",
"213 456 OFFCURVE",
"294 456 CURVE SMOOTH",
"388 456 OFFCURVE",
"431 404 OFFCURVE",
"431 268 CURVE SMOOTH",
"431 252 LINE SMOOTH",
"430 133 OFFCURVE",
"389 83 OFFCURVE",
"295 83 CURVE SMOOTH"
);
}
);
width = 623;
}
);
note = d;
unicode = 0064;
},
{
glyphname = e;
lastChange = "2018-06-23 23:44:47 +0000";
layers = (
{
anchors = (
{
name = bottom;
position = "{288, 0}";
},
{
name = ogonek;
position = "{519, 5}";
},
{
name = top;
position = "{323, 540}";
}
);
layerId = "5481159F-1A66-431E-9320-A33A99FB249E";
paths = (
{
closed = 1;
nodes = (
"392 -10 OFFCURVE",
"445 0 OFFCURVE",
"501 27 CURVE",
"501 120 LINE",
"438 92 OFFCURVE",
"387 81 OFFCURVE",
"323 81 CURVE SMOOTH",
"226 81 OFFCURVE",
"171 139 OFFCURVE",
"168 244 CURVE",
"528 244 LINE",
"528 306 LINE SMOOTH",
"528 458 OFFCURVE",
"439 550 OFFCURVE",
"297 550 CURVE SMOOTH",
"143 550 OFFCURVE",
"50 442 OFFCURVE",
"50 266 CURVE SMOOTH",
"50 94 OFFCURVE",
"150 -10 OFFCURVE",
"318 -10 CURVE SMOOTH"
);
},
{
closed = 1;
nodes = (
"370 463 OFFCURVE",
"414 417 OFFCURVE",
"415 327 CURVE",
"170 327 LINE",
"178 416 OFFCURVE",
"224 463 OFFCURVE",
"297 463 CURVE SMOOTH"
);
}
);
width = 576;
}
);
note = e;
unicode = 0065;
},
{
glyphname = f;
lastChange = "2018-06-23 23:44:47 +0000";
layers = (
{
anchors = (
{
name = bottom;
position = "{182, 0}";
},
{
name = top;
position = "{182, 540}";
}
);
layerId = "5481159F-1A66-431E-9320-A33A99FB249E";
paths = (
{
closed = 1;
nodes = (
"221 540 LINE",
"221 575 LINE SMOOTH",
"221 640 OFFCURVE",
"244 672 OFFCURVE",
"296 672 CURVE SMOOTH",
"322 672 OFFCURVE",
"349 667 OFFCURVE",
"377 658 CURVE",
"407 745 LINE",
"368 758 OFFCURVE",
"329 765 OFFCURVE",
"288 765 CURVE SMOOTH",
"165 765 OFFCURVE",
"106 705 OFFCURVE",
"106 577 CURVE SMOOTH",
"106 542 LINE",
"17 507 LINE",
"17 453 LINE",
"106 453 LINE",
"106 0 LINE",
"221 0 LINE",
"221 453 LINE",
"353 453 LINE",
"353 540 LINE"
);
}
);
width = 363;
}
);
note = f;
unicode = 0066;
},
{
glyphname = g;
lastChange = "2018-06-23 23:44:47 +0000";
layers = (
{
anchors = (
{
name = bottom;
position = "{278, 0}";
},
{
name = top;
position = "{278, 540}";
}
);
layerId = "5481159F-1A66-431E-9320-A33A99FB249E";
paths = (
{
closed = 1;
nodes = (
"334 544 OFFCURVE",
"296 550 OFFCURVE",
"265 550 CURVE SMOOTH",
"128 550 OFFCURVE",
"52 482 OFFCURVE",
"52 365 CURVE SMOOTH",
"52 292 OFFCURVE",
"90 235 OFFCURVE",
"146 211 CURVE",
"101 184 OFFCURVE",
"78 159 OFFCURVE",
"78 118 CURVE SMOOTH",
"78 86 OFFCURVE",
"100 54 OFFCURVE",
"131 41 CURVE",
"55 23 OFFCURVE",
"11 -23 OFFCURVE",
"11 -90 CURVE SMOOTH",
"11 -186 OFFCURVE",
"91 -240 OFFCURVE",
"238 -240 CURVE SMOOTH",
"429 -240 OFFCURVE",
"532 -171 OFFCURVE",
"532 -49 CURVE SMOOTH",
"532 47 OFFCURVE",
"469 99 OFFCURVE",
"350 99 CURVE SMOOTH",
"256 99 LINE SMOOTH",
"225 99 OFFCURVE",
"204 102 OFFCURVE",
"192 108 CURVE SMOOTH",
"181 115 OFFCURVE",
"175 124 OFFCURVE",
"175 136 CURVE SMOOTH",
"175 157 OFFCURVE",
"187 175 OFFCURVE",
"212 190 CURVE",
"226 188 OFFCURVE",
"242 186 OFFCURVE",
"259 186 CURVE SMOOTH",
"394 186 OFFCURVE",
"475 254 OFFCURVE",
"475 365 CURVE SMOOTH",
"475 402 OFFCURVE",
"463 437 OFFCURVE",
"446 460 CURVE",
"538 477 LINE",
"538 540 LINE",
"351 540 LINE"
);
},
{
closed = 1;
nodes = (
"114 -31 OFFCURVE",
"155 2 OFFCURVE",
"221 2 CURVE SMOOTH",
"308 2 LINE SMOOTH",
"399 2 OFFCURVE",
"427 -16 OFFCURVE",
"427 -63 CURVE SMOOTH",
"427 -122 OFFCURVE",
"366 -161 OFFCURVE",
"241 -161 CURVE SMOOTH",
"161 -161 OFFCURVE",
"114 -133 OFFCURVE",
"114 -84 CURVE SMOOTH"
);
},
{
closed = 1;
nodes = (
"163 438 OFFCURVE",
"198 476 OFFCURVE",
"264 476 CURVE SMOOTH",
"331 476 OFFCURVE",
"364 437 OFFCURVE",
"364 366 CURVE SMOOTH",
"364 295 OFFCURVE",
"331 260 OFFCURVE",
"264 260 CURVE SMOOTH",
"199 260 OFFCURVE",
"163 297 OFFCURVE",
"163 365 CURVE SMOOTH"
);
}
);
width = 556;
}
);
note = g;
unicode = 0067;
},
{
glyphname = h;
lastChange = "2018-06-23 23:44:47 +0000";
layers = (
{
anchors = (
{
name = bottom;
position = "{317, 0}";
},
{
name = center;
position = "{317, 270}";
},
{
name = top;
position = "{317, 540}";
}
);
layerId = "5481159F-1A66-431E-9320-A33A99FB249E";
paths = (
{
closed = 1;
nodes = (
"557 484 OFFCURVE",
"492 550 OFFCURVE",
"361 550 CURVE SMOOTH",
"287 550 OFFCURVE",
"229 520 OFFCURVE",
"198 468 CURVE",
"191 468 LINE",
"195 503 OFFCURVE",
"197 536 OFFCURVE",
"197 567 CURVE SMOOTH",
"197 760 LINE",
"82 760 LINE",
"82 0 LINE",
"197 0 LINE",
"197 268 LINE SMOOTH",
"197 403 OFFCURVE",
"241 456 OFFCURVE",
"337 456 CURVE SMOOTH",
"410 456 OFFCURVE",
"442 416 OFFCURVE",
"442 332 CURVE SMOOTH",
"442 0 LINE",
"557 0 LINE",
"557 352 LINE SMOOTH"
);
}
);
width = 635;
}
);
note = h;
unicode = 0068;
},
{
glyphname = i;
lastChange = "2018-06-23 23:44:47 +0000";
layers = (
{
anchors = (
{
name = bottom;
position = "{140, 0}";
}
);
layerId = "5481159F-1A66-431E-9320-A33A99FB249E";
paths = (
{
closed = 1;
nodes = (
"82 540 LINE",
"82 0 LINE",
"197 0 LINE",
"197 540 LINE"
);
},
{
closed = 1;
nodes = (
"75 644 OFFCURVE",
"99 620 OFFCURVE",
"140 620 CURVE SMOOTH",
"181 620 OFFCURVE",
"204 644 OFFCURVE",
"204 683 CURVE SMOOTH",
"204 724 OFFCURVE",
"181 747 OFFCURVE",
"140 747 CURVE SMOOTH",
"99 747 OFFCURVE",
"75 724 OFFCURVE",
"75 683 CURVE SMOOTH"
);
}
);
width = 279;
}
);
note = i;
unicode = 0069;
},
{
glyphname = j;
lastChange = "2018-06-23 23:44:47 +0000";
layers = (
{
layerId = "5481159F-1A66-431E-9320-A33A99FB249E";
paths = (
{
closed = 1;
nodes = (
"137 -240 OFFCURVE",
"197 -182 OFFCURVE",
"197 -71 CURVE SMOOTH",
"197 540 LINE",
"82 540 LINE",
"82 -63 LINE SMOOTH",
"82 -118 OFFCURVE",
"58 -146 OFFCURVE",
"9 -146 CURVE SMOOTH",
"-14 -146 OFFCURVE",
"-37 -143 OFFCURVE",
"-59 -137 CURVE",
"-59 -228 LINE",
"-36 -236 OFFCURVE",
"-8 -240 OFFCURVE",
"27 -240 CURVE SMOOTH"
);
},
{
closed = 1;
nodes = (
"75 644 OFFCURVE",
"99 620 OFFCURVE",
"140 620 CURVE SMOOTH",
"181 620 OFFCURVE",
"204 644 OFFCURVE",
"204 683 CURVE SMOOTH",
"204 724 OFFCURVE",
"181 747 OFFCURVE",
"140 747 CURVE SMOOTH",
"99 747 OFFCURVE",
"75 724 OFFCURVE",
"75 683 CURVE SMOOTH"
);
}
);
width = 279;
}
);
note = j;
unicode = 006A;
},
{
glyphname = k;
lastChange = "2018-06-23 23:44:47 +0000";
layers = (
{
anchors = (
{
name = bottom;
position = "{286, 0}";
},
{
name = top;
position = "{360, 540}";
}
);
layerId = "5481159F-1A66-431E-9320-A33A99FB249E";
paths = (
{
closed = 1;
nodes = (
"196 389 LINE",
"196 760 LINE",
"82 760 LINE",
"82 0 LINE",
"196 0 LINE",
"196 185 LINE",
"259 237 LINE",
"432 0 LINE",
"567 0 LINE",
"336 308 LINE",
"553 540 LINE",
"421 540 LINE",
"258 366 LINE",
"193 285 LINE",
"190 285 LINE"
);
}
);
width = 572;
}
);
note = k;
unicode = 006B;
},
{
glyphname = l;
lastChange = "2018-06-23 23:44:47 +0000";
layers = (
{
anchors = (
{
name = bottom;
position = "{140, 0}";
},
{
name = center;
position = "{140, 270}";
},
{
name = top;
position = "{354, 540}";
},
{
name = topright;
position = "{269, 540}";
}
);
layerId = "5481159F-1A66-431E-9320-A33A99FB249E";
paths = (
{
closed = 1;
nodes = (
"82 760 LINE",
"82 0 LINE",
"197 0 LINE",
"197 760 LINE"
);
}
);
width = 279;
}
);
note = l;
unicode = 006C;
},
{
glyphname = m;
lastChange = "2018-06-23 23:44:47 +0000";
layers = (
{
anchors = (
{
name = bottom;
position = "{478, 0}";
},
{
name = top;
position = "{478, 540}";
}
);
layerId = "5481159F-1A66-431E-9320-A33A99FB249E";
paths = (
{
closed = 1;
nodes = (
"537 401 OFFCURVE",
"577 456 OFFCURVE",
"666 456 CURVE SMOOTH",
"732 456 OFFCURVE",
"763 416 OFFCURVE",
"763 333 CURVE SMOOTH",
"763 0 LINE",
"878 0 LINE",
"878 352 LINE SMOOTH",
"878 485 OFFCURVE",
"822 550 OFFCURVE",
"693 550 CURVE SMOOTH",
"618 550 OFFCURVE",
"558 518 OFFCURVE",
"526 465 CURVE",
"518 465 LINE",
"491 521 OFFCURVE",
"436 550 OFFCURVE",
"353 550 CURVE SMOOTH",
"285 550 OFFCURVE",
"224 521 OFFCURVE",
"194 469 CURVE",
"188 469 LINE",
"172 540 LINE",
"82 540 LINE",
"82 0 LINE",
"197 0 LINE",
"197 269 LINE SMOOTH",
"197 403 OFFCURVE",
"237 456 OFFCURVE",
"325 456 CURVE SMOOTH",
"392 456 OFFCURVE",
"422 416 OFFCURVE",
"422 333 CURVE SMOOTH",
"422 0 LINE",
"537 0 LINE",
"537 286 LINE SMOOTH"
);
}
);
width = 956;
}
);
note = m;
unicode = 006D;
},
{
glyphname = n;
lastChange = "2018-06-23 23:44:47 +0000";
layers = (
{
anchors = (
{
name = bottom;
position = "{317, 0}";
},
{
name = top;
position = "{317, 540}";
}
);
layerId = "5481159F-1A66-431E-9320-A33A99FB249E";
paths = (
{
closed = 1;
nodes = (
"557 484 OFFCURVE",
"492 550 OFFCURVE",
"363 550 CURVE SMOOTH",
"290 550 OFFCURVE",
"227 521 OFFCURVE",
"194 469 CURVE",
"188 469 LINE",
"172 540 LINE",
"82 540 LINE",
"82 0 LINE",
"197 0 LINE",
"197 269 LINE SMOOTH",
"197 404 OFFCURVE",
"240 456 OFFCURVE",
"337 456 CURVE SMOOTH",
"410 456 OFFCURVE",
"442 416 OFFCURVE",
"442 332 CURVE SMOOTH",
"442 0 LINE",
"557 0 LINE",
"557 352 LINE SMOOTH"
);
}
);
width = 635;
}
);
note = n;
unicode = 006E;
},
{
glyphname = o;
lastChange = "2018-06-23 23:44:47 +0000";
layers = (
{
anchors = (
{
name = bottom;
position = "{306, 0}";
},
{
name = center;
position = "{306, 270}";
},
{
name = ogonek;
position = "{550, 5}";
},
{
name = top;
position = "{306, 540}";
},
{
name = topright;
position = "{601, 540}";
}
);
layerId = "5481159F-1A66-431E-9320-A33A99FB249E";
paths = (
{
closed = 1;
nodes = (
"561 441 OFFCURVE",
"463 550 OFFCURVE",
"307 550 CURVE SMOOTH",
"144 550 OFFCURVE",
"50 446 OFFCURVE",
"50 271 CURVE SMOOTH",
"50 215 OFFCURVE",
"60 165 OFFCURVE",
"81 123 CURVE SMOOTH",
"123 37 OFFCURVE",
"203 -10 OFFCURVE",
"304 -10 CURVE SMOOTH",
"466 -10 OFFCURVE",
"561 95 OFFCURVE",
"561 271 CURVE SMOOTH"
);
},
{
closed = 1;
nodes = (
"168 390 OFFCURVE",
"209 456 OFFCURVE",
"305 456 CURVE SMOOTH",
"397 456 OFFCURVE",
"443 395 OFFCURVE",
"443 271 CURVE SMOOTH",
"443 146 OFFCURVE",
"397 84 OFFCURVE",
"306 84 CURVE SMOOTH",
"214 84 OFFCURVE",
"168 146 OFFCURVE",
"168 271 CURVE SMOOTH"
);
}
);
width = 611;
}
);
note = o;
unicode = 006F;
},
{
glyphname = p;
lastChange = "2018-06-23 23:44:47 +0000";
layers = (
{
anchors = (
{
name = bottom;
position = "{312, 0}";
},
{
name = top;
position = "{312, 540}";
}
);
layerId = "5481159F-1A66-431E-9320-A33A99FB249E";
paths = (
{
closed = 1;
nodes = (
"491 -10 OFFCURVE",
"572 95 OFFCURVE",
"572 271 CURVE SMOOTH",
"572 447 OFFCURVE",
"493 550 OFFCURVE",
"358 550 CURVE SMOOTH",
"286 550 OFFCURVE",
"232 522 OFFCURVE",
"197 468 CURVE",
"191 468 LINE",
"183 506 OFFCURVE",
"177 530 OFFCURVE",
"175 540 CURVE",
"82 540 LINE",
"82 -240 LINE",
"197 -240 LINE",
"197 -19 LINE SMOOTH",
"197 -9 OFFCURVE",
"194 19 OFFCURVE",
"190 64 CURVE",
"197 64 LINE",
"234 15 OFFCURVE",
"288 -10 OFFCURVE",
"356 -10 CURVE SMOOTH"
);
},
{
closed = 1;
nodes = (
"411 456 OFFCURVE",
"454 393 OFFCURVE",
"454 272 CURVE SMOOTH",
"454 151 OFFCURVE",
"410 84 OFFCURVE",
"330 84 CURVE SMOOTH",
"236 84 OFFCURVE",
"197 140 OFFCURVE",
"197 271 CURVE SMOOTH",
"197 288 LINE SMOOTH",
"197 405 OFFCURVE",
"237 456 OFFCURVE",
"328 456 CURVE SMOOTH"
);
}
);
width = 623;
}
);
note = p;
unicode = 0070;
},
{
glyphname = q;
lastChange = "2018-06-23 23:44:47 +0000";
layers = (
{
anchors = (
{
name = bottom;
position = "{312, 0}";
},
{
name = top;
position = "{312, 540}";
}
);
layerId = "5481159F-1A66-431E-9320-A33A99FB249E";
paths = (
{
closed = 1;
nodes = (
"210 82 OFFCURVE",
"168 144 OFFCURVE",
"168 267 CURVE SMOOTH",
"168 389 OFFCURVE",
"212 456 OFFCURVE",
"294 456 CURVE SMOOTH",
"390 456 OFFCURVE",
"431 401 OFFCURVE",
"431 268 CURVE SMOOTH",
"431 250 LINE SMOOTH",
"431 137 OFFCURVE",
"392 82 OFFCURVE",
"296 82 CURVE SMOOTH"
);
},
{
closed = 1;
nodes = (
"337 -10 OFFCURVE",
"391 17 OFFCURVE",
"425 71 CURVE",
"431 71 LINE",
"429 54 OFFCURVE",
"426 18 OFFCURVE",
"426 -11 CURVE SMOOTH",
"426 -240 LINE",
"541 -240 LINE",
"541 540 LINE",
"446 540 LINE",
"433 469 LINE",
"429 469 LINE",
"387 526 OFFCURVE",
"334 550 OFFCURVE",
"266 550 CURVE SMOOTH",
"131 550 OFFCURVE",
"50 445 OFFCURVE",
"50 269 CURVE SMOOTH",
"50 93 OFFCURVE",
"130 -10 OFFCURVE",
"263 -10 CURVE SMOOTH"
);
}
);
width = 623;
}
);
note = q;
unicode = 0071;
},
{
glyphname = r;
lastChange = "2018-06-23 23:44:47 +0000";
layers = (
{
anchors = (
{
name = bottom;
position = "{216, 0}";
},
{
name = top;
position = "{216, 540}";
}
);
layerId = "5481159F-1A66-431E-9320-A33A99FB249E";
paths = (
{
closed = 1;
nodes = (
"290 550 OFFCURVE",
"229 509 OFFCURVE",
"193 445 CURVE",
"187 445 LINE",
"172 540 LINE",
"82 540 LINE",
"82 0 LINE",
"197 0 LINE",
"197 282 LINE SMOOTH",
"197 378 OFFCURVE",
"259 444 OFFCURVE",
"351 444 CURVE SMOOTH",
"369 444 OFFCURVE",
"386 442 OFFCURVE",
"402 438 CURVE",
"413 545 LINE",
"398 548 OFFCURVE",
"379 550 OFFCURVE",
"356 550 CURVE SMOOTH"
);
}
);
width = 431;
}
);
note = r;
unicode = 0072;
},
{
glyphname = s;
lastChange = "2018-06-23 23:44:47 +0000";
layers = (
{
anchors = (
{
name = bottom;
position = "{244, 0}";
},
{
name = top;
position = "{244, 540}";
}
);
layerId = "5481159F-1A66-431E-9320-A33A99FB249E";
paths = (
{
closed = 1;
nodes = (
"445 180 OFFCURVE",
"440 202 OFFCURVE",
"430 221 CURVE SMOOTH",
"411 258 OFFCURVE",
"377 283 OFFCURVE",
"288 318 CURVE SMOOTH",
"235 338 OFFCURVE",
"201 354 OFFCURVE",
"185 366 CURVE SMOOTH",
"169 378 OFFCURVE",
"161 392 OFFCURVE",
"161 409 CURVE SMOOTH",
"161 444 OFFCURVE",
"191 461 OFFCURVE",
"252 461 CURVE SMOOTH",
"292 461 OFFCURVE",
"341 449 OFFCURVE",
"399 425 CURVE",
"436 511 LINE",
"379 537 OFFCURVE",
"319 550 OFFCURVE",
"256 550 CURVE SMOOTH",
"127 550 OFFCURVE",
"48 496 OFFCURVE",
"48 404 CURVE SMOOTH",
"48 327 OFFCURVE",
"83 286 OFFCURVE",
"207 238 CURVE SMOOTH",
"239 226 OFFCURVE",
"264 214 OFFCURVE",
"282 205 CURVE SMOOTH",
"317 185 OFFCURVE",
"332 169 OFFCURVE",
"332 142 CURVE SMOOTH",
"332 100 OFFCURVE",
"297 78 OFFCURVE",
"226 78 CURVE SMOOTH",
"171 78 OFFCURVE",
"112 93 OFFCURVE",
"49 122 CURVE",
"49 23 LINE",
"92 1 OFFCURVE",
"150 -10 OFFCURVE",
"222 -10 CURVE SMOOTH",
"365 -10 OFFCURVE",
"445 48 OFFCURVE",
"445 154 CURVE SMOOTH"
);
}
);
width = 487;
}
);
note = s;
unicode = 0073;
},
{
glyphname = t;
lastChange = "2018-06-23 23:44:47 +0000";
layers = (
{
anchors = (
{
name = bottom;
position = "{197, 0}";
},
{
name = center;
position = "{197, 270}";
},
{
name = top;
position = "{339, 540}";
},
{
name = topright;
position = "{383, 540}";
}
);
layerId = "5481159F-1A66-431E-9320-A33A99FB249E";
paths = (
{
closed = 1;
nodes = (
"238 83 OFFCURVE",
"208 109 OFFCURVE",
"208 164 CURVE SMOOTH",
"208 453 LINE",
"362 453 LINE",
"362 540 LINE",
"208 540 LINE",
"208 660 LINE",
"137 660 LINE",
"98 546 LINE",
"19 504 LINE",
"19 453 LINE",
"93 453 LINE",
"93 162 LINE SMOOTH",
"93 47 OFFCURVE",
"147 -10 OFFCURVE",
"256 -10 CURVE SMOOTH",
"299 -10 OFFCURVE",
"342 -1 OFFCURVE",
"367 10 CURVE",
"367 96 LINE",
"339 87 OFFCURVE",
"311 83 OFFCURVE",
"283 83 CURVE SMOOTH"
);
}
);
width = 393;
}
);
note = t;
unicode = 0074;
},
{
glyphname = u;
lastChange = "2018-06-23 23:44:47 +0000";
layers = (
{
anchors = (
{
name = bottom;
position = "{317, 0}";
},
{
name = ogonek;
position = "{571, 5}";
},
{
name = top;
position = "{317, 540}";
},
{
name = topright;
position = "{625, 540}";
}
);
layerId = "5481159F-1A66-431E-9320-A33A99FB249E";
paths = (
{
closed = 1;
nodes = (
"553 540 LINE",
"438 540 LINE",
"438 271 LINE SMOOTH",
"438 136 OFFCURVE",
"394 83 OFFCURVE",
"298 83 CURVE SMOOTH",
"226 83 OFFCURVE",
"193 125 OFFCURVE",
"193 207 CURVE SMOOTH",
"193 540 LINE",
"77 540 LINE",
"77 187 LINE SMOOTH",
"77 55 OFFCURVE",
"141 -10 OFFCURVE",
"272 -10 CURVE SMOOTH",
"348 -10 OFFCURVE",
"409 21 OFFCURVE",
"441 71 CURVE",
"447 71 LINE",
"463 0 LINE",
"553 0 LINE"
);
}
);
width = 635;
}
);
note = u;
unicode = 0075;
},
{
glyphname = v;
lastChange = "2018-06-23 23:44:47 +0000";
layers = (
{
anchors = (
{
name = bottom;
position = "{268, 0}";
},
{
name = top;
position = "{268, 540}";
}
);
layerId = "5481159F-1A66-431E-9320-A33A99FB249E";
paths = (
{
closed = 1;
nodes = (
"535 540 LINE",
"413 540 LINE",
"303 226 LINE SMOOTH",
"283 164 OFFCURVE",
"272 122 OFFCURVE",
"269 98 CURVE",
"265 98 LINE",
"261 131 OFFCURVE",
"250 173 OFFCURVE",
"231 226 CURVE SMOOTH",
"121 540 LINE",
"0 540 LINE",
"205 0 LINE",
"329 0 LINE"
);
}
);
width = 535;
}
);
note = v;
unicode = 0076;
},
{
glyphname = w;
lastChange = "2018-06-23 23:44:47 +0000";
layers = (
{
anchors = (
{
name = bottom;
position = "{409, 0}";
},
{
name = top;
position = "{409, 540}";
}
);
layerId = "5481159F-1A66-431E-9320-A33A99FB249E";
paths = (
{
closed = 1;
nodes = (
"806 540 LINE",
"691 540 LINE",
"621 274 LINE SMOOTH",
"603 202 OFFCURVE",
"592 146 OFFCURVE",
"587 106 CURVE",
"583 106 LINE",
"581 143 OFFCURVE",
"562 224 OFFCURVE",
"552 256 CURVE SMOOTH",
"472 540 LINE",
"346 540 LINE",
"264 256 LINE SMOOTH",
"254 225 OFFCURVE",
"238 152 OFFCURVE",
"232 105 CURVE",
"229 105 LINE",
"223 152 OFFCURVE",
"211 208 OFFCURVE",
"196 274 CURVE SMOOTH",
"127 540 LINE",
"10 540 LINE",
"161 0 LINE",
"288 0 LINE",
"360 251 LINE SMOOTH",
"371 288 OFFCURVE",
"386 350 OFFCURVE",
"405 438 CURVE",
"409 438 LINE",
"431 341 OFFCURVE",
"447 279 OFFCURVE",
"455 252 CURVE SMOOTH",
"525 0 LINE",
"654 0 LINE"
);
}
);
width = 817;
}
);
note = w;
unicode = 0077;
},
{
glyphname = x;
lastChange = "2018-06-23 23:44:47 +0000";
layers = (
{
anchors = (
{
name = bottom;
position = "{275, 0}";
},
{
name = top;
position = "{275, 540}";
}
);
layerId = "5481159F-1A66-431E-9320-A33A99FB249E";
paths = (
{
closed = 1;
nodes = (
"142 0 LINE",
"275 202 LINE",
"408 0 LINE",
"538 0 LINE",
"347 276 LINE",
"529 540 LINE",
"399 540 LINE",
"275 351 LINE",
"152 540 LINE",
"21 540 LINE",
"202 276 LINE",
"12 0 LINE"
);
}
);
width = 551;
}
);
note = x;
unicode = 0078;
},
{
glyphname = y;
lastChange = "2018-06-23 23:44:47 +0000";
layers = (
{
anchors = (
{
name = bottom;
position = "{268, 0}";
},
{
name = top;
position = "{268, 540}";
}
);
layerId = "5481159F-1A66-431E-9320-A33A99FB249E";
paths = (
{
closed = 1;
nodes = (
"197 -51 LINE",
"174 -115 OFFCURVE",
"135 -147 OFFCURVE",
"80 -147 CURVE SMOOTH",
"58 -147 OFFCURVE",
"38 -145 OFFCURVE",
"21 -141 CURVE",
"21 -232 LINE",
"45 -237 OFFCURVE",
"70 -240 OFFCURVE",
"95 -240 CURVE SMOOTH",
"193 -240 OFFCURVE",
"263 -184 OFFCURVE",
"305 -72 CURVE SMOOTH",
"536 540 LINE",
"412 540 LINE",
"337 323 OFFCURVE",
"296 202 OFFCURVE",
"288 176 CURVE SMOOTH",
"280 150 OFFCURVE",
"275 129 OFFCURVE",
"272 111 CURVE",
"268 111 LINE",
"263 149 OFFCURVE",
"251 190 OFFCURVE",
"235 234 CURVE SMOOTH",
"125 540 LINE",
"0 540 LINE",
"217 0 LINE"
);
}
);
width = 536;
}
);
note = y;
unicode = 0079;
},
{
glyphname = z;
lastChange = "2018-06-23 23:44:47 +0000";
layers = (
{
anchors = (
{
name = bottom;
position = "{239, 0}";
},
{
name = top;
position = "{239, 540}";
}
);
layerId = "5481159F-1A66-431E-9320-A33A99FB249E";
paths = (
{
closed = 1;
nodes = (
"168 88 LINE",
"435 460 LINE",
"435 540 LINE",
"50 540 LINE",
"50 452 LINE",
"306 452 LINE",
"33 71 LINE",
"33 0 LINE",
"443 0 LINE",
"443 88 LINE"
);
}
);
width = 478;
}
);
note = z;
unicode = 007A;
},
{
glyphname = braceleft;
lastChange = "2018-06-23 23:44:47 +0000";
layers = (
{
layerId = "5481159F-1A66-431E-9320-A33A99FB249E";
paths = (
{
closed = 1;
nodes = (
"152 -110 OFFCURVE",
"213 -157 OFFCURVE",
"364 -158 CURVE",
"364 -69 LINE",
"289 -67 OFFCURVE",
"258 -40 OFFCURVE",
"258 13 CURVE SMOOTH",
"258 159 LINE SMOOTH",
"258 225 OFFCURVE",
"221 263 OFFCURVE",
"146 275 CURVE",
"146 281 LINE",
"221 293 OFFCURVE",
"258 332 OFFCURVE",
"258 397 CURVE SMOOTH",
"258 542 LINE SMOOTH",
"258 595 OFFCURVE",
"290 622 OFFCURVE",
"364 625 CURVE",
"364 714 LINE",
"223 714 OFFCURVE",
"152 667 OFFCURVE",
"152 566 CURVE SMOOTH",
"152 414 LINE SMOOTH",
"152 354 OFFCURVE",
"110 324 OFFCURVE",
"22 324 CURVE",
"22 231 LINE",
"108 231 OFFCURVE",
"152 201 OFFCURVE",
"152 140 CURVE SMOOTH",
"152 1 LINE SMOOTH"
);
}
);
width = 386;
}
);
note = braceleft;
unicode = 007B;
},
{
glyphname = bar;
lastChange = "2018-06-23 23:44:47 +0000";
layers = (
{
layerId = "5481159F-1A66-431E-9320-A33A99FB249E";
paths = (
{
closed = 1;
nodes = (
"319 -235 LINE",
"319 758 LINE",
"231 758 LINE",
"231 -235 LINE"
);
}
);
width = 551;
}
);
note = bar;
unicode = 007C;
},
{
glyphname = braceright;
lastChange = "2018-06-23 23:44:47 +0000";
layers = (
{
layerId = "5481159F-1A66-431E-9320-A33A99FB249E";
paths = (
{
closed = 1;
nodes = (
"226 206 OFFCURVE",
"269 231 OFFCURVE",
"349 231 CURVE",
"349 324 LINE",
"268 324 OFFCURVE",
"226 349 OFFCURVE",
"226 414 CURVE SMOOTH",
"226 554 LINE SMOOTH",
"226 667 OFFCURVE",
"167 714 OFFCURVE",
"22 714 CURVE",
"22 625 LINE",
"94 622 OFFCURVE",
"120 595 OFFCURVE",
"120 542 CURVE SMOOTH",
"120 397 LINE SMOOTH",
"120 332 OFFCURVE",
"157 293 OFFCURVE",
"232 281 CURVE",
"232 275 LINE",
"152 261 OFFCURVE",
"120 220 OFFCURVE",
"120 141 CURVE SMOOTH",
"120 13 LINE SMOOTH",
"120 -47 OFFCURVE",
"84 -68 OFFCURVE",
"22 -69 CURVE",
"22 -158 LINE",
"165 -157 OFFCURVE",
"226 -111 OFFCURVE",
"226 -10 CURVE SMOOTH",
"226 140 LINE SMOOTH"
);
}
);
width = 371;
}
);
note = braceright;
unicode = 007D;
},
{
glyphname = asciitilde;
lastChange = "2018-06-23 23:44:47 +0000";
layers = (
{
layerId = "5481159F-1A66-431E-9320-A33A99FB249E";
paths = (
{
closed = 1;
nodes = (
"191 338 OFFCURVE",
"227 329 OFFCURVE",
"268 311 CURVE SMOOTH",
"323 288 OFFCURVE",
"359 279 OFFCURVE",
"402 279 CURVE SMOOTH",
"449 279 OFFCURVE",
"490 297 OFFCURVE",
"524 333 CURVE",
"524 426 LINE",
"486 388 OFFCURVE",
"443 367 OFFCURVE",
"409 367 CURVE SMOOTH",
"380 367 OFFCURVE",
"344 376 OFFCURVE",
"302 394 CURVE SMOOTH",
"245 418 OFFCURVE",
"212 425 OFFCURVE",
"169 425 CURVE SMOOTH",
"120 425 OFFCURVE",
"79 407 OFFCURVE",
"47 372 CURVE",
"47 279 LINE",
"86 318 OFFCURVE",
"128 338 OFFCURVE",
"161 338 CURVE SMOOTH"
);
}
);
width = 571;
}
);
note = asciitilde;
unicode = 007E;
},
{
glyphname = exclamdown;
lastChange = "2018-06-23 23:44:47 +0000";
layers = (
{
layerId = "5481159F-1A66-431E-9320-A33A99FB249E";
paths = (
{
closed = 1;
nodes = (
"204 -181 LINE",
"179 315 LINE",
"94 315 LINE",
"69 -181 LINE"
);
},
{
closed = 1;
nodes = (
"210 518 OFFCURVE",
"184 546 OFFCURVE",
"137 546 CURVE SMOOTH",
"90 546 OFFCURVE",
"65 516 OFFCURVE",
"65 471 CURVE SMOOTH",
"65 424 OFFCURVE",
"90 397 OFFCURVE",
"137 397 CURVE SMOOTH",
"186 397 OFFCURVE",
"210 423 OFFCURVE",
"210 471 CURVE SMOOTH"
);
}
);
width = 276;
}
);
note = exclamdown;
unicode = 00A1;
},
{
glyphname = cent;
lastChange = "2018-06-23 23:44:47 +0000";
layers = (
{
layerId = "5481159F-1A66-431E-9320-A33A99FB249E";
paths = (
{
closed = 1;
nodes = (
"425 190 OFFCURVE",
"386 181 OFFCURVE",
"337 181 CURVE SMOOTH",
"247 181 OFFCURVE",
"199 236 OFFCURVE",
"199 363 CURVE SMOOTH",
"199 488 OFFCURVE",
"244 550 OFFCURVE",
"339 550 CURVE SMOOTH",
"373 550 OFFCURVE",
"414 540 OFFCURVE",
"461 521 CURVE",
"495 613 LINE",
"453 633 OFFCURVE",
"406 644 OFFCURVE",
"357 645 CURVE",
"357 724 LINE",
"280 724 LINE",
"280 641 LINE",
"146 620 OFFCURVE",
"81 527 OFFCURVE",
"81 362 CURVE SMOOTH",
"81 199 OFFCURVE",
"145 108 OFFCURVE",
"280 88 CURVE",
"280 -10 LINE",
"356 -10 LINE",
"356 85 LINE",
"401 86 OFFCURVE",
"443 97 OFFCURVE",
"482 116 CURVE",
"482 214 LINE"
);
}
);
width = 571;
}
);
note = cent;
unicode = 00A2;
},
{
glyphname = sterling;
lastChange = "2018-06-23 23:44:47 +0000";
layers = (
{
layerId = "5481159F-1A66-431E-9320-A33A99FB249E";
paths = (
{
closed = 1;
nodes = (
"208 723 OFFCURVE",
"129 650 OFFCURVE",
"129 528 CURVE SMOOTH",
"129 403 LINE",
"37 403 LINE",
"37 319 LINE",
"129 319 LINE",
"129 229 LINE SMOOTH",
"129 156 OFFCURVE",
"99 115 OFFCURVE",
"35 95 CURVE",
"35 0 LINE",
"542 0 LINE",
"542 101 LINE",
"173 101 LINE",
"225 130 OFFCURVE",
"244 171 OFFCURVE",
"244 230 CURVE SMOOTH",
"244 319 LINE",
"438 319 LINE",
"438 403 LINE",
"244 403 LINE",
"244 522 LINE SMOOTH",
"244 593 OFFCURVE",
"277 629 OFFCURVE",
"344 629 CURVE SMOOTH",
"384 629 OFFCURVE",
"430 617 OFFCURVE",
"483 594 CURVE",
"520 683 LINE",
"461 710 OFFCURVE",
"400 723 OFFCURVE",
"337 723 CURVE SMOOTH"
);
}
);
width = 571;
}
);
note = sterling;
unicode = 00A3;
},
{
glyphname = currency;
lastChange = "2018-06-23 23:44:47 +0000";
layers = (
{
layerId = "5481159F-1A66-431E-9320-A33A99FB249E";
paths = (
{
closed = 1;
nodes = (
"91 315 OFFCURVE",
"101 280 OFFCURVE",
"122 248 CURVE",
"58 185 LINE",
"116 127 LINE",
"180 189 LINE",
"209 169 OFFCURVE",
"244 159 OFFCURVE",
"285 159 CURVE SMOOTH",
"322 159 OFFCURVE",
"357 169 OFFCURVE",
"389 189 CURVE",
"454 126 LINE",
"512 184 LINE",
"449 247 LINE",
"470 279 OFFCURVE",
"480 314 OFFCURVE",
"480 353 CURVE SMOOTH",
"480 391 OFFCURVE",
"470 425 OFFCURVE",
"449 458 CURVE",
"513 523 LINE",
"454 580 LINE",
"389 516 LINE",
"357 537 OFFCURVE",
"323 548 OFFCURVE",
"285 548 CURVE SMOOTH",
"248 548 OFFCURVE",
"213 538 OFFCURVE",
"180 517 CURVE",
"116 580 LINE",
"57 522 LINE",
"122 457 LINE",
"101 423 OFFCURVE",
"91 389 OFFCURVE",
"91 353 CURVE SMOOTH"
);
},
{
closed = 1;
nodes = (
"173 416 OFFCURVE",
"225 467 OFFCURVE",
"285 467 CURVE SMOOTH",
"348 467 OFFCURVE",
"399 416 OFFCURVE",
"399 353 CURVE SMOOTH",
"399 289 OFFCURVE",
"348 240 OFFCURVE",
"285 240 CURVE SMOOTH",
"224 240 OFFCURVE",
"173 289 OFFCURVE",
"173 353 CURVE SMOOTH"
);
}
);
width = 571;
}
);
note = currency;
unicode = 00A4;
},
{
glyphname = yen;
lastChange = "2018-06-23 23:44:47 +0000";
layers = (
{
layerId = "5481159F-1A66-431E-9320-A33A99FB249E";
paths = (
{
closed = 1;
nodes = (
"9 714 LINE",
"201 343 LINE",
"92 343 LINE",
"92 269 LINE",
"230 269 LINE",
"230 194 LINE",
"92 194 LINE",
"92 119 LINE",
"230 119 LINE",
"230 0 LINE",
"340 0 LINE",
"340 119 LINE",
"477 119 LINE",
"477 194 LINE",
"340 194 LINE",
"340 269 LINE",
"477 269 LINE",
"477 343 LINE",
"366 343 LINE",
"561 714 LINE",
"442 714 LINE",
"285 389 LINE",
"129 714 LINE"
);
}
);
width = 571;
}
);
note = yen;
unicode = 00A5;
},
{
glyphname = brokenbar;
lastChange = "2018-06-23 23:44:47 +0000";
layers = (
{
layerId = "5481159F-1A66-431E-9320-A33A99FB249E";
paths = (
{
closed = 1;
nodes = (
"319 370 LINE",
"319 758 LINE",
"231 758 LINE",
"231 370 LINE"
);
},
{
closed = 1;
nodes = (
"319 -235 LINE",
"319 154 LINE",
"231 154 LINE",
"231 -235 LINE"
);
}
);
width = 551;
}
);
note = brokenbar;
unicode = 00A6;
},
{
glyphname = section;
lastChange = "2018-06-23 23:44:47 +0000";
layers = (
{
layerId = "5481159F-1A66-431E-9320-A33A99FB249E";
paths = (
{
closed = 1;
nodes = (
"63 369 OFFCURVE",
"68 347 OFFCURVE",
"78 328 CURVE SMOOTH",
"98 290 OFFCURVE",
"133 263 OFFCURVE",
"225 227 CURVE SMOOTH",
"257 215 OFFCURVE",
"281 204 OFFCURVE",
"297 195 CURVE SMOOTH",
"330 178 OFFCURVE",
"342 163 OFFCURVE",
"342 135 CURVE SMOOTH",
"342 92 OFFCURVE",
"304 71 OFFCURVE",
"227 71 CURVE SMOOTH",
"174 71 OFFCURVE",
"106 89 OFFCURVE",
"56 115 CURVE",
"56 28 LINE",
"100 5 OFFCURVE",
"156 -7 OFFCURVE",
"225 -7 CURVE SMOOTH",
"360 -7 OFFCURVE",
"442 51 OFFCURVE",
"442 143 CURVE SMOOTH",
"442 189 OFFCURVE",
"419 226 OFFCURVE",
"374 252 CURVE",
"419 281 OFFCURVE",
"442 324 OFFCURVE",
"442 382 CURVE SMOOTH",
"442 453 OFFCURVE",
"397 500 OFFCURVE",
"283 545 CURVE SMOOTH",
"239 562 OFFCURVE",
"208 576 OFFCURVE",
"190 589 CURVE SMOOTH",
"172 602 OFFCURVE",
"163 617 OFFCURVE",
"163 635 CURVE SMOOTH",
"163 670 OFFCURVE",
"195 688 OFFCURVE",
"258 688 CURVE SMOOTH",
"297 688 OFFCURVE",
"327 684 OFFCURVE",
"403 651 CURVE",
"436 730 LINE",
"372 757 OFFCURVE",
"321 767 OFFCURVE",
"262 767 CURVE SMOOTH",
"142 767 OFFCURVE",
"65 717 OFFCURVE",
"65 633 CURVE SMOOTH",
"65 583 OFFCURVE",
"89 545 OFFCURVE",
"136 518 CURVE",
"89 490 OFFCURVE",
"63 446 OFFCURVE",
"63 394 CURVE SMOOTH"
);
},
{
closed = 1;
nodes = (
"153 438 OFFCURVE",
"178 472 OFFCURVE",
"213 482 CURVE",
"265 465 OFFCURVE",
"301 448 OFFCURVE",
"321 431 CURVE SMOOTH",
"341 414 OFFCURVE",
"351 394 OFFCURVE",
"351 369 CURVE SMOOTH",
"351 335 OFFCURVE",
"333 308 OFFCURVE",
"298 287 CURVE",
"252 305 OFFCURVE",
"221 320 OFFCURVE",
"203 331 CURVE SMOOTH",
"167 353 OFFCURVE",
"153 375 OFFCURVE",
"153 404 CURVE SMOOTH"
);
}
);
width = 501;
}
);
note = section;
unicode = 00A7;
},
{
glyphname = dieresis;
lastChange = "2018-06-23 23:44:47 +0000";
layers = (
{
layerId = "5481159F-1A66-431E-9320-A33A99FB249E";
paths = (
{
closed = 1;
nodes = (
"143 645 OFFCURVE",
"168 626 OFFCURVE",
"199 626 CURVE SMOOTH",
"233 626 OFFCURVE",
"256 648 OFFCURVE",
"256 683 CURVE SMOOTH",
"256 719 OFFCURVE",
"234 740 OFFCURVE",
"199 740 CURVE SMOOTH",
"168 740 OFFCURVE",
"143 724 OFFCURVE",
"143 683 CURVE SMOOTH"
);
},
{
closed = 1;
nodes = (
"335 645 OFFCURVE",
"360 626 OFFCURVE",
"391 626 CURVE SMOOTH",
"424 626 OFFCURVE",
"448 648 OFFCURVE",
"448 683 CURVE SMOOTH",
"448 719 OFFCURVE",
"426 740 OFFCURVE",
"391 740 CURVE SMOOTH",
"360 740 OFFCURVE",
"335 724 OFFCURVE",
"335 683 CURVE SMOOTH"
);
}
);
width = 592;
}
);
note = dieresis;
unicode = 00A8;
},
{
glyphname = copyright;
lastChange = "2018-06-23 23:44:47 +0000";
layers = (
{
layerId = "5481159F-1A66-431E-9320-A33A99FB249E";
paths = (
{
closed = 1;
nodes = (
"468 505 OFFCURVE",
"500 496 OFFCURVE",
"535 478 CURVE",
"567 548 LINE",
"522 571 OFFCURVE",
"478 582 OFFCURVE",
"433 582 CURVE SMOOTH",
"306 582 OFFCURVE",
"230 496 OFFCURVE",
"230 357 CURVE SMOOTH",
"230 212 OFFCURVE",
"304 131 OFFCURVE",
"432 131 CURVE SMOOTH",
"471 131 OFFCURVE",
"509 139 OFFCURVE",
"547 156 CURVE",
"547 233 LINE",
"517 219 OFFCURVE",
"472 208 OFFCURVE",
"436 208 CURVE SMOOTH",
"356 208 OFFCURVE",
"323 261 OFFCURVE",
"323 357 CURVE SMOOTH",
"323 449 OFFCURVE",
"364 505 OFFCURVE",
"436 505 CURVE SMOOTH"
);
},
{
closed = 1;
nodes = (
"49 292 OFFCURVE",
"65 232 OFFCURVE",
"97 176 CURVE SMOOTH",
"160 63 OFFCURVE",
"281 -10 OFFCURVE",
"416 -10 CURVE SMOOTH",
"484 -10 OFFCURVE",
"546 7 OFFCURVE",
"603 41 CURVE SMOOTH",
"717 109 OFFCURVE",
"783 229 OFFCURVE",
"783 357 CURVE SMOOTH",
"783 423 OFFCURVE",
"767 484 OFFCURVE",
"734 541 CURVE SMOOTH",
"668 655 OFFCURVE",
"546 724 OFFCURVE",
"416 724 CURVE SMOOTH",
"350 724 OFFCURVE",
"289 708 OFFCURVE",
"232 675 CURVE SMOOTH",
"118 609 OFFCURVE",
"49 487 OFFCURVE",
"49 357 CURVE SMOOTH"
);
},
{
closed = 1;
nodes = (
"109 413 OFFCURVE",
"123 464 OFFCURVE",
"151 512 CURVE SMOOTH",
"207 607 OFFCURVE",
"307 664 OFFCURVE",
"416 664 CURVE SMOOTH",
"470 664 OFFCURVE",
"521 650 OFFCURVE",
"569 623 CURVE SMOOTH",
"665 568 OFFCURVE",
"723 466 OFFCURVE",
"723 357 CURVE SMOOTH",
"723 302 OFFCURVE",
"709 251 OFFCURVE",
"683 204 CURVE SMOOTH",
"628 110 OFFCURVE",
"527 50 OFFCURVE",
"416 50 CURVE SMOOTH",
"361 50 OFFCURVE",
"310 63 OFFCURVE",
"263 91 CURVE SMOOTH",
"167 146 OFFCURVE",
"109 246 OFFCURVE",
"109 357 CURVE SMOOTH"
);
}
);
width = 832;
}
);
note = copyright;
unicode = 00A9;
},
{
glyphname = ordfeminine;
lastChange = "2018-06-23 23:44:47 +0000";
layers = (
{
layerId = "5481159F-1A66-431E-9320-A33A99FB249E";
paths = (
{
closed = 1;
nodes = (
"322 600 LINE SMOOTH",
"322 682 OFFCURVE",
"277 722 OFFCURVE",
"187 722 CURVE SMOOTH",
"141 722 OFFCURVE",
"95 711 OFFCURVE",
"48 688 CURVE",
"74 632 LINE",
"113 650 OFFCURVE",
"147 659 OFFCURVE",
"177 659 CURVE SMOOTH",
"222 659 OFFCURVE",
"244 636 OFFCURVE",
"244 589 CURVE",
"192 587 LINE SMOOTH",
"83 583 OFFCURVE",
"28 547 OFFCURVE",
"28 479 CURVE SMOOTH",
"28 410 OFFCURVE",
"64 376 OFFCURVE",
"138 376 CURVE SMOOTH",
"185 376 OFFCURVE",
"223 394 OFFCURVE",
"253 429 CURVE",
"267 382 LINE",
"322 382 LINE"
);
},
{
closed = 1;
nodes = (
"244 517 LINE SMOOTH",
"244 464 OFFCURVE",
"214 437 OFFCURVE",
"155 437 CURVE SMOOTH",
"124 437 OFFCURVE",
"108 451 OFFCURVE",
"108 480 CURVE SMOOTH",
"108 512 OFFCURVE",
"149 535 OFFCURVE",
"196 536 CURVE SMOOTH",
"244 538 LINE"
);
}
);
width = 368;
}
);
note = ordfeminine;
unicode = 00AA;
},
{
glyphname = guillemotleft;
lastChange = "2018-06-23 23:44:47 +0000";
layers = (
{
layerId = "5481159F-1A66-431E-9320-A33A99FB249E";
paths = (
{
closed = 1;
nodes = (
"214 51 LINE",
"296 98 LINE",
"158 268 LINE",
"296 439 LINE",
"214 485 LINE",
"40 274 LINE",
"40 261 LINE"
);
},
{
closed = 1;
nodes = (
"434 51 LINE",
"516 98 LINE",
"378 268 LINE",
"516 439 LINE",
"434 485 LINE",
"260 274 LINE",
"260 261 LINE"
);
}
);
width = 556;
}
);
note = guillemotleft;
unicode = 00AB;
},
{
glyphname = logicalnot;
lastChange = "2018-06-23 23:44:47 +0000";
layers = (
{
layerId = "5481159F-1A66-431E-9320-A33A99FB249E";
paths = (
{
closed = 1;
nodes = (
"47 396 LINE",
"47 309 LINE",
"437 309 LINE",
"437 125 LINE",
"524 125 LINE",
"524 396 LINE"
);
}
);
width = 571;
}
);
note = logicalnot;
unicode = 00AC;
},
{
glyphname = registered;
lastChange = "2018-06-23 23:44:47 +0000";
layers = (
{
layerId = "5481159F-1A66-431E-9320-A33A99FB249E";
paths = (
{
closed = 1;
nodes = (
"398 505 LINE SMOOTH",
"449 505 OFFCURVE",
"472 489 OFFCURVE",
"472 442 CURVE SMOOTH",
"472 399 OFFCURVE",
"447 376 OFFCURVE",
"399 376 CURVE SMOOTH",
"365 376 LINE",
"365 505 LINE"
);
},
{
closed = 1;
nodes = (
"565 533 OFFCURVE",
"514 577 OFFCURVE",
"401 577 CURVE SMOOTH",
"273 577 LINE",
"273 136 LINE",
"365 136 LINE",
"365 305 LINE",
"409 305 LINE",
"503 136 LINE",
"606 136 LINE",
"490 330 LINE",
"540 350 OFFCURVE",
"565 388 OFFCURVE",
"565 444 CURVE SMOOTH"
);
},
{
closed = 1;
nodes = (
"49 292 OFFCURVE",
"65 232 OFFCURVE",
"97 176 CURVE SMOOTH",
"160 63 OFFCURVE",
"281 -10 OFFCURVE",
"416 -10 CURVE SMOOTH",
"484 -10 OFFCURVE",
"546 7 OFFCURVE",
"603 41 CURVE SMOOTH",
"717 109 OFFCURVE",
"783 229 OFFCURVE",
"783 357 CURVE SMOOTH",
"783 423 OFFCURVE",
"767 484 OFFCURVE",
"734 541 CURVE SMOOTH",
"668 655 OFFCURVE",
"546 724 OFFCURVE",
"416 724 CURVE SMOOTH",
"350 724 OFFCURVE",
"289 708 OFFCURVE",
"232 675 CURVE SMOOTH",
"118 609 OFFCURVE",
"49 487 OFFCURVE",
"49 357 CURVE SMOOTH"
);
},
{
closed = 1;
nodes = (
"109 413 OFFCURVE",
"123 464 OFFCURVE",
"151 512 CURVE SMOOTH",
"207 607 OFFCURVE",
"307 664 OFFCURVE",
"416 664 CURVE SMOOTH",
"470 664 OFFCURVE",
"521 650 OFFCURVE",
"569 623 CURVE SMOOTH",
"665 568 OFFCURVE",
"723 466 OFFCURVE",
"723 357 CURVE SMOOTH",
"723 302 OFFCURVE",
"709 251 OFFCURVE",
"683 204 CURVE SMOOTH",
"628 110 OFFCURVE",
"527 50 OFFCURVE",
"416 50 CURVE SMOOTH",
"361 50 OFFCURVE",
"310 63 OFFCURVE",
"263 91 CURVE SMOOTH",
"167 146 OFFCURVE",
"109 246 OFFCURVE",
"109 357 CURVE SMOOTH"
);
}
);
width = 832;
}
);
note = registered;
unicode = 00AE;
},
{
glyphname = overscore;
lastChange = "2018-06-23 23:44:47 +0000";
layers = (
{
layerId = "5481159F-1A66-431E-9320-A33A99FB249E";
paths = (
{
closed = 1;
nodes = (
"-3 840 LINE",
"-3 760 LINE",
"503 760 LINE",
"503 840 LINE"
);
}
);
width = 500;
}
);
note = overscore;
unicode = 00AF;
},
{
glyphname = degree;
lastChange = "2018-06-23 23:44:47 +0000";
layers = (
{
layerId = "5481159F-1A66-431E-9320-A33A99FB249E";
paths = (
{
closed = 1;
nodes = (
"53 534 OFFCURVE",
"61 507 OFFCURVE",
"75 482 CURVE SMOOTH",
"104 433 OFFCURVE",
"157 403 OFFCURVE",
"214 403 CURVE SMOOTH",
"302 403 OFFCURVE",
"374 473 OFFCURVE",
"374 563 CURVE SMOOTH",
"374 653 OFFCURVE",
"304 724 OFFCURVE",
"214 724 CURVE SMOOTH",
"124 724 OFFCURVE",
"53 651 OFFCURVE",
"53 563 CURVE SMOOTH"
);
},
{
closed = 1;
nodes = (
"128 611 OFFCURVE",
"167 650 OFFCURVE",
"214 650 CURVE SMOOTH",
"261 650 OFFCURVE",
"300 612 OFFCURVE",
"300 563 CURVE SMOOTH",
"300 517 OFFCURVE",
"262 478 OFFCURVE",
"214 478 CURVE SMOOTH",
"166 478 OFFCURVE",
"128 518 OFFCURVE",
"128 563 CURVE SMOOTH"
);
}
);
width = 428;
}
);
note = degree;
unicode = 00B0;
},
{
glyphname = plusminus;
lastChange = "2018-06-23 23:44:47 +0000";
layers = (
{
layerId = "5481159F-1A66-431E-9320-A33A99FB249E";
paths = (
{
closed = 1;
nodes = (
"329 126 LINE",
"329 324 LINE",
"524 324 LINE",
"524 411 LINE",
"329 411 LINE",
"329 610 LINE",
"241 610 LINE",
"241 411 LINE",
"47 411 LINE",
"47 324 LINE",
"241 324 LINE",
"241 126 LINE"
);
},
{
closed = 1;
nodes = (
"524 87 LINE",
"47 87 LINE",
"47 0 LINE",
"524 0 LINE"
);
}
);
width = 571;
}
);
note = plusminus;
unicode = 00B1;
},
{
glyphname = twosuperior;
lastChange = "2018-06-23 23:44:47 +0000";
layers = (
{
layerId = "5481159F-1A66-431E-9320-A33A99FB249E";
paths = (
{
closed = 1;
nodes = (
"137 364 LINE",
"205 427 LINE SMOOTH",
"294 509 OFFCURVE",
"317 549 OFFCURVE",
"317 603 CURVE SMOOTH",
"317 677 OFFCURVE",
"265 723 OFFCURVE",
"177 723 CURVE SMOOTH",
"122 723 OFFCURVE",
"71 704 OFFCURVE",
"26 665 CURVE",
"72 606 LINE",
"107 635 OFFCURVE",
"140 649 OFFCURVE",
"170 649 CURVE SMOOTH",
"203 649 OFFCURVE",
"226 631 OFFCURVE",
"226 597 CURVE SMOOTH",
"226 578 OFFCURVE",
"221 560 OFFCURVE",
"210 542 CURVE SMOOTH",
"200 525 OFFCURVE",
"175 499 OFFCURVE",
"137 462 CURVE SMOOTH",
"25 352 LINE",
"25 286 LINE",
"331 286 LINE",
"331 364 LINE"
);
}
);
width = 363;
}
);
note = twosuperior;
unicode = 00B2;
},
{
glyphname = threesuperior;
lastChange = "2018-06-23 23:44:47 +0000";
layers = (
{
layerId = "5481159F-1A66-431E-9320-A33A99FB249E";
paths = (
{
closed = 1;
nodes = (
"315 681 OFFCURVE",
"260 723 OFFCURVE",
"173 723 CURVE SMOOTH",
"109 723 OFFCURVE",
"63 702 OFFCURVE",
"24 672 CURVE",
"65 616 LINE",
"102 640 OFFCURVE",
"131 654 OFFCURVE",
"168 654 CURVE SMOOTH",
"205 654 OFFCURVE",
"229 635 OFFCURVE",
"229 601 CURVE SMOOTH",
"229 559 OFFCURVE",
"199 538 OFFCURVE",
"139 538 CURVE SMOOTH",
"88 538 LINE",
"88 473 LINE",
"144 473 LINE SMOOTH",
"209 473 OFFCURVE",
"241 453 OFFCURVE",
"241 412 CURVE SMOOTH",
"241 368 OFFCURVE",
"212 346 OFFCURVE",
"154 346 CURVE SMOOTH",
"113 346 OFFCURVE",
"69 359 OFFCURVE",
"22 385 CURVE",
"22 308 LINE",
"62 288 OFFCURVE",
"105 278 OFFCURVE",
"154 278 CURVE SMOOTH",
"267 278 OFFCURVE",
"329 325 OFFCURVE",
"329 407 CURVE SMOOTH",
"329 458 OFFCURVE",
"298 495 OFFCURVE",
"237 509 CURVE",
"288 534 OFFCURVE",
"315 562 OFFCURVE",
"315 611 CURVE SMOOTH"
);
}
);
width = 363;
}
);
note = threesuperior;
unicode = 00B3;
},
{
glyphname = acute;
lastChange = "2018-06-23 23:44:47 +0000";
layers = (
{
layerId = "5481159F-1A66-431E-9320-A33A99FB249E";
paths = (
{
closed = 1;
nodes = (
"299 641 OFFCURVE",
"380 716 OFFCURVE",
"414 756 CURVE",
"414 766 LINE",
"281 766 LINE",
"258 727 OFFCURVE",
"214 664 OFFCURVE",
"177 618 CURVE",
"177 606 LINE",
"253 606 LINE"
);
}
);
width = 592;
}
);
note = acute;
unicode = 00B4;
},
{
glyphname = mu;
lastChange = "2018-06-23 23:44:47 +0000";
layers = (
{
layerId = "5481159F-1A66-431E-9320-A33A99FB249E";
paths = (
{
closed = 1;
nodes = (
"82 540 LINE",
"82 -240 LINE",
"197 -240 LINE",
"197 -84 LINE SMOOTH",
"197 -61 OFFCURVE",
"194 16 OFFCURVE",
"192 34 CURVE",
"194 34 LINE",
"220 5 OFFCURVE",
"255 -10 OFFCURVE",
"301 -10 CURVE SMOOTH",
"369 -10 OFFCURVE",
"414 18 OFFCURVE",
"445 72 CURVE",
"451 72 LINE",
"468 0 LINE",
"557 0 LINE",
"557 540 LINE",
"442 540 LINE",
"442 271 LINE SMOOTH",
"442 136 OFFCURVE",
"398 83 OFFCURVE",
"303 83 CURVE SMOOTH",
"232 83 OFFCURVE",
"197 124 OFFCURVE",
"197 206 CURVE SMOOTH",
"197 540 LINE"
);
}
);
width = 639;
}
);
note = mu;
unicode = 00B5;
},
{
glyphname = paragraph;
lastChange = "2018-06-23 23:44:47 +0000";
layers = (
{
layerId = "5481159F-1A66-431E-9320-A33A99FB249E";
paths = (
{
closed = 1;
nodes = (
"275 760 LINE SMOOTH",
"124 760 OFFCURVE",
"55 678 OFFCURVE",
"55 509 CURVE SMOOTH",
"55 345 OFFCURVE",
"119 264 OFFCURVE",
"260 264 CURVE SMOOTH",
"287 264 OFFCURVE",
"311 267 OFFCURVE",
"331 273 CURVE",
"331 -127 LINE",
"398 -127 LINE",
"398 685 LINE",
"491 685 LINE",
"491 -127 LINE",
"558 -127 LINE",
"558 760 LINE"
);
}
);
width = 655;
}
);
note = paragraph;
unicode = 00B6;
},
{
glyphname = periodcentered;
lastChange = "2018-06-23 23:44:47 +0000";
layers = (
{
layerId = "5481159F-1A66-431E-9320-A33A99FB249E";
paths = (
{
closed = 1;
nodes = (
"65 306 OFFCURVE",
"90 278 OFFCURVE",
"137 278 CURVE SMOOTH",
"184 278 OFFCURVE",
"210 307 OFFCURVE",
"210 353 CURVE SMOOTH",
"210 398 OFFCURVE",
"185 427 OFFCURVE",
"137 427 CURVE SMOOTH",
"90 427 OFFCURVE",
"65 400 OFFCURVE",
"65 353 CURVE SMOOTH"
);
}
);
width = 275;
}
);
note = periodcentered;
unicode = 00B7;
},
{
glyphname = cedilla;
lastChange = "2018-06-23 23:44:47 +0000";
layers = (
{
layerId = "5481159F-1A66-431E-9320-A33A99FB249E";
paths = (
{
closed = 1;
nodes = (
"208 -89 OFFCURVE",
"177 -57 OFFCURVE",
"125 -43 CURVE",
"145 0 LINE",
"71 0 LINE",
"30 -81 LINE",
"88 -89 OFFCURVE",
"117 -107 OFFCURVE",
"117 -135 CURVE SMOOTH",
"117 -164 OFFCURVE",
"95 -173 OFFCURVE",
"60 -173 CURVE SMOOTH",
"38 -173 OFFCURVE",
"18 -170 OFFCURVE",
"0 -166 CURVE",
"0 -233 LINE",
"18 -238 OFFCURVE",
"38 -240 OFFCURVE",
"59 -240 CURVE SMOOTH",
"158 -240 OFFCURVE",
"208 -204 OFFCURVE",
"208 -132 CURVE SMOOTH"
);
}
);
width = 216;
}
);
note = cedilla;
unicode = 00B8;
},
{
glyphname = onesuperior;
lastChange = "2018-06-23 23:44:47 +0000";
layers = (
{
layerId = "5481159F-1A66-431E-9320-A33A99FB249E";
paths = (
{
closed = 1;
nodes = (
"178 714 LINE",
"41 612 LINE",
"84 557 LINE",
"123 586 OFFCURVE",
"146 604 OFFCURVE",
"153 611 CURVE SMOOTH",
"161 619 OFFCURVE",
"167 625 OFFCURVE",
"173 631 CURVE",
"170 586 LINE",
"169 536 LINE",
"169 286 LINE",
"260 286 LINE",
"260 714 LINE"
);
}
);
width = 363;
}
);
note = onesuperior;
unicode = 00B9;
},
{
glyphname = ordmasculine;
lastChange = "2018-06-23 23:44:47 +0000";
layers = (
{
layerId = "5481159F-1A66-431E-9320-A33A99FB249E";
paths = (
{
closed = 1;
nodes = (
"351 657 OFFCURVE",
"290 722 OFFCURVE",
"191 722 CURVE SMOOTH",
"91 722 OFFCURVE",
"30 659 OFFCURVE",
"30 549 CURVE SMOOTH",
"30 443 OFFCURVE",
"91 376 OFFCURVE",
"189 376 CURVE SMOOTH",
"291 376 OFFCURVE",
"351 442 OFFCURVE",
"351 549 CURVE SMOOTH"
);
},
{
closed = 1;
nodes = (
"109 623 OFFCURVE",
"133 657 OFFCURVE",
"190 657 CURVE SMOOTH",
"247 657 OFFCURVE",
"271 623 OFFCURVE",
"271 549 CURVE SMOOTH",
"271 477 OFFCURVE",
"247 441 OFFCURVE",
"190 441 CURVE SMOOTH",
"133 441 OFFCURVE",
"109 477 OFFCURVE",
"109 549 CURVE SMOOTH"
);
}
);
width = 381;
}
);
note = ordmasculine;
unicode = 00BA;
},
{
glyphname = guillemotright;
lastChange = "2018-06-23 23:44:47 +0000";
layers = (
{
layerId = "5481159F-1A66-431E-9320-A33A99FB249E";
paths = (
{
closed = 1;
nodes = (
"341 485 LINE",
"259 439 LINE",
"397 268 LINE",
"259 98 LINE",
"341 51 LINE",
"516 261 LINE",
"516 274 LINE"
);
},
{
closed = 1;
nodes = (
"121 485 LINE",
"39 439 LINE",
"177 268 LINE",
"39 98 LINE",
"121 51 LINE",
"296 261 LINE",
"296 274 LINE"
);
}
);
width = 556;
}
);
note = guillemotright;
unicode = 00BB;
},
{
glyphname = onequarter;
lastChange = "2018-06-23 23:44:47 +0000";
layers = (
{
layerId = "5481159F-1A66-431E-9320-A33A99FB249E";
paths = (
{
closed = 1;
nodes = (
"220 0 LINE",
"313 0 LINE",
"731 714 LINE",
"639 714 LINE"
);
},
{
closed = 1;
nodes = (
"256 714 LINE",
"119 612 LINE",
"162 557 LINE",
"200 586 OFFCURVE",
"223 604 OFFCURVE",
"231 611 CURVE SMOOTH",
"238 619 OFFCURVE",
"245 625 OFFCURVE",
"250 631 CURVE",
"248 586 LINE",
"247 536 LINE",
"247 286 LINE",
"337 286 LINE",
"337 714 LINE"
);
},
{
closed = 1;
nodes = (
"786 156 LINE",
"786 431 LINE",
"694 431 LINE",
"500 148 LINE",
"500 86 LINE",
"692 86 LINE",
"692 0 LINE",
"786 0 LINE",
"786 86 LINE",
"847 86 LINE",
"847 156 LINE"
);
},
{
closed = 1;
nodes = (
"652 262 LINE SMOOTH",
"664 279 OFFCURVE",
"678 305 OFFCURVE",
"695 339 CURVE",
"693 306 OFFCURVE",
"692 274 OFFCURVE",
"692 243 CURVE SMOOTH",
"692 156 LINE",
"580 156 LINE"
);
}
);
width = 855;
}
);
note = onequarter;
unicode = 00BC;
},
{
glyphname = onehalf;
lastChange = "2018-06-23 23:44:47 +0000";
layers = (
{
layerId = "5481159F-1A66-431E-9320-A33A99FB249E";
paths = (
{
closed = 1;
nodes = (
"164 0 LINE",
"258 0 LINE",
"676 714 LINE",
"583 714 LINE"
);
},
{
closed = 1;
nodes = (
"181 714 LINE",
"43 612 LINE",
"86 557 LINE",
"125 586 OFFCURVE",
"148 604 OFFCURVE",
"156 611 CURVE SMOOTH",
"163 619 OFFCURVE",
"170 625 OFFCURVE",
"175 631 CURVE",
"173 586 LINE",
"171 536 LINE",
"171 286 LINE",
"262 286 LINE",
"262 714 LINE"
);
},
{
closed = 1;
nodes = (
"667 78 LINE",
"735 141 LINE SMOOTH",
"824 223 OFFCURVE",
"847 263 OFFCURVE",
"847 317 CURVE SMOOTH",
"847 391 OFFCURVE",
"795 437 OFFCURVE",
"707 437 CURVE SMOOTH",
"651 437 OFFCURVE",
"601 417 OFFCURVE",
"556 379 CURVE",
"602 320 LINE",
"637 349 OFFCURVE",
"669 363 OFFCURVE",
"700 363 CURVE SMOOTH",
"733 363 OFFCURVE",
"756 345 OFFCURVE",
"756 311 CURVE SMOOTH",
"756 292 OFFCURVE",
"750 273 OFFCURVE",
"740 256 CURVE SMOOTH",
"729 239 OFFCURVE",
"705 212 OFFCURVE",
"667 176 CURVE SMOOTH",
"555 66 LINE",
"555 0 LINE",
"861 0 LINE",
"861 78 LINE"
);
}
);
width = 855;
}
);
note = onehalf;
unicode = 00BD;
},
{
glyphname = threequarters;
lastChange = "2018-06-23 23:44:47 +0000";
layers = (
{
layerId = "5481159F-1A66-431E-9320-A33A99FB249E";
paths = (
{
closed = 1;
nodes = (
"175 0 LINE",
"269 0 LINE",
"687 714 LINE",
"594 714 LINE"
);
},
{
closed = 1;
nodes = (
"790 156 LINE",
"790 431 LINE",
"698 431 LINE",
"505 148 LINE",
"505 86 LINE",
"696 86 LINE",
"696 0 LINE",
"790 0 LINE",
"790 86 LINE",
"851 86 LINE",
"851 156 LINE"
);
},
{
closed = 1;
nodes = (
"656 262 LINE SMOOTH",
"668 279 OFFCURVE",
"682 305 OFFCURVE",
"699 339 CURVE",
"697 306 OFFCURVE",
"696 274 OFFCURVE",
"696 243 CURVE SMOOTH",
"696 156 LINE",
"584 156 LINE"
);
},
{
closed = 1;
nodes = (
"294 681 OFFCURVE",
"239 723 OFFCURVE",
"152 723 CURVE SMOOTH",
"88 723 OFFCURVE",
"42 702 OFFCURVE",
"3 672 CURVE",
"44 616 LINE",
"81 640 OFFCURVE",
"110 654 OFFCURVE",
"147 654 CURVE SMOOTH",
"184 654 OFFCURVE",
"208 635 OFFCURVE",
"208 601 CURVE SMOOTH",
"208 559 OFFCURVE",
"178 538 OFFCURVE",
"118 538 CURVE SMOOTH",
"67 538 LINE",
"67 473 LINE",
"123 473 LINE SMOOTH",
"188 473 OFFCURVE",
"220 453 OFFCURVE",
"220 412 CURVE SMOOTH",
"220 368 OFFCURVE",
"191 346 OFFCURVE",
"133 346 CURVE SMOOTH",
"92 346 OFFCURVE",
"48 359 OFFCURVE",
"1 385 CURVE",
"1 308 LINE",
"41 288 OFFCURVE",
"84 278 OFFCURVE",
"133 278 CURVE SMOOTH",
"246 278 OFFCURVE",
"308 325 OFFCURVE",
"308 407 CURVE SMOOTH",
"308 458 OFFCURVE",
"277 495 OFFCURVE",
"216 509 CURVE",
"267 534 OFFCURVE",
"294 562 OFFCURVE",
"294 611 CURVE SMOOTH"
);
}
);
width = 855;
}
);
note = threequarters;
unicode = 00BE;
},
{
glyphname = questiondown;
lastChange = "2018-06-23 23:44:47 +0000";
layers = (
{
layerId = "5481159F-1A66-431E-9320-A33A99FB249E";
paths = (
{
closed = 1;
nodes = (
"221 293 LINE SMOOTH",
"221 242 OFFCURVE",
"206 219 OFFCURVE",
"145 170 CURVE SMOOTH",
"108 141 OFFCURVE",
"83 118 OFFCURVE",
"68 101 CURVE SMOOTH",
"41 67 OFFCURVE",
"27 31 OFFCURVE",
"27 -16 CURVE SMOOTH",
"27 -126 OFFCURVE",
"106 -192 OFFCURVE",
"241 -192 CURVE SMOOTH",
"308 -192 OFFCURVE",
"376 -174 OFFCURVE",
"448 -138 CURVE",
"408 -51 LINE",
"355 -76 OFFCURVE",
"301 -96 OFFCURVE",
"242 -96 CURVE SMOOTH",
"172 -96 OFFCURVE",
"137 -63 OFFCURVE",
"137 -12 CURVE SMOOTH",
"137 37 OFFCURVE",
"147 56 OFFCURVE",
"228 120 CURVE SMOOTH",
"294 172 OFFCURVE",
"318 215 OFFCURVE",
"318 284 CURVE SMOOTH",
"318 315 LINE",
"221 315 LINE"
);
},
{
closed = 1;
nodes = (
"338 518 OFFCURVE",
"312 546 OFFCURVE",
"265 546 CURVE SMOOTH",
"218 546 OFFCURVE",
"193 516 OFFCURVE",
"193 471 CURVE SMOOTH",
"193 424 OFFCURVE",
"218 397 OFFCURVE",
"265 397 CURVE SMOOTH",
"313 397 OFFCURVE",
"338 423 OFFCURVE",
"338 471 CURVE SMOOTH"
);
}
);
width = 453;
}
);
note = questiondown;
unicode = 00BF;
},
{
glyphname = AE;
lastChange = "2018-06-23 23:44:47 +0000";
layers = (
{
anchors = (
{
name = bottom;
position = "{456, 0}";
},
{
name = top;
position = "{456, 714}";
}
);
layerId = "5481159F-1A66-431E-9320-A33A99FB249E";
paths = (
{
closed = 1;
nodes = (
"574 99 LINE",
"574 323 LINE",
"834 323 LINE",
"834 421 LINE",
"574 421 LINE",
"574 615 LINE",
"853 615 LINE",
"853 714 LINE",
"330 714 LINE",
"-1 0 LINE",
"119 0 LINE",
"211 198 LINE",
"457 198 LINE",
"457 0 LINE",
"853 0 LINE",
"853 99 LINE"
);
},
{
closed = 1;
nodes = (
"457 612 LINE",
"457 299 LINE",
"255 299 LINE",
"397 612 LINE"
);
}
);
width = 912;
}
);
note = AE;
unicode = 00C6;
},
{
glyphname = Eth;
lastChange = "2018-06-23 23:44:47 +0000";
layers = (
{
layerId = "5481159F-1A66-431E-9320-A33A99FB249E";
paths = (
{
closed = 1;
nodes = (
"671 585 OFFCURVE",
"538 714 OFFCURVE",
"312 714 CURVE SMOOTH",
"94 714 LINE",
"94 402 LINE",
"23 402 LINE",
"23 304 LINE",
"94 304 LINE",
"94 0 LINE",
"290 0 LINE SMOOTH",
"536 0 OFFCURVE",
"671 129 OFFCURVE",
"671 364 CURVE SMOOTH"
);
},
{
closed = 1;
nodes = (
"548 186 OFFCURVE",
"461 98 OFFCURVE",
"289 98 CURVE SMOOTH",
"211 98 LINE",
"211 304 LINE",
"361 304 LINE",
"361 402 LINE",
"211 402 LINE",
"211 616 LINE",
"307 616 LINE SMOOTH",
"466 616 OFFCURVE",
"548 529 OFFCURVE",
"548 360 CURVE SMOOTH"
);
}
);
width = 731;
}
);
note = Eth;
unicode = 00D0;
},
{
glyphname = multiply;
lastChange = "2018-06-23 23:44:47 +0000";
layers = (
{
layerId = "5481159F-1A66-431E-9320-A33A99FB249E";
paths = (
{
closed = 1;
nodes = (
"126 132 LINE",
"284 291 LINE",
"445 132 LINE",
"505 193 LINE",
"346 353 LINE",
"507 514 LINE",
"446 574 LINE",
"285 415 LINE",
"125 574 LINE",
"64 512 LINE",
"223 353 LINE",
"65 193 LINE"
);
}
);
width = 571;
}
);
note = multiply;
unicode = 00D7;
},
{
glyphname = Oslash;
lastChange = "2018-06-23 23:44:47 +0000";
layers = (
{
anchors = (
{
name = bottom;
position = "{394, 0}";
},
{
name = top;
position = "{394, 714}";
}
);
layerId = "5481159F-1A66-431E-9320-A33A99FB249E";
paths = (
{
closed = 1;
nodes = (
"728 478 OFFCURVE",
"696 570 OFFCURVE",
"633 635 CURVE",
"681 703 LINE",
"612 748 LINE",
"568 685 LINE",
"518 712 OFFCURVE",
"460 725 OFFCURVE",
"395 725 CURVE SMOOTH",
"180 725 OFFCURVE",
"59 595 OFFCURVE",
"59 359 CURVE SMOOTH",
"59 236 OFFCURVE",
"90 143 OFFCURVE",
"151 79 CURVE",
"103 9 LINE",
"172 -37 LINE",
"218 30 LINE",
"266 3 OFFCURVE",
"325 -10 OFFCURVE",
"394 -10 CURVE SMOOTH",
"607 -10 OFFCURVE",
"728 125 OFFCURVE",
"728 358 CURVE SMOOTH"
);
},
{
closed = 1;
nodes = (
"604 180 OFFCURVE",
"533 90 OFFCURVE",
"394 90 CURVE SMOOTH",
"349 90 OFFCURVE",
"311 100 OFFCURVE",
"279 119 CURVE",
"565 534 LINE",
"591 490 OFFCURVE",
"604 431 OFFCURVE",
"604 358 CURVE SMOOTH"
);
},
{
closed = 1;
nodes = (
"183 533 OFFCURVE",
"255 625 OFFCURVE",
"395 625 CURVE SMOOTH",
"440 625 OFFCURVE",
"478 615 OFFCURVE",
"508 596 CURVE",
"221 181 LINE",
"196 224 OFFCURVE",
"183 283 OFFCURVE",
"183 358 CURVE SMOOTH"
);
}
);
width = 787;
}
);
note = Oslash;
unicode = 00D8;
},
{
glyphname = Thorn;
lastChange = "2018-06-23 23:44:47 +0000";
layers = (
{
anchors = (
{
name = bottom;
position = "{310, 0}";
},
{
name = top;
position = "{310, 714}";
}
);
layerId = "5481159F-1A66-431E-9320-A33A99FB249E";
paths = (
{
closed = 1;
nodes = (
"571 521 OFFCURVE",
"481 595 OFFCURVE",
"307 595 CURVE SMOOTH",
"211 595 LINE",
"211 714 LINE",
"94 714 LINE",
"94 0 LINE",
"211 0 LINE",
"211 149 LINE",
"293 149 LINE SMOOTH",
"473 149 OFFCURVE",
"571 231 OFFCURVE",
"571 379 CURVE SMOOTH"
);
},
{
closed = 1;
nodes = (
"291 498 LINE SMOOTH",
"403 498 OFFCURVE",
"451 458 OFFCURVE",
"451 376 CURVE SMOOTH",
"451 285 OFFCURVE",
"397 246 OFFCURVE",
"276 246 CURVE SMOOTH",
"211 246 LINE",
"211 498 LINE"
);
}
);
width = 619;
}
);
note = Thorn;
unicode = 00DE;
},
{
glyphname = germandbls;
lastChange = "2018-06-23 23:44:47 +0000";
layers = (
{
anchors = (
{
name = bottom;
position = "{333, 0}";
},
{
name = top;
position = "{333, 540}";
}
);
layerId = "5481159F-1A66-431E-9320-A33A99FB249E";
paths = (
{
closed = 1;
nodes = (
"561 707 OFFCURVE",
"471 765 OFFCURVE",
"324 765 CURVE SMOOTH",
"168 765 OFFCURVE",
"82 696 OFFCURVE",
"82 571 CURVE SMOOTH",
"82 0 LINE",
"197 0 LINE",
"197 569 LINE SMOOTH",
"197 637 OFFCURVE",
"242 673 OFFCURVE",
"324 673 CURVE SMOOTH",
"396 673 OFFCURVE",
"444 645 OFFCURVE",
"444 598 CURVE SMOOTH",
"444 565 OFFCURVE",
"425 541 OFFCURVE",
"376 505 CURVE SMOOTH",
"330 470 OFFCURVE",
"308 438 OFFCURVE",
"308 397 CURVE SMOOTH",
"308 342 OFFCURVE",
"339 307 OFFCURVE",
"417 260 CURVE SMOOTH",
"457 236 OFFCURVE",
"482 216 OFFCURVE",
"493 202 CURVE SMOOTH",
"504 188 OFFCURVE",
"510 171 OFFCURVE",
"510 151 CURVE SMOOTH",
"510 102 OFFCURVE",
"479 77 OFFCURVE",
"416 77 CURVE SMOOTH",
"373 77 OFFCURVE",
"313 95 OFFCURVE",
"276 119 CURVE",
"276 22 LINE",
"312 1 OFFCURVE",
"360 -10 OFFCURVE",
"422 -10 CURVE SMOOTH",
"555 -10 OFFCURVE",
"626 47 OFFCURVE",
"626 155 CURVE SMOOTH",
"626 178 OFFCURVE",
"623 199 OFFCURVE",
"615 217 CURVE SMOOTH",
"601 253 OFFCURVE",
"577 280 OFFCURVE",
"517 321 CURVE SMOOTH",
"471 352 LINE SMOOTH",
"434 377 OFFCURVE",
"421 391 OFFCURVE",
"421 410 CURVE SMOOTH",
"421 419 OFFCURVE",
"425 429 OFFCURVE",
"434 438 CURVE SMOOTH",
"443 447 OFFCURVE",
"462 463 OFFCURVE",
"491 486 CURVE SMOOTH",
"534 519 OFFCURVE",
"561 563 OFFCURVE",
"561 612 CURVE SMOOTH"
);
}
);
width = 666;
}
);
note = germandbls;
unicode = 00DF;
},
{
glyphname = ae;
lastChange = "2018-06-23 23:44:47 +0000";
layers = (
{
anchors = (
{
name = bottom;
position = "{444, 0}";
},
{
name = top;
position = "{444, 540}";
}
);
layerId = "5481159F-1A66-431E-9320-A33A99FB249E";
paths = (
{
closed = 1;
nodes = (
"44 53 OFFCURVE",
"108 -10 OFFCURVE",
"216 -10 CURVE SMOOTH",
"310 -10 OFFCURVE",
"366 16 OFFCURVE",
"427 97 CURVE",
"470 25 OFFCURVE",
"542 -10 OFFCURVE",
"634 -10 CURVE SMOOTH",
"706 -10 OFFCURVE",
"757 0 OFFCURVE",
"813 27 CURVE",
"813 120 LINE",
"757 94 OFFCURVE",
"699 81 OFFCURVE",
"639 81 CURVE SMOOTH",
"544 81 OFFCURVE",
"496 136 OFFCURVE",
"492 245 CURVE",
"840 245 LINE",
"840 307 LINE SMOOTH",
"840 456 OFFCURVE",
"754 550 OFFCURVE",
"620 550 CURVE SMOOTH",
"546 550 OFFCURVE",
"490 524 OFFCURVE",
"451 474 CURVE",
"419 524 OFFCURVE",
"364 550 OFFCURVE",
"285 550 CURVE SMOOTH",
"221 550 OFFCURVE",
"149 534 OFFCURVE",
"92 503 CURVE",
"128 422 LINE",
"182 449 OFFCURVE",
"232 462 OFFCURVE",
"278 462 CURVE SMOOTH",
"343 462 OFFCURVE",
"376 430 OFFCURVE",
"376 367 CURVE SMOOTH",
"376 330 LINE",
"284 327 LINE SMOOTH",
"122 322 OFFCURVE",
"44 267 OFFCURVE",
"44 155 CURVE SMOOTH"
);
},
{
closed = 1;
nodes = (
"163 222 OFFCURVE",
"208 251 OFFCURVE",
"309 255 CURVE SMOOTH",
"375 258 LINE",
"375 211 LINE SMOOTH",
"375 128 OFFCURVE",
"325 78 OFFCURVE",
"244 78 CURVE SMOOTH",
"190 78 OFFCURVE",
"163 104 OFFCURVE",
"163 154 CURVE SMOOTH"
);
},
{
closed = 1;
nodes = (
"686 463 OFFCURVE",
"726 412 OFFCURVE",
"726 327 CURVE",
"495 327 LINE",
"501 417 OFFCURVE",
"545 463 OFFCURVE",
"618 463 CURVE SMOOTH"
);
}
);
width = 887;
}
);
note = ae;
unicode = 00E6;
},
{
glyphname = eth;
lastChange = "2018-06-23 23:44:47 +0000";
layers = (
{
layerId = "5481159F-1A66-431E-9320-A33A99FB249E";
paths = (
{
closed = 1;
nodes = (
"561 429 OFFCURVE",
"508 554 OFFCURVE",
"409 645 CURVE",
"501 700 LINE",
"458 763 LINE",
"345 696 LINE",
"307 722 OFFCURVE",
"265 746 OFFCURVE",
"219 766 CURVE",
"178 695 LINE",
"205 681 OFFCURVE",
"232 664 OFFCURVE",
"260 645 CURVE",
"160 587 LINE",
"203 522 LINE",
"325 595 LINE",
"379 544 OFFCURVE",
"416 488 OFFCURVE",
"436 427 CURVE",
"432 425 LINE",
"404 461 OFFCURVE",
"355 479 OFFCURVE",
"285 479 CURVE SMOOTH",
"142 479 OFFCURVE",
"50 385 OFFCURVE",
"50 235 CURVE SMOOTH",
"50 86 OFFCURVE",
"151 -10 OFFCURVE",
"304 -10 CURVE SMOOTH",
"468 -10 OFFCURVE",
"561 95 OFFCURVE",
"561 277 CURVE SMOOTH"
);
},
{
closed = 1;
nodes = (
"444 139 OFFCURVE",
"402 79 OFFCURVE",
"306 79 CURVE SMOOTH",
"217 79 OFFCURVE",
"167 133 OFFCURVE",
"167 233 CURVE SMOOTH",
"167 336 OFFCURVE",
"208 390 OFFCURVE",
"306 390 CURVE SMOOTH",
"392 390 OFFCURVE",
"444 337 OFFCURVE",
"444 255 CURVE SMOOTH"
);
}
);
width = 607;
}
);
note = eth;
unicode = 00F0;
},
{
glyphname = divide;
lastChange = "2018-06-23 23:44:47 +0000";
layers = (
{
layerId = "5481159F-1A66-431E-9320-A33A99FB249E";
paths = (
{
closed = 1;
nodes = (
"524 396 LINE",
"47 396 LINE",
"47 309 LINE",
"524 309 LINE"
);
},
{
closed = 1;
nodes = (
"223 139 OFFCURVE",
"246 115 OFFCURVE",
"285 115 CURVE SMOOTH",
"322 115 OFFCURVE",
"346 141 OFFCURVE",
"346 182 CURVE SMOOTH",
"346 223 OFFCURVE",
"325 248 OFFCURVE",
"285 248 CURVE SMOOTH",
"244 248 OFFCURVE",
"223 224 OFFCURVE",
"223 182 CURVE SMOOTH"
);
},
{
closed = 1;
nodes = (
"223 480 OFFCURVE",
"246 456 OFFCURVE",
"285 456 CURVE SMOOTH",
"322 456 OFFCURVE",
"346 482 OFFCURVE",
"346 523 CURVE SMOOTH",
"346 564 OFFCURVE",
"325 589 OFFCURVE",
"285 589 CURVE SMOOTH",
"244 589 OFFCURVE",
"223 564 OFFCURVE",
"223 523 CURVE SMOOTH"
);
}
);
width = 571;
}
);
note = divide;
unicode = 00F7;
},
{
glyphname = oslash;
lastChange = "2018-06-23 23:44:47 +0000";
layers = (
{
anchors = (
{
name = top;
position = "{306, 540}";
}
);
layerId = "5481159F-1A66-431E-9320-A33A99FB249E";
paths = (
{
closed = 1;
nodes = (
"561 354 OFFCURVE",
"539 421 OFFCURVE",
"495 470 CURVE",
"533 523 LINE",
"467 568 LINE",
"433 519 LINE",
"396 540 OFFCURVE",
"354 550 OFFCURVE",
"307 550 CURVE SMOOTH",
"144 550 OFFCURVE",
"50 446 OFFCURVE",
"50 271 CURVE SMOOTH",
"50 185 OFFCURVE",
"73 116 OFFCURVE",
"119 66 CURVE",
"79 9 LINE",
"145 -35 LINE",
"182 18 LINE",
"217 0 OFFCURVE",
"257 -10 OFFCURVE",
"304 -10 CURVE SMOOTH",
"466 -10 OFFCURVE",
"561 95 OFFCURVE",
"561 271 CURVE SMOOTH"
);
},
{
closed = 1;
nodes = (
"168 390 OFFCURVE",
"209 456 OFFCURVE",
"305 456 CURVE SMOOTH",
"333 456 OFFCURVE",
"357 450 OFFCURVE",
"377 437 CURVE",
"186 164 LINE",
"174 191 OFFCURVE",
"168 227 OFFCURVE",
"168 271 CURVE SMOOTH"
);
},
{
closed = 1;
nodes = (
"443 146 OFFCURVE",
"397 84 OFFCURVE",
"306 84 CURVE SMOOTH",
"278 84 OFFCURVE",
"255 89 OFFCURVE",
"238 100 CURVE",
"427 370 LINE",
"438 343 OFFCURVE",
"443 311 OFFCURVE",
"443 271 CURVE SMOOTH"
);
}
);
width = 611;
}
);
note = oslash;
unicode = 00F8;
},
{
glyphname = thorn;
lastChange = "2018-06-23 23:44:47 +0000";
layers = (
{
anchors = (
{
name = bottom;
position = "{312, 0}";
},
{
name = top;
position = "{312, 540}";
}
);
layerId = "5481159F-1A66-431E-9320-A33A99FB249E";
paths = (
{
closed = 1;
nodes = (
"193 482 LINE",
"197 550 LINE",
"197 760 LINE",
"82 760 LINE",
"82 -240 LINE",
"197 -240 LINE",
"197 -17 LINE",
"194 28 LINE",
"190 63 LINE",
"197 63 LINE",
"233 15 OFFCURVE",
"287 -10 OFFCURVE",
"358 -10 CURVE SMOOTH",
"491 -10 OFFCURVE",
"572 94 OFFCURVE",
"572 271 CURVE SMOOTH",
"572 446 OFFCURVE",
"492 550 OFFCURVE",
"358 550 CURVE SMOOTH",
"289 550 OFFCURVE",
"236 525 OFFCURVE",
"197 469 CURVE",
"192 469 LINE"
);
},
{
closed = 1;
nodes = (
"416 456 OFFCURVE",
"454 396 OFFCURVE",
"454 272 CURVE SMOOTH",
"454 146 OFFCURVE",
"413 84 OFFCURVE",
"330 84 CURVE SMOOTH",
"236 84 OFFCURVE",
"197 140 OFFCURVE",
"197 271 CURVE SMOOTH",
"197 289 LINE SMOOTH",
"197 405 OFFCURVE",
"237 456 OFFCURVE",
"329 456 CURVE SMOOTH"
);
}
);
width = 623;
}
);
note = thorn;
unicode = 00FE;
},
{
glyphname = dcroat;
lastChange = "2018-06-23 23:44:47 +0000";
layers = (
{
layerId = "5481159F-1A66-431E-9320-A33A99FB249E";
paths = (
{
closed = 1;
nodes = (
"333 -10 OFFCURVE",
"386 17 OFFCURVE",
"421 71 CURVE",
"426 71 LINE",
"447 0 LINE",
"541 0 LINE",
"541 595 LINE",
"617 595 LINE",
"617 675 LINE",
"541 675 LINE",
"541 760 LINE",
"426 760 LINE",
"426 675 LINE",
"239 675 LINE",
"239 595 LINE",
"426 595 LINE",
"426 550 LINE SMOOTH",
"426 521 OFFCURVE",
"432 462 OFFCURVE",
"434 456 CURVE",
"428 456 LINE",
"391 509 OFFCURVE",
"336 535 OFFCURVE",
"264 535 CURVE SMOOTH",
"122 535 OFFCURVE",
"50 441 OFFCURVE",
"50 261 CURVE SMOOTH",
"50 92 OFFCURVE",
"128 -10 OFFCURVE",
"262 -10 CURVE SMOOTH"
);
},
{
closed = 1;
nodes = (
"214 83 OFFCURVE",
"173 142 OFFCURVE",
"173 260 CURVE SMOOTH",
"173 386 OFFCURVE",
"212 441 OFFCURVE",
"294 441 CURVE SMOOTH",
"393 441 OFFCURVE",
"431 394 OFFCURVE",
"431 261 CURVE SMOOTH",
"431 245 LINE SMOOTH",
"431 132 OFFCURVE",
"390 83 OFFCURVE",
"298 83 CURVE SMOOTH"
);
}
);
width = 631;
}
);
note = dcroat;
unicode = 0111;
},
{
glyphname = Hbar;
lastChange = "2018-06-23 23:44:47 +0000";
layers = (
{
layerId = "5481159F-1A66-431E-9320-A33A99FB249E";
paths = (
{
closed = 1;
nodes = (
"540 714 LINE",
"540 606 LINE",
"211 606 LINE",
"211 714 LINE",
"94 714 LINE",
"94 606 LINE",
"0 606 LINE",
"0 523 LINE",
"94 523 LINE",
"94 0 LINE",
"211 0 LINE",
"211 322 LINE",
"540 322 LINE",
"540 0 LINE",
"657 0 LINE",
"657 523 LINE",
"751 523 LINE",
"751 606 LINE",
"657 606 LINE",
"657 714 LINE"
);
},
{
closed = 1;
nodes = (
"211 523 LINE",
"540 523 LINE",
"540 422 LINE",
"211 422 LINE"
);
}
);
width = 751;
}
);
note = Hbar;
unicode = 0126;
},
{
glyphname = hbar;
lastChange = "2018-06-23 23:44:47 +0000";
layers = (
{
layerId = "5481159F-1A66-431E-9320-A33A99FB249E";
paths = (
{
closed = 1;
nodes = (
"557 460 OFFCURVE",
"492 526 OFFCURVE",
"362 526 CURVE SMOOTH",
"293 526 OFFCURVE",
"233 500 OFFCURVE",
"198 444 CURVE",
"191 444 LINE",
"193 474 OFFCURVE",
"195 496 OFFCURVE",
"196 509 CURVE SMOOTH",
"196 522 OFFCURVE",
"197 534 OFFCURVE",
"197 543 CURVE SMOOTH",
"197 595 LINE",
"383 595 LINE",
"383 675 LINE",
"197 675 LINE",
"197 760 LINE",
"82 760 LINE",
"82 675 LINE",
"6 675 LINE",
"6 595 LINE",
"82 595 LINE",
"82 0 LINE",
"197 0 LINE",
"197 244 LINE SMOOTH",
"197 379 OFFCURVE",
"241 432 OFFCURVE",
"337 432 CURVE SMOOTH",
"410 432 OFFCURVE",
"442 391 OFFCURVE",
"442 308 CURVE SMOOTH",
"442 0 LINE",
"557 0 LINE",
"557 328 LINE SMOOTH"
);
}
);
width = 635;
}
);
note = hbar;
unicode = 0127;
},
{
glyphname = dotlessi;
lastChange = "2018-06-23 23:44:47 +0000";
layers = (
{
anchors = (
{
name = bottom;
position = "{140, 0}";
},
{
name = ogonek;
position = "{251, 5}";
},
{
name = top;
position = "{140, 540}";
}
);
layerId = "5481159F-1A66-431E-9320-A33A99FB249E";
paths = (
{
closed = 1;
nodes = (
"82 540 LINE",
"82 0 LINE",
"197 0 LINE",
"197 540 LINE"
);
}
);
width = 279;
}
);
note = dotlessi;
unicode = 0131;
},
{
glyphname = kgreenlandic;
lastChange = "2018-06-23 23:44:47 +0000";
layers = (
{
anchors = (
{
name = bottom;
position = "{285, 0}";
},
{
name = top;
position = "{285, 540}";
}
);
layerId = "5481159F-1A66-431E-9320-A33A99FB249E";
paths = (
{
closed = 1;
nodes = (
"198 315 OFFCURVE",
"200 357 OFFCURVE",
"200 399 CURVE SMOOTH",
"200 540 LINE",
"82 540 LINE",
"82 0 LINE",
"200 0 LINE",
"200 177 LINE",
"268 227 LINE",
"432 0 LINE",
"566 0 LINE",
"344 297 LINE",
"553 540 LINE",
"423 540 LINE",
"195 272 LINE"
);
}
);
width = 569;
}
);
note = kgreenlandic;
unicode = 0138;
},
{
glyphname = Lslash;
lastChange = "2018-06-23 23:44:47 +0000";
layers = (
{
layerId = "5481159F-1A66-431E-9320-A33A99FB249E";
paths = (
{
closed = 1;
nodes = (
"513 100 LINE",
"211 100 LINE",
"211 314 LINE",
"363 404 LINE",
"318 481 LINE",
"211 417 LINE",
"211 714 LINE",
"94 714 LINE",
"94 347 LINE",
"7 295 LINE",
"51 219 LINE",
"94 244 LINE",
"94 0 LINE",
"513 0 LINE"
);
}
);
width = 544;
}
);
note = Lslash;
unicode = 0141;
},
{
glyphname = lslash;
lastChange = "2018-06-23 23:44:47 +0000";
layers = (
{
layerId = "5481159F-1A66-431E-9320-A33A99FB249E";
paths = (
{
closed = 1;
nodes = (
"88 760 LINE",
"88 366 LINE",
"-1 309 LINE",
"43 234 LINE",
"88 262 LINE",
"88 0 LINE",
"203 0 LINE",
"203 334 LINE",
"299 396 LINE",
"253 471 LINE",
"203 438 LINE",
"203 760 LINE"
);
}
);
width = 295;
}
);
note = lslash;
unicode = 0142;
},
{
glyphname = Eng;
lastChange = "2018-06-23 23:44:47 +0000";
layers = (
{
layerId = "5481159F-1A66-431E-9320-A33A99FB249E";
paths = (
{
closed = 1;
nodes = (
"615 -199 OFFCURVE",
"689 -128 OFFCURVE",
"689 3 CURVE SMOOTH",
"689 714 LINE",
"582 714 LINE",
"582 473 LINE SMOOTH",
"582 333 OFFCURVE",
"584 243 OFFCURVE",
"589 203 CURVE",
"586 203 LINE",
"236 714 LINE",
"94 714 LINE",
"94 0 LINE",
"200 0 LINE",
"200 364 LINE SMOOTH",
"200 417 OFFCURVE",
"198 476 OFFCURVE",
"193 539 CURVE SMOOTH",
"191 569 LINE",
"195 569 LINE",
"586 1 LINE",
"583 -62 OFFCURVE",
"546 -98 OFFCURVE",
"477 -98 CURVE SMOOTH",
"449 -98 OFFCURVE",
"423 -95 OFFCURVE",
"399 -88 CURVE",
"399 -187 LINE",
"422 -195 OFFCURVE",
"450 -199 OFFCURVE",
"484 -199 CURVE SMOOTH"
);
}
);
width = 783;
}
);
note = Eng;
unicode = 014A;
},
{
glyphname = eng;
lastChange = "2018-06-23 23:44:47 +0000";
layers = (
{
layerId = "5481159F-1A66-431E-9320-A33A99FB249E";
paths = (
{
closed = 1;
nodes = (
"502 -240 OFFCURVE",
"557 -181 OFFCURVE",
"557 -71 CURVE SMOOTH",
"557 352 LINE SMOOTH",
"557 484 OFFCURVE",
"494 550 OFFCURVE",
"362 550 CURVE SMOOTH",
"288 550 OFFCURVE",
"227 521 OFFCURVE",
"195 469 CURVE",
"188 469 LINE",
"172 540 LINE",
"82 540 LINE",
"82 0 LINE",
"197 0 LINE",
"197 269 LINE SMOOTH",
"197 404 OFFCURVE",
"240 456 OFFCURVE",
"337 456 CURVE SMOOTH",
"409 456 OFFCURVE",
"442 417 OFFCURVE",
"442 338 CURVE SMOOTH",
"442 -63 LINE SMOOTH",
"442 -118 OFFCURVE",
"420 -146 OFFCURVE",
"378 -146 CURVE SMOOTH",
"357 -146 OFFCURVE",
"338 -143 OFFCURVE",
"319 -137 CURVE",
"319 -228 LINE",
"340 -236 OFFCURVE",
"367 -240 OFFCURVE",
"399 -240 CURVE SMOOTH"
);
}
);
width = 635;
}
);
note = eng;
unicode = 014B;
},
{
glyphname = OE;
lastChange = "2018-06-23 23:44:47 +0000";
layers = (
{
anchors = (
{
name = bottom;
position = "{474, 0}";
},
{
name = top;
position = "{474, 714}";
}
);
layerId = "5481159F-1A66-431E-9320-A33A99FB249E";
paths = (
{
closed = 1;
nodes = (
"607 99 LINE",
"607 323 LINE",
"870 323 LINE",
"870 421 LINE",
"607 421 LINE",
"607 615 LINE",
"888 615 LINE",
"888 714 LINE",
"485 714 LINE",
"454 721 OFFCURVE",
"420 725 OFFCURVE",
"383 725 CURVE SMOOTH",
"175 725 OFFCURVE",
"59 593 OFFCURVE",
"59 359 CURVE SMOOTH",
"59 123 OFFCURVE",
"176 -10 OFFCURVE",
"385 -10 CURVE SMOOTH",
"420 -10 OFFCURVE",
"455 -6 OFFCURVE",
"488 0 CURVE",
"888 0 LINE",
"888 99 LINE"
);
},
{
closed = 1;
nodes = (
"430 625 OFFCURVE",
"464 619 OFFCURVE",
"490 607 CURVE",
"490 107 LINE",
"463 96 OFFCURVE",
"428 90 OFFCURVE",
"386 90 CURVE SMOOTH",
"251 90 OFFCURVE",
"181 183 OFFCURVE",
"181 358 CURVE SMOOTH",
"181 533 OFFCURVE",
"252 625 OFFCURVE",
"387 625 CURVE SMOOTH"
);
}
);
width = 948;
}
);
note = OE;
unicode = 0152;
},
{
glyphname = oe;
lastChange = "2018-06-23 23:44:47 +0000";
layers = (
{
anchors = (
{
name = bottom;
position = "{480, 0}";
},
{
name = top;
position = "{480, 540}";
}
);
layerId = "5481159F-1A66-431E-9320-A33A99FB249E";
paths = (
{
closed = 1;
nodes = (
"777 -10 OFFCURVE",
"830 1 OFFCURVE",
"885 27 CURVE",
"885 120 LINE",
"822 92 OFFCURVE",
"771 81 OFFCURVE",
"705 81 CURVE SMOOTH",
"605 81 OFFCURVE",
"559 137 OFFCURVE",
"552 244 CURVE",
"912 244 LINE",
"912 306 LINE SMOOTH",
"912 457 OFFCURVE",
"823 550 OFFCURVE",
"679 550 CURVE SMOOTH",
"599 550 OFFCURVE",
"537 518 OFFCURVE",
"494 455 CURVE",
"451 518 OFFCURVE",
"382 550 OFFCURVE",
"303 550 CURVE SMOOTH",
"144 550 OFFCURVE",
"50 448 OFFCURVE",
"50 271 CURVE SMOOTH",
"50 99 OFFCURVE",
"148 -10 OFFCURVE",
"302 -10 CURVE SMOOTH",
"389 -10 OFFCURVE",
"454 22 OFFCURVE",
"497 85 CURVE",
"542 22 OFFCURVE",
"611 -10 OFFCURVE",
"702 -10 CURVE SMOOTH"
);
},
{
closed = 1;
nodes = (
"168 394 OFFCURVE",
"208 456 OFFCURVE",
"301 456 CURVE SMOOTH",
"395 456 OFFCURVE",
"436 394 OFFCURVE",
"436 269 CURVE SMOOTH",
"436 146 OFFCURVE",
"395 84 OFFCURVE",
"303 84 CURVE SMOOTH",
"208 84 OFFCURVE",
"168 148 OFFCURVE",
"168 271 CURVE SMOOTH"
);
},
{
closed = 1;
nodes = (
"755 463 OFFCURVE",
"798 415 OFFCURVE",
"798 327 CURVE",
"555 327 LINE",
"563 417 OFFCURVE",
"608 463 OFFCURVE",
"680 463 CURVE SMOOTH"
);
}
);
width = 960;
}
);
note = oe;
unicode = 0153;
},
{
glyphname = Tbar;
lastChange = "2018-06-23 23:44:47 +0000";
layers = (
{
layerId = "5481159F-1A66-431E-9320-A33A99FB249E";
paths = (
{
closed = 1;
nodes = (
"477 310 LINE",
"477 406 LINE",
"341 406 LINE",
"341 614 LINE",
"551 614 LINE",
"551 714 LINE",
"14 714 LINE",
"14 614 LINE",
"224 614 LINE",
"224 406 LINE",
"87 406 LINE",
"87 310 LINE",
"224 310 LINE",
"224 0 LINE",
"341 0 LINE",
"341 310 LINE"
);
}
);
width = 566;
}
);
note = Tbar;
unicode = 0166;
},
{
glyphname = tbar;
lastChange = "2018-06-23 23:44:47 +0000";
layers = (
{
layerId = "5481159F-1A66-431E-9320-A33A99FB249E";
paths = (
{
closed = 1;
nodes = (
"233 83 OFFCURVE",
"208 111 OFFCURVE",
"208 168 CURVE SMOOTH",
"208 263 LINE",
"349 263 LINE",
"349 343 LINE",
"208 343 LINE",
"208 453 LINE",
"362 453 LINE",
"362 540 LINE",
"208 540 LINE",
"208 660 LINE",
"137 660 LINE",
"98 546 LINE",
"19 504 LINE",
"19 453 LINE",
"93 453 LINE",
"93 343 LINE",
"27 343 LINE",
"27 263 LINE",
"93 263 LINE",
"93 165 LINE SMOOTH",
"93 48 OFFCURVE",
"145 -10 OFFCURVE",
"256 -10 CURVE SMOOTH",
"298 -10 OFFCURVE",
"342 -1 OFFCURVE",
"367 10 CURVE",
"367 96 LINE",
"337 87 OFFCURVE",
"309 83 OFFCURVE",
"284 83 CURVE SMOOTH"
);
}
);
width = 393;
}
);
note = tbar;
unicode = 0167;
},
{
glyphname = longs;
lastChange = "2018-06-23 23:44:47 +0000";
layers = (
{
anchors = (
{
name = bottom;
position = "{176, 0}";
},
{
name = top;
position = "{176, 540}";
}
);
layerId = "5481159F-1A66-431E-9320-A33A99FB249E";
paths = (
{
closed = 1;
nodes = (
"296 672 OFFCURVE",
"323 667 OFFCURVE",
"353 657 CURVE",
"381 744 LINE",
"346 758 OFFCURVE",
"308 765 OFFCURVE",
"265 765 CURVE SMOOTH",
"139 765 OFFCURVE",
"82 705 OFFCURVE",
"82 581 CURVE SMOOTH",
"82 0 LINE",
"197 0 LINE",
"197 578 LINE SMOOTH",
"197 641 OFFCURVE",
"222 672 OFFCURVE",
"273 672 CURVE SMOOTH"
);
}
);
width = 351;
}
);
note = longs;
unicode = 017F;
},
{
glyphname = florin;
lastChange = "2018-06-23 23:44:47 +0000";
layers = (
{
layerId = "5481159F-1A66-431E-9320-A33A99FB249E";
paths = (
{
closed = 1;
nodes = (
"288 -240 OFFCURVE",
"345 -181 OFFCURVE",
"345 -62 CURVE SMOOTH",
"345 400 LINE",
"468 400 LINE",
"468 488 LINE",
"344 488 LINE",
"344 541 LINE SMOOTH",
"344 604 OFFCURVE",
"363 631 OFFCURVE",
"414 631 CURVE SMOOTH",
"436 631 OFFCURVE",
"460 626 OFFCURVE",
"489 616 CURVE",
"517 702 LINE",
"490 712 OFFCURVE",
"454 724 OFFCURVE",
"403 724 CURVE SMOOTH",
"279 724 OFFCURVE",
"229 667 OFFCURVE",
"229 543 CURVE SMOOTH",
"229 489 LINE",
"134 455 LINE",
"134 400 LINE",
"229 400 LINE",
"229 -52 LINE SMOOTH",
"229 -119 OFFCURVE",
"208 -146 OFFCURVE",
"156 -146 CURVE SMOOTH",
"136 -146 OFFCURVE",
"115 -143 OFFCURVE",
"95 -137 CURVE",
"95 -230 LINE",
"119 -237 OFFCURVE",
"145 -240 OFFCURVE",
"173 -240 CURVE SMOOTH"
);
}
);
width = 574;
}
);
note = florin;
unicode = 0192;
},
{
glyphname = Aringacute;
lastChange = "2018-06-23 23:44:47 +0000";
layers = (
{
layerId = "5481159F-1A66-431E-9320-A33A99FB249E";
paths = (
{
closed = 1;
nodes = (
"447 772 OFFCURVE",
"397 815 OFFCURVE",
"330 815 CURVE SMOOTH",
"260 815 OFFCURVE",
"215 771 OFFCURVE",
"215 705 CURVE SMOOTH",
"215 669 OFFCURVE",
"227 642 OFFCURVE",
"252 623 CURVE",
"0 0 LINE",
"123 0 LINE",
"190 178 LINE",
"470 178 LINE",
"539 0 LINE",
"662 0 LINE",
"410 624 LINE",
"435 644 OFFCURVE",
"447 671 OFFCURVE",
"447 706 CURVE SMOOTH"
);
},
{
closed = 1;
nodes = (
"282 440 OFFCURVE",
"314 527 OFFCURVE",
"319 540 CURVE SMOOTH",
"323 553 OFFCURVE",
"327 566 OFFCURVE",
"331 578 CURVE",
"340 543 OFFCURVE",
"357 494 OFFCURVE",
"384 429 CURVE SMOOTH",
"441 279 LINE",
"222 279 LINE"
);
},
{
closed = 1;
nodes = (
"397 868 OFFCURVE",
"475 926 OFFCURVE",
"495 951 CURVE",
"495 958 LINE",
"362 958 LINE",
"341 923 OFFCURVE",
"296 869 OFFCURVE",
"277 850 CURVE",
"277 841 LINE",
"354 841 LINE"
);
},
{
closed = 1;
nodes = (
"382 672 OFFCURVE",
"361 653 OFFCURVE",
"332 653 CURVE SMOOTH",
"327 653 LINE SMOOTH",
"294 653 OFFCURVE",
"278 672 OFFCURVE",
"278 705 CURVE SMOOTH",
"278 738 OFFCURVE",
"299 757 OFFCURVE",
"330 757 CURVE SMOOTH",
"360 757 OFFCURVE",
"382 738 OFFCURVE",
"382 705 CURVE SMOOTH"
);
}
);
width = 662;
}
);
note = Aringacute;
unicode = 01FA;
},
{
glyphname = aringacute;
lastChange = "2018-06-23 23:44:47 +0000";
layers = (
{
layerId = "5481159F-1A66-431E-9320-A33A99FB249E";
paths = (
{
closed = 1;
nodes = (
"502 364 LINE SMOOTH",
"502 487 OFFCURVE",
"433 550 OFFCURVE",
"294 550 CURVE SMOOTH",
"226 550 OFFCURVE",
"162 534 OFFCURVE",
"99 503 CURVE",
"136 421 LINE",
"192 448 OFFCURVE",
"243 462 OFFCURVE",
"289 462 CURVE SMOOTH",
"355 462 OFFCURVE",
"388 427 OFFCURVE",
"388 359 CURVE SMOOTH",
"388 330 LINE",
"295 327 LINE SMOOTH",
"127 322 OFFCURVE",
"44 265 OFFCURVE",
"44 155 CURVE SMOOTH",
"44 50 OFFCURVE",
"109 -10 OFFCURVE",
"213 -10 CURVE SMOOTH",
"290 -10 OFFCURVE",
"350 19 OFFCURVE",
"393 75 CURVE",
"397 75 LINE",
"420 0 LINE",
"502 0 LINE"
);
},
{
closed = 1;
nodes = (
"192 78 OFFCURVE",
"163 103 OFFCURVE",
"163 154 CURVE SMOOTH",
"163 216 OFFCURVE",
"214 250 OFFCURVE",
"318 255 CURVE SMOOTH",
"387 258 LINE",
"387 211 LINE SMOOTH",
"387 127 OFFCURVE",
"332 78 OFFCURVE",
"249 78 CURVE SMOOTH"
);
},
{
closed = 1;
nodes = (
"392 899 OFFCURVE",
"443 931 OFFCURVE",
"462 952 CURVE",
"462 958 LINE",
"315 958 LINE",
"290 925 OFFCURVE",
"262 894 OFFCURVE",
"230 864 CURVE",
"230 856 LINE",
"309 856 LINE"
);
},
{
closed = 1;
nodes = (
"361 595 OFFCURVE",
"411 636 OFFCURVE",
"411 707 CURVE SMOOTH",
"411 775 OFFCURVE",
"359 816 OFFCURVE",
"294 816 CURVE SMOOTH",
"226 816 OFFCURVE",
"179 774 OFFCURVE",
"179 706 CURVE SMOOTH",
"179 636 OFFCURVE",
"226 595 OFFCURVE",
"294 595 CURVE SMOOTH"
);
},
{
closed = 1;
nodes = (
"329 758 OFFCURVE",
"346 741 OFFCURVE",
"346 706 CURVE SMOOTH",
"346 671 OFFCURVE",
"329 654 OFFCURVE",
"294 654 CURVE SMOOTH",
"259 654 OFFCURVE",
"242 671 OFFCURVE",
"242 706 CURVE SMOOTH",
"242 741 OFFCURVE",
"259 758 OFFCURVE",
"294 758 CURVE SMOOTH"
);
}
);
width = 580;
}
);
note = aringacute;
unicode = 01FB;
},
{
glyphname = circumflex;
lastChange = "2018-06-23 23:44:47 +0000";
layers = (
{
layerId = "5481159F-1A66-431E-9320-A33A99FB249E";
paths = (
{
closed = 1;
nodes = (
"487 618 LINE",
"424 681 OFFCURVE",
"382 730 OFFCURVE",
"362 766 CURVE",
"235 766 LINE",
"214 732 OFFCURVE",
"173 683 OFFCURVE",
"111 618 CURVE",
"111 606 LINE",
"188 606 LINE",
"228 631 OFFCURVE",
"264 660 OFFCURVE",
"298 694 CURVE",
"332 659 OFFCURVE",
"369 630 OFFCURVE",
"409 606 CURVE",
"487 606 LINE"
);
}
);
width = 599;
}
);
note = circumflex;
unicode = 02C6;
},
{
glyphname = caron;
lastChange = "2018-06-23 23:44:47 +0000";
layers = (
{
layerId = "5481159F-1A66-431E-9320-A33A99FB249E";
paths = (
{
closed = 1;
nodes = (
"367 739 OFFCURVE",
"330 709 OFFCURVE",
"298 677 CURVE",
"270 707 OFFCURVE",
"233 737 OFFCURVE",
"188 766 CURVE",
"111 766 LINE",
"111 753 LINE",
"172 689 OFFCURVE",
"214 640 OFFCURVE",
"235 606 CURVE",
"362 606 LINE",
"371 621 OFFCURVE",
"383 639 OFFCURVE",
"400 659 CURVE SMOOTH",
"417 679 OFFCURVE",
"446 710 OFFCURVE",
"487 753 CURVE",
"487 766 LINE",
"409 766 LINE"
);
}
);
width = 599;
}
);
note = caron;
unicode = 02C7;
},
{
glyphname = macron;
lastChange = "2018-06-23 23:44:47 +0000";
layers = (
{
layerId = "5481159F-1A66-431E-9320-A33A99FB249E";
paths = (
{
closed = 1;
nodes = (
"454 606 LINE",
"454 691 LINE",
"142 691 LINE",
"142 606 LINE"
);
}
);
width = 597;
}
);
note = macron;
unicode = 02C9;
},
{
glyphname = breve;
lastChange = "2018-06-23 23:44:47 +0000";
layers = (
{
layerId = "5481159F-1A66-431E-9320-A33A99FB249E";
paths = (
{
closed = 1;
nodes = (
"396 606 OFFCURVE",
"462 662 OFFCURVE",
"470 754 CURVE",
"402 754 LINE",
"397 713 OFFCURVE",
"366 691 OFFCURVE",
"298 691 CURVE SMOOTH",
"271 691 OFFCURVE",
"251 693 OFFCURVE",
"238 697 CURVE SMOOTH",
"211 705 OFFCURVE",
"197 723 OFFCURVE",
"194 754 CURVE",
"127 754 LINE",
"132 660 OFFCURVE",
"194 606 OFFCURVE",
"296 606 CURVE SMOOTH"
);
}
);
width = 599;
}
);
note = breve;
unicode = 02D8;
},
{
glyphname = dotaccent;
lastChange = "2018-06-23 23:44:47 +0000";
layers = (
{
layerId = "5481159F-1A66-431E-9320-A33A99FB249E";
paths = (
{
closed = 1;
nodes = (
"75 644 OFFCURVE",
"99 620 OFFCURVE",
"140 620 CURVE SMOOTH",
"181 620 OFFCURVE",
"204 644 OFFCURVE",
"204 683 CURVE SMOOTH",
"204 724 OFFCURVE",
"181 747 OFFCURVE",
"140 747 CURVE SMOOTH",
"99 747 OFFCURVE",
"75 724 OFFCURVE",
"75 683 CURVE SMOOTH"
);
}
);
width = 279;
}
);
note = dotaccent;
unicode = 02D9;
},
{
glyphname = ring;
lastChange = "2018-06-23 23:44:47 +0000";
layers = (
{
layerId = "5481159F-1A66-431E-9320-A33A99FB249E";
paths = (
{
closed = 1;
nodes = (
"404 782 OFFCURVE",
"355 826 OFFCURVE",
"287 826 CURVE SMOOTH",
"216 826 OFFCURVE",
"172 782 OFFCURVE",
"172 716 CURVE SMOOTH",
"172 649 OFFCURVE",
"217 605 OFFCURVE",
"287 605 CURVE SMOOTH",
"357 605 OFFCURVE",
"404 650 OFFCURVE",
"404 717 CURVE SMOOTH"
);
},
{
closed = 1;
nodes = (
"339 683 OFFCURVE",
"317 664 OFFCURVE",
"287 664 CURVE SMOOTH",
"252 664 OFFCURVE",
"235 681 OFFCURVE",
"235 716 CURVE SMOOTH",
"235 749 OFFCURVE",
"256 768 OFFCURVE",
"287 768 CURVE SMOOTH",
"317 768 OFFCURVE",
"339 749 OFFCURVE",
"339 716 CURVE SMOOTH"
);
}
);
width = 577;
}
);
note = ring;
unicode = 02DA;
},
{
glyphname = ogonek;
lastChange = "2018-06-23 23:44:47 +0000";
layers = (
{
layerId = "5481159F-1A66-431E-9320-A33A99FB249E";
paths = (
{
closed = 1;
nodes = (
"97 -76 OFFCURVE",
"122 -43 OFFCURVE",
"167 0 CURVE",
"94 0 LINE",
"33 -46 OFFCURVE",
"11 -84 OFFCURVE",
"11 -127 CURVE SMOOTH",
"11 -189 OFFCURVE",
"49 -229 OFFCURVE",
"123 -229 CURVE SMOOTH",
"146 -229 OFFCURVE",
"168 -226 OFFCURVE",
"191 -219 CURVE",
"191 -149 LINE",
"171 -154 OFFCURVE",
"154 -157 OFFCURVE",
"140 -157 CURVE SMOOTH",
"111 -157 OFFCURVE",
"97 -143 OFFCURVE",
"97 -114 CURVE SMOOTH"
);
}
);
width = 201;
}
);
note = ogonek;
unicode = 02DB;
},
{
glyphname = tilde;
lastChange = "2018-06-23 23:44:47 +0000";
layers = (
{
layerId = "5481159F-1A66-431E-9320-A33A99FB249E";
paths = (
{
closed = 1;
nodes = (
"447 606 OFFCURVE",
"491 658 OFFCURVE",
"499 745 CURVE",
"438 745 LINE",
"429 708 OFFCURVE",
"412 689 OFFCURVE",
"386 689 CURVE SMOOTH",
"364 689 OFFCURVE",
"340 703 OFFCURVE",
"315 717 CURVE SMOOTH",
"290 730 OFFCURVE",
"263 744 OFFCURVE",
"235 744 CURVE SMOOTH",
"168 744 OFFCURVE",
"123 695 OFFCURVE",
"115 605 CURVE",
"175 605 LINE",
"184 643 OFFCURVE",
"202 661 OFFCURVE",
"228 661 CURVE SMOOTH",
"250 661 OFFCURVE",
"274 647 OFFCURVE",
"300 634 CURVE SMOOTH",
"325 620 OFFCURVE",
"352 606 OFFCURVE",
"379 606 CURVE SMOOTH"
);
}
);
width = 599;
}
);
note = tilde;
unicode = 02DC;
},
{
glyphname = hungarumlaut;
lastChange = "2018-06-23 23:44:47 +0000";
layers = (
{
layerId = "5481159F-1A66-431E-9320-A33A99FB249E";
paths = (
{
closed = 1;
nodes = (
"208 645 OFFCURVE",
"285 724 OFFCURVE",
"304 756 CURVE",
"304 766 LINE",
"185 766 LINE",
"158 714 OFFCURVE",
"128 665 OFFCURVE",
"94 618 CURVE",
"94 606 LINE",
"157 606 LINE"
);
},
{
closed = 1;
nodes = (
"392 645 OFFCURVE",
"469 724 OFFCURVE",
"488 756 CURVE",
"488 766 LINE",
"369 766 LINE",
"349 724 OFFCURVE",
"306 655 OFFCURVE",
"278 618 CURVE",
"278 606 LINE",
"341 606 LINE"
);
}
);
width = 582;
}
);
note = hungarumlaut;
unicode = 02DD;
},
{
glyphname = tonos;
lastChange = "2018-06-23 23:44:47 +0000";
layers = (
{
anchors = (
{
name = _top;
position = "{317, 540}";
}
);
layerId = "5481159F-1A66-431E-9320-A33A99FB249E";
paths = (
{
closed = 1;
nodes = (
"307 606 LINE",
"342 665 OFFCURVE",
"379 743 OFFCURVE",
"395 789 CURVE",
"395 801 LINE",
"281 801 LINE",
"275 752 OFFCURVE",
"256 673 OFFCURVE",
"239 620 CURVE",
"239 606 LINE"
);
}
);
width = 577;
}
);
note = tonos;
unicode = 0384;
},
{
glyphname = dieresistonos;
lastChange = "2018-06-23 23:44:47 +0000";
layers = (
{
anchors = (
{
name = _top;
position = "{288, 540}";
}
);
layerId = "5481159F-1A66-431E-9320-A33A99FB249E";
paths = (
{
closed = 1;
nodes = (
"297 678 LINE",
"337 730 OFFCURVE",
"374 789 OFFCURVE",
"392 828 CURVE",
"392 838 LINE",
"282 838 LINE",
"277 806 OFFCURVE",
"259 737 OFFCURVE",
"244 690 CURVE",
"244 678 LINE"
);
},
{
closed = 1;
nodes = (
"114 645 OFFCURVE",
"136 626 OFFCURVE",
"168 626 CURVE SMOOTH",
"199 626 OFFCURVE",
"222 645 OFFCURVE",
"222 683 CURVE SMOOTH",
"222 720 OFFCURVE",
"201 740 OFFCURVE",
"168 740 CURVE SMOOTH",
"136 740 OFFCURVE",
"114 724 OFFCURVE",
"114 683 CURVE SMOOTH"
);
},
{
closed = 1;
nodes = (
"354 645 OFFCURVE",
"375 626 OFFCURVE",
"408 626 CURVE SMOOTH",
"438 626 OFFCURVE",
"462 645 OFFCURVE",
"462 683 CURVE SMOOTH",
"462 723 OFFCURVE",
"438 740 OFFCURVE",
"408 740 CURVE SMOOTH",
"372 740 OFFCURVE",
"354 721 OFFCURVE",
"354 683 CURVE SMOOTH"
);
}
);
width = 577;
}
);
note = dieresistonos;
unicode = 0385;
},
{
glyphname = anoteleia;
lastChange = "2018-06-23 23:44:47 +0000";
layers = (
{
layerId = "5481159F-1A66-431E-9320-A33A99FB249E";
paths = (
{
closed = 1;
nodes = (
"65 304 OFFCURVE",
"91 278 OFFCURVE",
"137 278 CURVE SMOOTH",
"184 278 OFFCURVE",
"210 305 OFFCURVE",
"210 352 CURVE SMOOTH",
"210 399 OFFCURVE",
"185 427 OFFCURVE",
"137 427 CURVE SMOOTH",
"90 427 OFFCURVE",
"65 401 OFFCURVE",
"65 352 CURVE SMOOTH"
);
}
);
width = 275;
}
);
note = anoteleia;
unicode = 0387;
},
{
glyphname = Gamma;
lastChange = "2018-06-23 23:44:47 +0000";
layers = (
{
layerId = "5481159F-1A66-431E-9320-A33A99FB249E";
paths = (
{
closed = 1;
nodes = (
"94 0 LINE",
"211 0 LINE",
"211 614 LINE",
"518 614 LINE",
"518 714 LINE",
"94 714 LINE"
);
}
);
width = 540;
}
);
note = Gamma;
unicode = 0393;
},
{
glyphname = Theta;
lastChange = "2018-06-23 23:44:47 +0000";
layers = (
{
layerId = "5481159F-1A66-431E-9320-A33A99FB249E";
paths = (
{
closed = 1;
nodes = (
"253 314 LINE",
"534 314 LINE",
"534 412 LINE",
"253 412 LINE"
);
},
{
closed = 1;
nodes = (
"728 591 OFFCURVE",
"607 725 OFFCURVE",
"395 725 CURVE SMOOTH",
"180 725 OFFCURVE",
"59 595 OFFCURVE",
"59 359 CURVE SMOOTH",
"59 123 OFFCURVE",
"179 -10 OFFCURVE",
"394 -10 CURVE SMOOTH",
"607 -10 OFFCURVE",
"728 125 OFFCURVE",
"728 358 CURVE SMOOTH"
);
},
{
closed = 1;
nodes = (
"181 532 OFFCURVE",
"254 625 OFFCURVE",
"395 625 CURVE SMOOTH",
"534 625 OFFCURVE",
"606 534 OFFCURVE",
"606 358 CURVE SMOOTH",
"606 180 OFFCURVE",
"534 90 OFFCURVE",
"394 90 CURVE SMOOTH",
"253 90 OFFCURVE",
"181 183 OFFCURVE",
"181 358 CURVE SMOOTH"
);
}
);
width = 787;
}
);
note = Theta;
unicode = 0398;
},
{
glyphname = Lambda;
lastChange = "2018-06-23 23:44:47 +0000";
layers = (
{
layerId = "5481159F-1A66-431E-9320-A33A99FB249E";
paths = (
{
closed = 1;
nodes = (
"321 558 OFFCURVE",
"337 504 OFFCURVE",
"358 441 CURVE SMOOTH",
"505 0 LINE",
"626 0 LINE",
"375 714 LINE",
"250 714 LINE",
"0 0 LINE",
"121 0 LINE",
"224 309 OFFCURVE",
"278 473 OFFCURVE",
"284 490 CURVE SMOOTH",
"293 524 OFFCURVE",
"306 574 OFFCURVE",
"312 603 CURVE"
);
}
);
width = 626;
}
);
note = Lambda;
unicode = 039B;
},
{
glyphname = Xi;
lastChange = "2018-06-23 23:44:47 +0000";
layers = (
{
layerId = "5481159F-1A66-431E-9320-A33A99FB249E";
paths = (
{
closed = 1;
nodes = (
"464 323 LINE",
"464 421 LINE",
"97 421 LINE",
"97 323 LINE"
);
},
{
closed = 1;
nodes = (
"504 615 LINE",
"504 714 LINE",
"57 714 LINE",
"57 615 LINE"
);
},
{
closed = 1;
nodes = (
"37 0 LINE",
"524 0 LINE",
"524 99 LINE",
"37 99 LINE"
);
}
);
width = 562;
}
);
note = Xi;
unicode = 039E;
},
{
glyphname = Pi;
lastChange = "2018-06-23 23:44:47 +0000";
layers = (
{
layerId = "5481159F-1A66-431E-9320-A33A99FB249E";
paths = (
{
closed = 1;
nodes = (
"94 714 LINE",
"94 0 LINE",
"211 0 LINE",
"211 614 LINE",
"526 614 LINE",
"526 0 LINE",
"643 0 LINE",
"643 714 LINE"
);
}
);
width = 737;
}
);
note = Pi;
unicode = 03A0;
},
{
glyphname = Sigma;
lastChange = "2018-06-23 23:44:47 +0000";
layers = (
{
layerId = "5481159F-1A66-431E-9320-A33A99FB249E";
paths = (
{
closed = 1;
nodes = (
"552 99 LINE",
"314 99 LINE",
"161 96 LINE",
"395 374 LINE",
"172 617 LINE",
"277 614 LINE",
"523 614 LINE",
"523 714 LINE",
"43 714 LINE",
"43 621 LINE",
"269 373 LINE",
"37 94 LINE",
"37 0 LINE",
"552 0 LINE"
);
}
);
width = 580;
}
);
note = Sigma;
unicode = 03A3;
},
{
glyphname = Phi;
lastChange = "2018-06-23 23:44:47 +0000";
layers = (
{
layerId = "5481159F-1A66-431E-9320-A33A99FB249E";
paths = (
{
closed = 1;
nodes = (
"493 541 LINE SMOOTH",
"601 541 OFFCURVE",
"666 475 OFFCURVE",
"666 371 CURVE SMOOTH",
"666 259 OFFCURVE",
"596 193 OFFCURVE",
"479 193 CURVE SMOOTH",
"469 193 LINE",
"469 541 LINE"
);
},
{
closed = 1;
nodes = (
"469 100 LINE",
"485 100 LINE SMOOTH",
"544 100 OFFCURVE",
"595 111 OFFCURVE",
"639 132 CURVE SMOOTH",
"727 174 OFFCURVE",
"780 264 OFFCURVE",
"780 370 CURVE SMOOTH",
"780 421 OFFCURVE",
"769 467 OFFCURVE",
"747 508 CURVE SMOOTH",
"702 588 OFFCURVE",
"614 636 OFFCURVE",
"499 636 CURVE SMOOTH",
"469 636 LINE",
"469 724 LINE",
"359 724 LINE",
"359 636 LINE",
"330 636 LINE SMOOTH",
"273 636 OFFCURVE",
"223 625 OFFCURVE",
"180 602 CURVE SMOOTH",
"95 556 OFFCURVE",
"48 471 OFFCURVE",
"48 370 CURVE SMOOTH",
"48 318 OFFCURVE",
"61 271 OFFCURVE",
"85 228 CURVE SMOOTH",
"136 143 OFFCURVE",
"226 100 OFFCURVE",
"343 100 CURVE SMOOTH",
"359 100 LINE",
"359 -10 LINE",
"469 -10 LINE"
);
},
{
closed = 1;
nodes = (
"350 193 LINE SMOOTH",
"231 193 OFFCURVE",
"162 260 OFFCURVE",
"162 371 CURVE SMOOTH",
"162 475 OFFCURVE",
"227 541 OFFCURVE",
"335 541 CURVE SMOOTH",
"359 541 LINE",
"359 193 LINE"
);
}
);
width = 829;
}
);
note = Phi;
unicode = 03A6;
},
{
glyphname = Psi;
lastChange = "2018-06-23 23:44:47 +0000";
layers = (
{
layerId = "5481159F-1A66-431E-9320-A33A99FB249E";
paths = (
{
closed = 1;
nodes = (
"669 714 LINE",
"669 478 LINE SMOOTH",
"669 368 OFFCURVE",
"605 312 OFFCURVE",
"487 312 CURVE SMOOTH",
"472 312 LINE",
"472 714 LINE",
"363 714 LINE",
"363 312 LINE",
"349 312 LINE SMOOTH",
"224 312 OFFCURVE",
"166 365 OFFCURVE",
"166 480 CURVE SMOOTH",
"166 714 LINE",
"53 714 LINE",
"53 478 LINE SMOOTH",
"53 305 OFFCURVE",
"155 215 OFFCURVE",
"339 215 CURVE SMOOTH",
"363 215 LINE",
"363 0 LINE",
"472 0 LINE",
"472 215 LINE",
"496 215 LINE SMOOTH",
"683 215 OFFCURVE",
"783 308 OFFCURVE",
"783 479 CURVE SMOOTH",
"783 714 LINE"
);
}
);
width = 836;
}
);
note = Psi;
unicode = 03A8;
},
{
glyphname = uni03A9;
lastChange = "2018-06-23 23:44:47 +0000";
layers = (
{
anchors = (
{
name = bottom;
position = "{392, 0}";
},
{
name = topleft;
position = "{10, 714}";
}
);
layerId = "5481159F-1A66-431E-9320-A33A99FB249E";
paths = (
{
closed = 1;
nodes = (
"529 625 OFFCURVE",
"603 546 OFFCURVE",
"603 398 CURVE SMOOTH",
"603 259 OFFCURVE",
"554 165 OFFCURVE",
"451 100 CURVE",
"451 0 LINE",
"751 0 LINE",
"751 100 LINE",
"571 100 LINE",
"670 169 OFFCURVE",
"725 282 OFFCURVE",
"725 414 CURVE SMOOTH",
"725 606 OFFCURVE",
"599 725 OFFCURVE",
"392 725 CURVE SMOOTH",
"185 725 OFFCURVE",
"59 604 OFFCURVE",
"59 414 CURVE SMOOTH",
"59 284 OFFCURVE",
"113 170 OFFCURVE",
"212 100 CURVE",
"33 100 LINE",
"33 0 LINE",
"332 0 LINE",
"332 100 LINE",
"227 169 OFFCURVE",
"181 262 OFFCURVE",
"181 398 CURVE SMOOTH",
"181 545 OFFCURVE",
"254 625 OFFCURVE",
"392 625 CURVE SMOOTH"
);
}
);
width = 784;
}
);
note = uni03A9;
unicode = 03A9;
},
{
glyphname = alpha;
lastChange = "2018-06-23 23:44:47 +0000";
layers = (
{
anchors = (
{
name = top;
position = "{314, 540}";
}
);
layerId = "5481159F-1A66-431E-9320-A33A99FB249E";
paths = (
{
closed = 1;
nodes = (
"208 83 OFFCURVE",
"168 144 OFFCURVE",
"168 267 CURVE SMOOTH",
"168 393 OFFCURVE",
"210 456 OFFCURVE",
"295 456 CURVE SMOOTH",
"388 456 OFFCURVE",
"430 403 OFFCURVE",
"430 269 CURVE SMOOTH",
"430 263 LINE SMOOTH",
"429 133 OFFCURVE",
"391 83 OFFCURVE",
"296 83 CURVE SMOOTH"
);
},
{
closed = 1;
nodes = (
"340 -10 OFFCURVE",
"395 18 OFFCURVE",
"432 72 CURVE",
"440 72 LINE",
"457 14 OFFCURVE",
"488 -10 OFFCURVE",
"550 -10 CURVE SMOOTH",
"569 -10 OFFCURVE",
"601 -3 OFFCURVE",
"611 3 CURVE",
"611 90 LINE",
"601 86 OFFCURVE",
"591 85 OFFCURVE",
"581 85 CURVE SMOOTH",
"555 85 OFFCURVE",
"540 105 OFFCURVE",
"540 142 CURVE SMOOTH",
"540 325 LINE SMOOTH",
"540 391 OFFCURVE",
"552 487 OFFCURVE",
"570 540 CURVE",
"477 540 LINE",
"464 523 OFFCURVE",
"453 500 OFFCURVE",
"444 468 CURVE",
"438 468 LINE",
"403 522 OFFCURVE",
"355 550 OFFCURVE",
"277 550 CURVE SMOOTH",
"134 550 OFFCURVE",
"50 448 OFFCURVE",
"50 268 CURVE SMOOTH",
"50 93 OFFCURVE",
"131 -10 OFFCURVE",
"268 -10 CURVE SMOOTH"
);
}
);
width = 629;
}
);
note = alpha;
unicode = 03B1;
},
{
glyphname = beta;
lastChange = "2018-06-23 23:44:47 +0000";
layers = (
{
layerId = "5481159F-1A66-431E-9320-A33A99FB249E";
paths = (
{
closed = 1;
nodes = (
"173 765 OFFCURVE",
"82 682 OFFCURVE",
"82 535 CURVE SMOOTH",
"82 -240 LINE",
"197 -240 LINE",
"197 22 LINE",
"240 1 OFFCURVE",
"294 -10 OFFCURVE",
"361 -10 CURVE SMOOTH",
"512 -10 OFFCURVE",
"603 68 OFFCURVE",
"603 206 CURVE SMOOTH",
"603 322 OFFCURVE",
"542 388 OFFCURVE",
"420 402 CURVE",
"420 405 LINE",
"519 422 OFFCURVE",
"568 478 OFFCURVE",
"568 573 CURVE SMOOTH",
"568 694 OFFCURVE",
"477 765 OFFCURVE",
"330 765 CURVE SMOOTH"
);
},
{
closed = 1;
nodes = (
"406 673 OFFCURVE",
"452 634 OFFCURVE",
"452 563 CURVE SMOOTH",
"452 485 OFFCURVE",
"407 442 OFFCURVE",
"323 442 CURVE SMOOTH",
"288 442 LINE",
"288 349 LINE",
"333 349 LINE SMOOTH",
"432 349 OFFCURVE",
"486 301 OFFCURVE",
"486 215 CURVE SMOOTH",
"486 127 OFFCURVE",
"437 83 OFFCURVE",
"340 83 CURVE SMOOTH",
"290 83 OFFCURVE",
"242 96 OFFCURVE",
"197 121 CURVE",
"197 526 LINE SMOOTH",
"197 624 OFFCURVE",
"241 673 OFFCURVE",
"328 673 CURVE SMOOTH"
);
}
);
width = 644;
}
);
note = beta;
unicode = 03B2;
},
{
glyphname = gamma;
lastChange = "2018-06-23 23:44:47 +0000";
layers = (
{
layerId = "5481159F-1A66-431E-9320-A33A99FB249E";
paths = (
{
closed = 1;
nodes = (
"289 -167 OFFCURVE",
"310 -60 OFFCURVE",
"337 11 CURVE SMOOTH",
"537 540 LINE",
"418 540 LINE",
"350 348 OFFCURVE",
"313 241 OFFCURVE",
"306 220 CURVE SMOOTH",
"292 176 OFFCURVE",
"280 125 OFFCURVE",
"276 103 CURVE",
"273 103 LINE",
"267 140 OFFCURVE",
"239 229 OFFCURVE",
"221 277 CURVE SMOOTH",
"122 540 LINE",
"3 540 LINE",
"216 6 LINE",
"186 -80 OFFCURVE",
"166 -184 OFFCURVE",
"166 -240 CURVE",
"289 -240 LINE"
);
}
);
width = 540;
}
);
note = gamma;
unicode = 03B3;
},
{
glyphname = delta;
lastChange = "2018-06-23 23:44:47 +0000";
layers = (
{
layerId = "5481159F-1A66-431E-9320-A33A99FB249E";
paths = (
{
closed = 1;
nodes = (
"117 413 OFFCURVE",
"50 330 OFFCURVE",
"50 214 CURVE SMOOTH",
"50 77 OFFCURVE",
"149 -10 OFFCURVE",
"303 -10 CURVE SMOOTH",
"467 -10 OFFCURVE",
"560 82 OFFCURVE",
"560 242 CURVE SMOOTH",
"560 347 OFFCURVE",
"508 421 OFFCURVE",
"379 491 CURVE SMOOTH",
"327 518 OFFCURVE",
"292 541 OFFCURVE",
"272 558 CURVE SMOOTH",
"253 576 OFFCURVE",
"244 594 OFFCURVE",
"244 613 CURVE SMOOTH",
"244 649 OFFCURVE",
"274 673 OFFCURVE",
"325 673 CURVE SMOOTH",
"388 673 OFFCURVE",
"442 651 OFFCURVE",
"497 623 CURVE",
"544 708 LINE",
"452 751 OFFCURVE",
"397 762 OFFCURVE",
"329 762 CURVE SMOOTH",
"207 762 OFFCURVE",
"131 708 OFFCURVE",
"131 618 CURVE SMOOTH",
"131 554 OFFCURVE",
"171 499 OFFCURVE",
"251 452 CURVE"
);
},
{
closed = 1;
nodes = (
"442 138 OFFCURVE",
"393 84 OFFCURVE",
"303 84 CURVE SMOOTH",
"220 84 OFFCURVE",
"169 137 OFFCURVE",
"169 216 CURVE SMOOTH",
"169 309 OFFCURVE",
"223 376 OFFCURVE",
"329 404 CURVE",
"407 363 OFFCURVE",
"442 311 OFFCURVE",
"442 237 CURVE SMOOTH"
);
}
);
width = 599;
}
);
note = delta;
unicode = 03B4;
},
{
glyphname = epsilon;
lastChange = "2018-06-23 23:44:47 +0000";
layers = (
{
anchors = (
{
name = top;
position = "{258, 540}";
}
);
layerId = "5481159F-1A66-431E-9320-A33A99FB249E";
paths = (
{
closed = 1;
nodes = (
"216 324 OFFCURVE",
"170 347 OFFCURVE",
"170 396 CURVE SMOOTH",
"170 439 OFFCURVE",
"208 461 OFFCURVE",
"285 461 CURVE SMOOTH",
"332 461 OFFCURVE",
"369 455 OFFCURVE",
"441 424 CURVE",
"479 511 LINE",
"421 537 OFFCURVE",
"356 550 OFFCURVE",
"284 550 CURVE SMOOTH",
"149 550 OFFCURVE",
"64 497 OFFCURVE",
"64 408 CURVE SMOOTH",
"64 343 OFFCURVE",
"98 302 OFFCURVE",
"166 284 CURVE",
"166 279 LINE",
"80 258 OFFCURVE",
"41 216 OFFCURVE",
"41 148 CURVE SMOOTH",
"41 48 OFFCURVE",
"126 -10 OFFCURVE",
"284 -10 CURVE SMOOTH",
"364 -10 OFFCURVE",
"429 2 OFFCURVE",
"478 27 CURVE",
"478 123 LINE",
"417 95 OFFCURVE",
"355 81 OFFCURVE",
"292 81 CURVE SMOOTH",
"201 81 OFFCURVE",
"155 106 OFFCURVE",
"155 157 CURVE SMOOTH",
"155 210 OFFCURVE",
"200 238 OFFCURVE",
"302 238 CURVE SMOOTH",
"379 238 LINE",
"379 324 LINE",
"315 324 LINE SMOOTH"
);
}
);
width = 515;
}
);
note = epsilon;
unicode = 03B5;
},
{
glyphname = zeta;
lastChange = "2018-06-23 23:44:47 +0000";
layers = (
{
layerId = "5481159F-1A66-431E-9320-A33A99FB249E";
paths = (
{
closed = 1;
nodes = (
"473 32 OFFCURVE",
"427 68 OFFCURVE",
"324 89 CURVE SMOOTH",
"277 98 OFFCURVE",
"244 108 OFFCURVE",
"225 119 CURVE SMOOTH",
"187 140 OFFCURVE",
"169 173 OFFCURVE",
"169 232 CURVE SMOOTH",
"169 282 OFFCURVE",
"180 331 OFFCURVE",
"202 376 CURVE SMOOTH",
"245 468 OFFCURVE",
"333 568 OFFCURVE",
"471 684 CURVE",
"471 760 LINE",
"79 760 LINE",
"79 671 LINE",
"209 671 LINE SMOOTH",
"281 671 OFFCURVE",
"325 673 OFFCURVE",
"339 677 CURVE",
"256 604 OFFCURVE",
"196 546 OFFCURVE",
"161 502 CURVE SMOOTH",
"88 414 OFFCURVE",
"50 326 OFFCURVE",
"50 226 CURVE SMOOTH",
"50 101 OFFCURVE",
"114 29 OFFCURVE",
"253 4 CURVE SMOOTH",
"279 0 OFFCURVE",
"300 -5 OFFCURVE",
"316 -11 CURVE SMOOTH",
"347 -21 OFFCURVE",
"359 -32 OFFCURVE",
"359 -53 CURVE SMOOTH",
"359 -85 OFFCURVE",
"332 -140 OFFCURVE",
"293 -190 CURVE",
"408 -190 LINE",
"452 -130 OFFCURVE",
"473 -77 OFFCURVE",
"473 -30 CURVE SMOOTH"
);
}
);
width = 490;
}
);
note = zeta;
unicode = 03B6;
},
{
glyphname = eta;
lastChange = "2018-06-23 23:44:47 +0000";
layers = (
{
anchors = (
{
name = top;
position = "{317, 540}";
}
);
layerId = "5481159F-1A66-431E-9320-A33A99FB249E";
paths = (
{
closed = 1;
nodes = (
"557 484 OFFCURVE",
"492 550 OFFCURVE",
"363 550 CURVE SMOOTH",
"290 550 OFFCURVE",
"227 521 OFFCURVE",
"194 469 CURVE",
"188 469 LINE",
"172 540 LINE",
"82 540 LINE",
"82 0 LINE",
"197 0 LINE",
"197 269 LINE SMOOTH",
"197 400 OFFCURVE",
"238 456 OFFCURVE",
"334 456 CURVE SMOOTH",
"408 456 OFFCURVE",
"442 418 OFFCURVE",
"442 332 CURVE SMOOTH",
"442 -240 LINE",
"557 -240 LINE",
"557 352 LINE SMOOTH"
);
}
);
width = 635;
}
);
note = eta;
unicode = 03B7;
},
{
glyphname = theta;
lastChange = "2018-06-23 23:44:47 +0000";
layers = (
{
layerId = "5481159F-1A66-431E-9320-A33A99FB249E";
paths = (
{
closed = 1;
nodes = (
"554 637 OFFCURVE",
"467 771 OFFCURVE",
"301 771 CURVE SMOOTH",
"133 771 OFFCURVE",
"50 645 OFFCURVE",
"50 381 CURVE SMOOTH",
"50 125 OFFCURVE",
"137 -10 OFFCURVE",
"301 -10 CURVE SMOOTH",
"472 -10 OFFCURVE",
"554 117 OFFCURVE",
"554 381 CURVE SMOOTH"
);
},
{
closed = 1;
nodes = (
"211 78 OFFCURVE",
"169 160 OFFCURVE",
"167 342 CURVE",
"437 342 LINE",
"433 165 OFFCURVE",
"393 78 OFFCURVE",
"301 78 CURVE SMOOTH"
);
},
{
closed = 1;
nodes = (
"391 683 OFFCURVE",
"430 598 OFFCURVE",
"436 432 CURVE",
"168 432 LINE",
"174 598 OFFCURVE",
"212 683 OFFCURVE",
"302 683 CURVE SMOOTH"
);
}
);
width = 605;
}
);
note = theta;
unicode = 03B8;
},
{
glyphname = iota;
lastChange = "2018-06-23 23:44:47 +0000";
layers = (
{
anchors = (
{
name = top;
position = "{187, 540}";
}
);
layerId = "5481159F-1A66-431E-9320-A33A99FB249E";
paths = (
{
closed = 1;
nodes = (
"80 163 LINE SMOOTH",
"80 47 OFFCURVE",
"131 -10 OFFCURVE",
"244 -10 CURVE SMOOTH",
"287 -10 OFFCURVE",
"330 -1 OFFCURVE",
"354 10 CURVE",
"354 96 LINE",
"324 87 OFFCURVE",
"295 83 OFFCURVE",
"266 83 CURVE SMOOTH",
"219 83 OFFCURVE",
"195 110 OFFCURVE",
"195 164 CURVE SMOOTH",
"195 540 LINE",
"80 540 LINE"
);
}
);
width = 373;
}
);
note = iota;
unicode = 03B9;
},
{
glyphname = lambda;
lastChange = "2018-06-23 23:44:47 +0000";
layers = (
{
layerId = "5481159F-1A66-431E-9320-A33A99FB249E";
paths = (
{
closed = 1;
nodes = (
"230 261 LINE SMOOTH",
"250 308 OFFCURVE",
"266 353 OFFCURVE",
"277 397 CURVE",
"280 397 LINE",
"283 383 OFFCURVE",
"290 360 OFFCURVE",
"300 327 CURVE SMOOTH",
"311 294 OFFCURVE",
"340 213 OFFCURVE",
"386 84 CURVE SMOOTH",
"410 16 OFFCURVE",
"443 -10 OFFCURVE",
"502 -10 CURVE SMOOTH",
"525 -10 OFFCURVE",
"555 -5 OFFCURVE",
"572 3 CURVE",
"572 90 LINE",
"557 86 OFFCURVE",
"546 85 OFFCURVE",
"540 85 CURVE SMOOTH",
"513 85 OFFCURVE",
"495 108 OFFCURVE",
"476 159 CURVE SMOOTH",
"319 595 LINE SMOOTH",
"301 643 OFFCURVE",
"284 678 OFFCURVE",
"268 701 CURVE SMOOTH",
"235 746 OFFCURVE",
"191 766 OFFCURVE",
"124 766 CURVE SMOOTH",
"97 766 OFFCURVE",
"73 763 OFFCURVE",
"51 758 CURVE",
"51 664 LINE",
"68 668 OFFCURVE",
"86 670 OFFCURVE",
"104 670 CURVE SMOOTH",
"157 670 OFFCURVE",
"183 647 OFFCURVE",
"207 583 CURVE SMOOTH",
"229 521 LINE",
"-2 0 LINE",
"117 0 LINE"
);
}
);
width = 574;
}
);
note = lambda;
unicode = 03BB;
},
{
glyphname = nu;
lastChange = "2018-06-23 23:44:47 +0000";
layers = (
{
layerId = "5481159F-1A66-431E-9320-A33A99FB249E";
paths = (
{
closed = 1;
nodes = (
"316 0 LINE",
"466 152 OFFCURVE",
"528 302 OFFCURVE",
"528 540 CURVE",
"413 540 LINE",
"413 334 OFFCURVE",
"375 209 OFFCURVE",
"278 100 CURVE",
"274 100 LINE",
"252 170 OFFCURVE",
"236 218 OFFCURVE",
"226 245 CURVE SMOOTH",
"120 540 LINE",
"1 540 LINE",
"203 0 LINE"
);
}
);
width = 568;
}
);
note = nu;
unicode = 03BD;
},
{
glyphname = xi;
lastChange = "2018-06-23 23:44:47 +0000";
layers = (
{
layerId = "5481159F-1A66-431E-9320-A33A99FB249E";
paths = (
{
closed = 1;
nodes = (
"50 96 OFFCURVE",
"118 27 OFFCURVE",
"255 4 CURVE SMOOTH",
"292 -2 OFFCURVE",
"319 -9 OFFCURVE",
"336 -18 CURVE SMOOTH",
"354 -26 OFFCURVE",
"362 -38 OFFCURVE",
"362 -52 CURVE SMOOTH",
"362 -85 OFFCURVE",
"334 -139 OFFCURVE",
"297 -190 CURVE",
"410 -190 LINE",
"452 -130 OFFCURVE",
"473 -76 OFFCURVE",
"473 -30 CURVE SMOOTH",
"473 29 OFFCURVE",
"431 66 OFFCURVE",
"326 89 CURVE SMOOTH",
"274 100 OFFCURVE",
"239 110 OFFCURVE",
"222 119 CURVE SMOOTH",
"187 138 OFFCURVE",
"169 167 OFFCURVE",
"169 218 CURVE SMOOTH",
"169 306 OFFCURVE",
"233 356 OFFCURVE",
"344 356 CURVE SMOOTH",
"428 356 LINE",
"428 439 LINE",
"346 439 LINE SMOOTH",
"242 439 OFFCURVE",
"195 468 OFFCURVE",
"195 536 CURVE SMOOTH",
"195 620 OFFCURVE",
"287 676 OFFCURVE",
"415 676 CURVE SMOOTH",
"446 676 LINE",
"446 760 LINE",
"79 760 LINE",
"79 671 LINE",
"101 671 LINE SMOOTH",
"123 671 OFFCURVE",
"165 673 OFFCURVE",
"227 677 CURVE",
"126 649 OFFCURVE",
"82 604 OFFCURVE",
"82 531 CURVE SMOOTH",
"82 463 OFFCURVE",
"118 419 OFFCURVE",
"189 400 CURVE",
"189 395 LINE",
"101 364 OFFCURVE",
"50 295 OFFCURVE",
"50 209 CURVE SMOOTH"
);
}
);
width = 486;
}
);
note = xi;
unicode = 03BE;
},
{
glyphname = pi;
lastChange = "2018-06-23 23:44:47 +0000";
layers = (
{
layerId = "5481159F-1A66-431E-9320-A33A99FB249E";
paths = (
{
closed = 1;
nodes = (
"567 82 OFFCURVE",
"552 101 OFFCURVE",
"552 138 CURVE SMOOTH",
"552 449 LINE",
"661 449 LINE",
"661 540 LINE",
"90 540 LINE",
"12 499 LINE",
"12 449 LINE",
"123 449 LINE",
"123 0 LINE",
"238 0 LINE",
"238 449 LINE",
"437 449 LINE",
"437 132 LINE SMOOTH",
"437 38 OFFCURVE",
"479 -10 OFFCURVE",
"565 -10 CURVE SMOOTH",
"602 -10 OFFCURVE",
"634 -1 OFFCURVE",
"650 9 CURVE",
"650 95 LINE",
"633 86 OFFCURVE",
"616 82 OFFCURVE",
"598 82 CURVE SMOOTH"
);
}
);
width = 694;
}
);
note = pi;
unicode = 03C0;
},
{
glyphname = rho;
lastChange = "2018-06-23 23:44:47 +0000";
layers = (
{
layerId = "5481159F-1A66-431E-9320-A33A99FB249E";
paths = (
{
closed = 1;
nodes = (
"560 442 OFFCURVE",
"466 550 OFFCURVE",
"318 550 CURVE SMOOTH",
"160 550 OFFCURVE",
"70 450 OFFCURVE",
"70 274 CURVE SMOOTH",
"70 -240 LINE",
"186 -240 LINE",
"186 -100 LINE SMOOTH",
"186 -51 OFFCURVE",
"184 -7 OFFCURVE",
"180 32 CURVE",
"186 32 LINE",
"227 4 OFFCURVE",
"274 -10 OFFCURVE",
"328 -10 CURVE SMOOTH",
"475 -10 OFFCURVE",
"560 92 OFFCURVE",
"560 270 CURVE SMOOTH"
);
},
{
closed = 1;
nodes = (
"405 456 OFFCURVE",
"442 397 OFFCURVE",
"442 270 CURVE SMOOTH",
"442 143 OFFCURVE",
"404 84 OFFCURVE",
"314 84 CURVE SMOOTH",
"263 84 OFFCURVE",
"220 99 OFFCURVE",
"186 130 CURVE",
"186 277 LINE SMOOTH",
"186 398 OFFCURVE",
"228 456 OFFCURVE",
"315 456 CURVE SMOOTH"
);
}
);
width = 611;
}
);
note = rho;
unicode = 03C1;
},
{
glyphname = sigma1;
lastChange = "2018-06-23 23:44:47 +0000";
layers = (
{
layerId = "5481159F-1A66-431E-9320-A33A99FB249E";
paths = (
{
closed = 1;
nodes = (
"168 383 OFFCURVE",
"210 454 OFFCURVE",
"311 454 CURVE SMOOTH",
"348 454 OFFCURVE",
"391 445 OFFCURVE",
"438 426 CURVE",
"473 517 LINE",
"425 539 OFFCURVE",
"373 550 OFFCURVE",
"315 550 CURVE SMOOTH",
"141 550 OFFCURVE",
"50 448 OFFCURVE",
"50 247 CURVE SMOOTH",
"50 116 OFFCURVE",
"116 37 OFFCURVE",
"255 10 CURVE SMOOTH",
"295 2 OFFCURVE",
"323 -6 OFFCURVE",
"338 -14 CURVE SMOOTH",
"354 -22 OFFCURVE",
"362 -34 OFFCURVE",
"362 -49 CURVE SMOOTH",
"362 -80 OFFCURVE",
"338 -132 OFFCURVE",
"297 -191 CURVE",
"410 -191 LINE",
"452 -129 OFFCURVE",
"473 -74 OFFCURVE",
"473 -27 CURVE SMOOTH",
"473 34 OFFCURVE",
"432 71 OFFCURVE",
"326 95 CURVE SMOOTH",
"279 104 OFFCURVE",
"246 115 OFFCURVE",
"225 127 CURVE SMOOTH",
"184 150 OFFCURVE",
"168 185 OFFCURVE",
"168 250 CURVE SMOOTH"
);
}
);
width = 490;
}
);
note = sigma1;
unicode = 03C2;
},
{
glyphname = sigma;
lastChange = "2018-06-23 23:44:47 +0000";
layers = (
{
layerId = "5481159F-1A66-431E-9320-A33A99FB249E";
paths = (
{
closed = 1;
nodes = (
"564 321 OFFCURVE",
"535 392 OFFCURVE",
"477 451 CURVE",
"611 451 LINE",
"611 540 LINE",
"349 540 LINE SMOOTH",
"149 540 OFFCURVE",
"50 447 OFFCURVE",
"50 260 CURVE SMOOTH",
"50 90 OFFCURVE",
"146 -10 OFFCURVE",
"306 -10 CURVE SMOOTH",
"359 -10 OFFCURVE",
"405 0 OFFCURVE",
"443 21 CURVE SMOOTH",
"521 62 OFFCURVE",
"564 141 OFFCURVE",
"564 240 CURVE SMOOTH"
);
},
{
closed = 1;
nodes = (
"169 394 OFFCURVE",
"218 451 OFFCURVE",
"344 451 CURVE SMOOTH",
"372 451 LINE",
"421 396 OFFCURVE",
"446 328 OFFCURVE",
"446 249 CURVE SMOOTH",
"446 142 OFFCURVE",
"396 84 OFFCURVE",
"308 84 CURVE SMOOTH",
"218 84 OFFCURVE",
"169 146 OFFCURVE",
"169 260 CURVE SMOOTH"
);
}
);
width = 633;
}
);
note = sigma;
unicode = 03C3;
},
{
glyphname = tau;
lastChange = "2018-06-23 23:44:47 +0000";
layers = (
{
layerId = "5481159F-1A66-431E-9320-A33A99FB249E";
paths = (
{
closed = 1;
nodes = (
"473 540 LINE",
"93 540 LINE",
"14 499 LINE",
"14 450 LINE",
"155 450 LINE",
"155 162 LINE SMOOTH",
"155 47 OFFCURVE",
"210 -11 OFFCURVE",
"331 -11 CURVE SMOOTH",
"372 -11 OFFCURVE",
"409 -4 OFFCURVE",
"442 9 CURVE",
"442 95 LINE",
"412 86 OFFCURVE",
"382 82 OFFCURVE",
"353 82 CURVE SMOOTH",
"298 82 OFFCURVE",
"271 110 OFFCURVE",
"271 167 CURVE SMOOTH",
"271 450 LINE",
"473 450 LINE"
);
}
);
width = 505;
}
);
note = tau;
unicode = 03C4;
},
{
glyphname = upsilon;
lastChange = "2018-06-23 23:44:47 +0000";
layers = (
{
anchors = (
{
name = top;
position = "{313, 540}";
}
);
layerId = "5481159F-1A66-431E-9320-A33A99FB249E";
paths = (
{
closed = 1;
nodes = (
"489 -10 OFFCURVE",
"573 90 OFFCURVE",
"573 294 CURVE SMOOTH",
"573 373 OFFCURVE",
"566 441 OFFCURVE",
"541 540 CURVE",
"425 540 LINE",
"451 431 OFFCURVE",
"458 369 OFFCURVE",
"458 298 CURVE SMOOTH",
"458 150 OFFCURVE",
"415 83 OFFCURVE",
"319 83 CURVE SMOOTH",
"229 83 OFFCURVE",
"190 139 OFFCURVE",
"190 245 CURVE SMOOTH",
"190 540 LINE",
"75 540 LINE",
"75 245 LINE SMOOTH",
"75 71 OFFCURVE",
"155 -10 OFFCURVE",
"313 -10 CURVE SMOOTH"
);
}
);
width = 627;
}
);
note = upsilon;
unicode = 03C5;
},
{
glyphname = phi;
lastChange = "2018-06-23 23:44:47 +0000";
layers = (
{
layerId = "5481159F-1A66-431E-9320-A33A99FB249E";
paths = (
{
closed = 1;
nodes = (
"424 -8 LINE",
"480 -4 OFFCURVE",
"529 10 OFFCURVE",
"572 35 CURVE SMOOTH",
"656 84 OFFCURVE",
"704 171 OFFCURVE",
"704 284 CURVE SMOOTH",
"704 448 OFFCURVE",
"620 549 OFFCURVE",
"490 549 CURVE SMOOTH",
"382 549 OFFCURVE",
"315 481 OFFCURVE",
"315 360 CURVE SMOOTH",
"315 82 LINE",
"212 96 OFFCURVE",
"161 158 OFFCURVE",
"161 268 CURVE SMOOTH",
"161 346 OFFCURVE",
"183 412 OFFCURVE",
"243 491 CURVE",
"157 548 LINE",
"85 461 OFFCURVE",
"50 369 OFFCURVE",
"50 271 CURVE SMOOTH",
"50 104 OFFCURVE",
"140 6 OFFCURVE",
"315 -8 CURVE",
"315 -240 LINE",
"424 -240 LINE"
);
},
{
closed = 1;
nodes = (
"591 167 OFFCURVE",
"527 92 OFFCURVE",
"424 82 CURVE",
"424 361 LINE SMOOTH",
"424 428 OFFCURVE",
"446 461 OFFCURVE",
"491 461 CURVE SMOOTH",
"553 461 OFFCURVE",
"591 394 OFFCURVE",
"591 283 CURVE SMOOTH"
);
}
);
width = 755;
}
);
note = phi;
unicode = 03C6;
},
{
glyphname = chi;
lastChange = "2018-06-23 23:44:47 +0000";
layers = (
{
layerId = "5481159F-1A66-431E-9320-A33A99FB249E";
paths = (
{
closed = 1;
nodes = (
"77 545 OFFCURVE",
"52 542 OFFCURVE",
"27 534 CURVE",
"27 443 LINE",
"41 448 OFFCURVE",
"55 450 OFFCURVE",
"70 450 CURVE SMOOTH",
"103 450 OFFCURVE",
"125 426 OFFCURVE",
"144 374 CURVE SMOOTH",
"219 180 LINE",
"-17 -240 LINE",
"106 -240 LINE",
"271 73 LINE",
"333 -101 LINE SMOOTH",
"369 -205 OFFCURVE",
"413 -240 OFFCURVE",
"492 -240 CURVE SMOOTH",
"521 -240 OFFCURVE",
"547 -236 OFFCURVE",
"568 -229 CURVE",
"568 -140 LINE",
"552 -144 OFFCURVE",
"536 -145 OFFCURVE",
"522 -145 CURVE SMOOTH",
"480 -145 OFFCURVE",
"459 -125 OFFCURVE",
"436 -68 CURVE SMOOTH",
"342 166 LINE",
"557 540 LINE",
"438 540 LINE",
"293 271 LINE",
"239 415 LINE SMOOTH",
"225 455 OFFCURVE",
"211 483 OFFCURVE",
"200 499 CURVE SMOOTH",
"177 530 OFFCURVE",
"148 545 OFFCURVE",
"102 545 CURVE SMOOTH"
);
}
);
width = 569;
}
);
note = chi;
unicode = 03C7;
},
{
glyphname = psi;
lastChange = "2018-06-23 23:44:47 +0000";
layers = (
{
layerId = "5481159F-1A66-431E-9320-A33A99FB249E";
paths = (
{
closed = 1;
nodes = (
"346 82 LINE",
"235 89 OFFCURVE",
"186 146 OFFCURVE",
"186 267 CURVE SMOOTH",
"186 540 LINE",
"75 540 LINE",
"75 270 LINE SMOOTH",
"75 91 OFFCURVE",
"167 -3 OFFCURVE",
"346 -9 CURVE",
"346 -240 LINE",
"455 -240 LINE",
"455 -9 LINE",
"641 1 OFFCURVE",
"737 104 OFFCURVE",
"737 282 CURVE SMOOTH",
"737 366 OFFCURVE",
"726 452 OFFCURVE",
"703 540 CURVE",
"593 540 LINE",
"620 425 OFFCURVE",
"628 354 OFFCURVE",
"628 281 CURVE SMOOTH",
"628 155 OFFCURVE",
"572 93 OFFCURVE",
"455 83 CURVE",
"455 760 LINE",
"346 760 LINE"
);
}
);
width = 795;
}
);
note = psi;
unicode = 03C8;
},
{
glyphname = omega;
lastChange = "2018-06-23 23:44:47 +0000";
layers = (
{
anchors = (
{
name = bottom;
position = "{409, 0}";
},
{
name = top;
position = "{409, 540}";
}
);
layerId = "5481159F-1A66-431E-9320-A33A99FB249E";
paths = (
{
closed = 1;
nodes = (
"333 -10 OFFCURVE",
"382 22 OFFCURVE",
"406 86 CURVE",
"411 86 LINE",
"435 22 OFFCURVE",
"484 -10 OFFCURVE",
"559 -10 CURVE SMOOTH",
"688 -10 OFFCURVE",
"763 94 OFFCURVE",
"763 262 CURVE SMOOTH",
"763 360 OFFCURVE",
"747 445 OFFCURVE",
"706 540 CURVE",
"592 540 LINE",
"633 449 OFFCURVE",
"653 365 OFFCURVE",
"653 263 CURVE SMOOTH",
"653 146 OFFCURVE",
"616 82 OFFCURVE",
"550 82 CURVE SMOOTH",
"492 82 OFFCURVE",
"463 124 OFFCURVE",
"463 208 CURVE SMOOTH",
"463 356 LINE",
"355 356 LINE",
"355 208 LINE SMOOTH",
"355 124 OFFCURVE",
"326 82 OFFCURVE",
"267 82 CURVE SMOOTH",
"201 82 OFFCURVE",
"164 149 OFFCURVE",
"164 264 CURVE SMOOTH",
"164 364 OFFCURVE",
"182 446 OFFCURVE",
"225 540 CURVE",
"112 540 LINE",
"71 446 OFFCURVE",
"54 364 OFFCURVE",
"54 262 CURVE SMOOTH",
"54 94 OFFCURVE",
"130 -10 OFFCURVE",
"258 -10 CURVE SMOOTH"
);
}
);
width = 818;
}
);
note = omega;
unicode = 03C9;
},
{
glyphname = afii10051;
lastChange = "2018-06-23 23:44:47 +0000";
layers = (
{
layerId = "5481159F-1A66-431E-9320-A33A99FB249E";
paths = (
{
closed = 1;
nodes = (
"637 -10 OFFCURVE",
"704 63 OFFCURVE",
"704 192 CURVE SMOOTH",
"704 259 LINE SMOOTH",
"704 376 OFFCURVE",
"626 445 OFFCURVE",
"484 445 CURVE SMOOTH",
"303 445 LINE",
"303 614 LINE",
"518 614 LINE",
"518 714 LINE",
"14 714 LINE",
"14 614 LINE",
"186 614 LINE",
"186 0 LINE",
"303 0 LINE",
"303 345 LINE",
"478 345 LINE SMOOTH",
"556 345 OFFCURVE",
"587 317 OFFCURVE",
"587 247 CURVE SMOOTH",
"587 184 LINE SMOOTH",
"587 121 OFFCURVE",
"563 89 OFFCURVE",
"506 89 CURVE SMOOTH",
"481 89 OFFCURVE",
"456 94 OFFCURVE",
"428 104 CURVE",
"428 5 LINE",
"452 -5 OFFCURVE",
"480 -10 OFFCURVE",
"514 -10 CURVE SMOOTH"
);
}
);
width = 769;
}
);
note = afii10051;
unicode = 0402;
},
{
glyphname = afii10053;
lastChange = "2018-06-23 23:44:47 +0000";
layers = (
{
layerId = "5481159F-1A66-431E-9320-A33A99FB249E";
paths = (
{
closed = 1;
nodes = (
"460 624 OFFCURVE",
"500 616 OFFCURVE",
"582 580 CURVE",
"626 678 LINE",
"559 709 OFFCURVE",
"488 724 OFFCURVE",
"413 724 CURVE SMOOTH",
"340 724 OFFCURVE",
"277 709 OFFCURVE",
"224 680 CURVE SMOOTH",
"117 620 OFFCURVE",
"59 505 OFFCURVE",
"59 357 CURVE SMOOTH",
"59 118 OFFCURVE",
"180 -10 OFFCURVE",
"399 -10 CURVE SMOOTH",
"474 -10 OFFCURVE",
"541 1 OFFCURVE",
"599 22 CURVE",
"599 122 LINE",
"525 101 OFFCURVE",
"461 90 OFFCURVE",
"409 90 CURVE SMOOTH",
"265 90 OFFCURVE",
"189 172 OFFCURVE",
"183 317 CURVE",
"515 317 LINE",
"515 416 LINE",
"184 416 LINE",
"197 549 OFFCURVE",
"279 624 OFFCURVE",
"409 624 CURVE SMOOTH"
);
}
);
width = 658;
}
);
note = afii10053;
unicode = 0404;
},
{
glyphname = afii10058;
lastChange = "2018-06-23 23:44:47 +0000";
layers = (
{
layerId = "5481159F-1A66-431E-9320-A33A99FB249E";
paths = (
{
closed = 1;
nodes = (
"923 351 OFFCURVE",
"826 424 OFFCURVE",
"646 424 CURVE SMOOTH",
"588 424 LINE",
"588 714 LINE",
"213 714 LINE",
"193 559 OFFCURVE",
"175 430 OFFCURVE",
"159 328 CURVE SMOOTH",
"142 225 OFFCURVE",
"127 159 OFFCURVE",
"114 130 CURVE SMOOTH",
"100 101 OFFCURVE",
"82 86 OFFCURVE",
"58 86 CURVE SMOOTH",
"41 86 OFFCURVE",
"22 90 OFFCURVE",
"4 98 CURVE",
"4 1 LINE",
"25 -7 OFFCURVE",
"48 -11 OFFCURVE",
"72 -11 CURVE SMOOTH",
"107 -11 OFFCURVE",
"137 -3 OFFCURVE",
"160 12 CURVE SMOOTH",
"207 43 OFFCURVE",
"233 101 OFFCURVE",
"256 227 CURVE SMOOTH",
"267 290 OFFCURVE",
"281 382 OFFCURVE",
"297 505 CURVE SMOOTH",
"311 614 LINE",
"471 614 LINE",
"471 0 LINE",
"650 0 LINE SMOOTH",
"828 0 OFFCURVE",
"923 74 OFFCURVE",
"923 215 CURVE SMOOTH"
);
},
{
closed = 1;
nodes = (
"630 326 LINE SMOOTH",
"755 326 OFFCURVE",
"803 293 OFFCURVE",
"803 215 CURVE SMOOTH",
"803 133 OFFCURVE",
"749 98 OFFCURVE",
"643 98 CURVE SMOOTH",
"588 98 LINE",
"588 326 LINE"
);
}
);
width = 964;
}
);
note = afii10058;
unicode = 0409;
},
{
glyphname = afii10059;
lastChange = "2018-06-23 23:44:47 +0000";
layers = (
{
layerId = "5481159F-1A66-431E-9320-A33A99FB249E";
paths = (
{
closed = 1;
nodes = (
"936 350 OFFCURVE",
"840 424 OFFCURVE",
"659 424 CURVE SMOOTH",
"602 424 LINE",
"602 714 LINE",
"484 714 LINE",
"484 422 LINE",
"211 422 LINE",
"211 714 LINE",
"94 714 LINE",
"94 0 LINE",
"211 0 LINE",
"211 322 LINE",
"484 322 LINE",
"484 0 LINE",
"664 0 LINE SMOOTH",
"842 0 OFFCURVE",
"936 74 OFFCURVE",
"936 215 CURVE SMOOTH"
);
},
{
closed = 1;
nodes = (
"644 326 LINE SMOOTH",
"770 326 OFFCURVE",
"817 292 OFFCURVE",
"817 215 CURVE SMOOTH",
"817 133 OFFCURVE",
"762 98 OFFCURVE",
"657 98 CURVE SMOOTH",
"602 98 LINE",
"602 326 LINE"
);
}
);
width = 977;
}
);
note = afii10059;
unicode = 040A;
},
{
glyphname = afii10060;
lastChange = "2018-06-23 23:44:47 +0000";
layers = (
{
layerId = "5481159F-1A66-431E-9320-A33A99FB249E";
paths = (
{
closed = 1;
nodes = (
"704 259 LINE SMOOTH",
"704 377 OFFCURVE",
"629 445 OFFCURVE",
"494 445 CURVE SMOOTH",
"303 445 LINE",
"303 614 LINE",
"534 614 LINE",
"534 714 LINE",
"14 714 LINE",
"14 614 LINE",
"186 614 LINE",
"186 0 LINE",
"303 0 LINE",
"303 345 LINE",
"486 345 LINE SMOOTH",
"559 345 OFFCURVE",
"587 316 OFFCURVE",
"587 248 CURVE SMOOTH",
"587 0 LINE",
"704 0 LINE"
);
}
);
width = 769;
}
);
note = afii10060;
unicode = 040B;
},
{
glyphname = afii10145;
lastChange = "2018-06-23 23:44:47 +0000";
layers = (
{
layerId = "5481159F-1A66-431E-9320-A33A99FB249E";
paths = (
{
closed = 1;
nodes = (
"526 714 LINE",
"526 100 LINE",
"211 100 LINE",
"211 714 LINE",
"94 714 LINE",
"94 0 LINE",
"309 0 LINE",
"309 -197 LINE",
"425 -197 LINE",
"425 0 LINE",
"643 0 LINE",
"643 714 LINE"
);
}
);
width = 737;
}
);
note = afii10145;
unicode = 040F;
},
{
glyphname = afii10018;
lastChange = "2018-06-23 23:44:47 +0000";
layers = (
{
layerId = "5481159F-1A66-431E-9320-A33A99FB249E";
paths = (
{
closed = 1;
nodes = (
"577 354 OFFCURVE",
"483 424 OFFCURVE",
"296 424 CURVE SMOOTH",
"211 424 LINE",
"211 614 LINE",
"530 614 LINE",
"530 714 LINE",
"94 714 LINE",
"94 0 LINE",
"302 0 LINE SMOOTH",
"485 0 OFFCURVE",
"577 72 OFFCURVE",
"577 215 CURVE SMOOTH"
);
},
{
closed = 1;
nodes = (
"281 326 LINE SMOOTH",
"411 326 OFFCURVE",
"457 293 OFFCURVE",
"457 215 CURVE SMOOTH",
"457 133 OFFCURVE",
"407 98 OFFCURVE",
"295 98 CURVE SMOOTH",
"211 98 LINE",
"211 326 LINE"
);
}
);
width = 625;
}
);
note = afii10018;
unicode = 0411;
},
{
glyphname = afii10021;
lastChange = "2018-06-23 23:44:47 +0000";
layers = (
{
layerId = "5481159F-1A66-431E-9320-A33A99FB249E";
paths = (
{
closed = 1;
nodes = (
"118 -197 LINE",
"118 0 LINE",
"590 0 LINE",
"590 -197 LINE",
"702 -197 LINE",
"702 100 LINE",
"610 100 LINE",
"610 714 LINE",
"241 714 LINE",
"223 498 OFFCURVE",
"155 272 OFFCURVE",
"61 100 CURVE",
"6 100 LINE",
"6 -197 LINE"
);
},
{
closed = 1;
nodes = (
"493 100 LINE",
"184 100 LINE",
"259 246 OFFCURVE",
"325 465 OFFCURVE",
"339 613 CURVE",
"493 613 LINE"
);
}
);
width = 723;
}
);
note = afii10021;
unicode = 0414;
},
{
glyphname = afii10024;
lastChange = "2018-06-23 23:44:47 +0000";
layers = (
{
anchors = (
{
name = bottomright;
position = "{883, 0}";
},
{
name = top;
position = "{447, 714}";
}
);
layerId = "5481159F-1A66-431E-9320-A33A99FB249E";
paths = (
{
closed = 1;
nodes = (
"130 0 LINE",
"391 362 LINE",
"391 0 LINE",
"502 0 LINE",
"502 362 LINE",
"763 0 LINE",
"892 0 LINE",
"620 369 LINE",
"881 714 LINE",
"756 714 LINE",
"502 368 LINE",
"502 714 LINE",
"391 714 LINE",
"391 368 LINE",
"137 714 LINE",
"12 714 LINE",
"273 369 LINE",
"0 0 LINE"
);
}
);
width = 893;
}
);
note = afii10024;
unicode = 0416;
},
{
glyphname = afii10025;
lastChange = "2018-06-23 23:44:47 +0000";
layers = (
{
anchors = (
{
name = bottom;
position = "{307, 0}";
},
{
name = top;
position = "{307, 714}";
}
);
layerId = "5481159F-1A66-431E-9320-A33A99FB249E";
paths = (
{
closed = 1;
nodes = (
"547 654 OFFCURVE",
"453 724 OFFCURVE",
"302 724 CURVE SMOOTH",
"203 724 OFFCURVE",
"116 699 OFFCURVE",
"43 648 CURVE",
"96 569 LINE",
"163 612 OFFCURVE",
"223 629 OFFCURVE",
"292 629 CURVE SMOOTH",
"379 629 OFFCURVE",
"430 591 OFFCURVE",
"430 531 CURVE SMOOTH",
"430 455 OFFCURVE",
"359 417 OFFCURVE",
"217 417 CURVE SMOOTH",
"136 417 LINE",
"136 323 LINE",
"222 323 LINE SMOOTH",
"370 323 OFFCURVE",
"446 283 OFFCURVE",
"446 207 CURVE SMOOTH",
"446 125 OFFCURVE",
"383 84 OFFCURVE",
"258 84 CURVE SMOOTH",
"193 84 OFFCURVE",
"107 101 OFFCURVE",
"44 131 CURVE",
"44 29 LINE",
"101 3 OFFCURVE",
"177 -10 OFFCURVE",
"272 -10 CURVE SMOOTH",
"455 -10 OFFCURVE",
"565 69 OFFCURVE",
"565 202 CURVE SMOOTH",
"565 297 OFFCURVE",
"498 358 OFFCURVE",
"373 373 CURVE",
"373 376 LINE",
"482 392 OFFCURVE",
"547 454 OFFCURVE",
"547 547 CURVE SMOOTH"
);
}
);
width = 614;
}
);
note = afii10025;
unicode = 0417;
},
{
glyphname = afii10026;
lastChange = "2018-06-23 23:44:47 +0000";
layers = (
{
anchors = (
{
name = bottomright;
position = "{782, 0}";
},
{
name = top;
position = "{396, 714}";
}
);
layerId = "5481159F-1A66-431E-9320-A33A99FB249E";
paths = (
{
closed = 1;
nodes = (
"231 0 LINE",
"597 573 LINE",
"601 573 LINE",
"595 493 OFFCURVE",
"592 424 OFFCURVE",
"592 368 CURVE SMOOTH",
"592 0 LINE",
"699 0 LINE",
"699 714 LINE",
"563 714 LINE",
"198 145 LINE",
"194 145 LINE",
"196 173 OFFCURVE",
"201 265 OFFCURVE",
"201 343 CURVE SMOOTH",
"201 714 LINE",
"94 714 LINE",
"94 0 LINE"
);
}
);
width = 792;
}
);
note = afii10026;
unicode = 0418;
},
{
glyphname = afii10028;
lastChange = "2018-06-23 23:44:47 +0000";
layers = (
{
anchors = (
{
name = bottomright;
position = "{632, 0}";
},
{
name = top;
position = "{321, 714}";
}
);
layerId = "5481159F-1A66-431E-9320-A33A99FB249E";
paths = (
{
closed = 1;
nodes = (
"628 714 LINE",
"500 714 LINE",
"211 368 LINE",
"211 714 LINE",
"94 714 LINE",
"94 0 LINE",
"211 0 LINE",
"211 362 LINE",
"505 0 LINE",
"642 0 LINE",
"340 369 LINE"
);
}
);
width = 642;
}
);
note = afii10028;
unicode = 041A;
},
{
glyphname = afii10029;
lastChange = "2018-06-23 23:44:47 +0000";
layers = (
{
layerId = "5481159F-1A66-431E-9320-A33A99FB249E";
paths = (
{
closed = 1;
nodes = (
"213 714 LINE",
"191 544 OFFCURVE",
"172 411 OFFCURVE",
"157 315 CURVE SMOOTH",
"141 219 OFFCURVE",
"126 156 OFFCURVE",
"113 128 CURVE SMOOTH",
"100 100 OFFCURVE",
"82 86 OFFCURVE",
"58 86 CURVE SMOOTH",
"41 86 OFFCURVE",
"22 90 OFFCURVE",
"4 98 CURVE",
"4 1 LINE",
"25 -7 OFFCURVE",
"48 -11 OFFCURVE",
"72 -11 CURVE SMOOTH",
"164 -13 OFFCURVE",
"217 38 OFFCURVE",
"249 188 CURVE SMOOTH",
"264 264 OFFCURVE",
"284 405 OFFCURVE",
"310 614 CURVE",
"513 614 LINE",
"513 0 LINE",
"630 0 LINE",
"630 714 LINE"
);
}
);
width = 724;
}
);
note = afii10029;
unicode = 041B;
},
{
glyphname = afii10037;
lastChange = "2018-06-23 23:44:47 +0000";
layers = (
{
anchors = (
{
name = top;
position = "{319, 714}";
}
);
layerId = "5481159F-1A66-431E-9320-A33A99FB249E";
paths = (
{
closed = 1;
nodes = (
"354 329 LINE SMOOTH",
"347 310 OFFCURVE",
"342 296 OFFCURVE",
"340 288 CURVE",
"335 288 LINE",
"332 299 OFFCURVE",
"322 322 OFFCURVE",
"306 356 CURVE SMOOTH",
"132 714 LINE",
"6 714 LINE",
"269 191 LINE",
"236 115 OFFCURVE",
"199 91 OFFCURVE",
"140 91 CURVE SMOOTH",
"105 91 OFFCURVE",
"72 97 OFFCURVE",
"40 110 CURVE",
"40 5 LINE",
"72 -5 OFFCURVE",
"107 -10 OFFCURVE",
"145 -10 CURVE SMOOTH",
"188 -10 OFFCURVE",
"225 -3 OFFCURVE",
"256 10 CURVE SMOOTH",
"316 36 OFFCURVE",
"357 82 OFFCURVE",
"412 206 CURVE SMOOTH",
"637 714 LINE",
"515 714 LINE"
);
}
);
width = 637;
}
);
note = afii10037;
unicode = 0423;
},
{
glyphname = afii10040;
lastChange = "2018-06-23 23:44:47 +0000";
layers = (
{
layerId = "5481159F-1A66-431E-9320-A33A99FB249E";
paths = (
{
closed = 1;
nodes = (
"526 714 LINE",
"526 100 LINE",
"211 100 LINE",
"211 714 LINE",
"94 714 LINE",
"94 0 LINE",
"625 0 LINE",
"625 -197 LINE",
"738 -197 LINE",
"738 97 LINE",
"643 97 LINE",
"643 714 LINE"
);
}
);
width = 759;
}
);
note = afii10040;
unicode = 0426;
},
{
glyphname = afii10041;
lastChange = "2018-06-23 23:44:47 +0000";
layers = (
{
anchors = (
{
name = bottomright;
position = "{701, 0}";
},
{
name = top;
position = "{355, 714}";
}
);
layerId = "5481159F-1A66-431E-9320-A33A99FB249E";
paths = (
{
closed = 1;
nodes = (
"500 714 LINE",
"500 379 LINE",
"417 351 OFFCURVE",
"365 341 OFFCURVE",
"303 341 CURVE SMOOTH",
"219 341 OFFCURVE",
"185 377 OFFCURVE",
"185 451 CURVE SMOOTH",
"185 714 LINE",
"68 714 LINE",
"68 424 LINE SMOOTH",
"68 307 OFFCURVE",
"144 241 OFFCURVE",
"279 241 CURVE SMOOTH",
"349 241 OFFCURVE",
"412 254 OFFCURVE",
"500 285 CURVE",
"500 0 LINE",
"617 0 LINE",
"617 714 LINE"
);
}
);
width = 711;
}
);
note = afii10041;
unicode = 0427;
},
{
glyphname = afii10042;
lastChange = "2018-06-23 23:44:47 +0000";
layers = (
{
layerId = "5481159F-1A66-431E-9320-A33A99FB249E";
paths = (
{
closed = 1;
nodes = (
"468 714 LINE",
"468 100 LINE",
"211 100 LINE",
"211 714 LINE",
"94 714 LINE",
"94 0 LINE",
"961 0 LINE",
"961 714 LINE",
"843 714 LINE",
"843 100 LINE",
"586 100 LINE",
"586 714 LINE"
);
}
);
width = 1055;
}
);
note = afii10042;
unicode = 0428;
},
{
glyphname = afii10043;
lastChange = "2018-06-23 23:44:47 +0000";
layers = (
{
layerId = "5481159F-1A66-431E-9320-A33A99FB249E";
paths = (
{
closed = 1;
nodes = (
"464 714 LINE",
"464 100 LINE",
"211 100 LINE",
"211 714 LINE",
"94 714 LINE",
"94 0 LINE",
"935 0 LINE",
"935 -197 LINE",
"1048 -197 LINE",
"1048 97 LINE",
"953 97 LINE",
"953 714 LINE",
"836 714 LINE",
"836 100 LINE",
"582 100 LINE",
"582 714 LINE"
);
}
);
width = 1073;
}
);
note = afii10043;
unicode = 0429;
},
{
glyphname = afii10044;
lastChange = "2018-06-23 23:44:47 +0000";
layers = (
{
anchors = (
{
name = top;
position = "{354, 714}";
}
);
layerId = "5481159F-1A66-431E-9320-A33A99FB249E";
paths = (
{
closed = 1;
nodes = (
"659 351 OFFCURVE",
"562 424 OFFCURVE",
"382 424 CURVE SMOOTH",
"293 424 LINE",
"293 714 LINE",
"4 714 LINE",
"4 614 LINE",
"176 614 LINE",
"176 0 LINE",
"387 0 LINE SMOOTH",
"565 0 OFFCURVE",
"659 74 OFFCURVE",
"659 215 CURVE SMOOTH"
);
},
{
closed = 1;
nodes = (
"367 326 LINE SMOOTH",
"492 326 OFFCURVE",
"539 292 OFFCURVE",
"539 215 CURVE SMOOTH",
"539 133 OFFCURVE",
"485 98 OFFCURVE",
"380 98 CURVE SMOOTH",
"293 98 LINE",
"293 326 LINE"
);
}
);
width = 707;
}
);
note = afii10044;
unicode = 042A;
},
{
glyphname = afii10045;
lastChange = "2018-06-23 23:44:47 +0000";
layers = (
{
anchors = (
{
name = top;
position = "{439, 714}";
}
);
layerId = "5481159F-1A66-431E-9320-A33A99FB249E";
paths = (
{
closed = 1;
nodes = (
"568 350 OFFCURVE",
"472 424 OFFCURVE",
"294 424 CURVE SMOOTH",
"211 424 LINE",
"211 714 LINE",
"94 714 LINE",
"94 0 LINE",
"298 0 LINE SMOOTH",
"475 0 OFFCURVE",
"568 74 OFFCURVE",
"568 215 CURVE SMOOTH"
);
},
{
closed = 1;
nodes = (
"281 325 LINE SMOOTH",
"403 325 OFFCURVE",
"449 292 OFFCURVE",
"449 215 CURVE SMOOTH",
"449 133 OFFCURVE",
"395 97 OFFCURVE",
"291 97 CURVE SMOOTH",
"211 97 LINE",
"211 325 LINE"
);
},
{
closed = 1;
nodes = (
"668 714 LINE",
"668 0 LINE",
"785 0 LINE",
"785 714 LINE"
);
}
);
width = 879;
}
);
note = afii10045;
unicode = 042B;
},
{
glyphname = afii10046;
lastChange = "2018-06-23 23:44:47 +0000";
layers = (
{
layerId = "5481159F-1A66-431E-9320-A33A99FB249E";
paths = (
{
closed = 1;
nodes = (
"592 350 OFFCURVE",
"493 424 OFFCURVE",
"312 424 CURVE SMOOTH",
"211 424 LINE",
"211 714 LINE",
"94 714 LINE",
"94 0 LINE",
"317 0 LINE SMOOTH",
"495 0 OFFCURVE",
"592 75 OFFCURVE",
"592 215 CURVE SMOOTH"
);
},
{
closed = 1;
nodes = (
"296 326 LINE SMOOTH",
"423 326 OFFCURVE",
"472 292 OFFCURVE",
"472 215 CURVE SMOOTH",
"472 133 OFFCURVE",
"414 98 OFFCURVE",
"309 98 CURVE SMOOTH",
"211 98 LINE",
"211 326 LINE"
);
}
);
width = 640;
}
);
note = afii10046;
unicode = 042C;
},
{
glyphname = afii10047;
lastChange = "2018-06-23 23:44:47 +0000";
layers = (
{
anchors = (
{
name = top;
position = "{323, 714}";
}
);
layerId = "5481159F-1A66-431E-9320-A33A99FB249E";
paths = (
{
closed = 1;
nodes = (
"372 624 OFFCURVE",
"452 547 OFFCURVE",
"461 417 CURVE",
"132 417 LINE",
"132 318 LINE",
"462 318 LINE",
"457 168 OFFCURVE",
"379 90 OFFCURVE",
"229 90 CURVE SMOOTH",
"165 90 OFFCURVE",
"106 103 OFFCURVE",
"41 122 CURVE",
"41 22 LINE",
"100 1 OFFCURVE",
"166 -10 OFFCURVE",
"240 -10 CURVE SMOOTH",
"463 -10 OFFCURVE",
"586 123 OFFCURVE",
"586 363 CURVE SMOOTH",
"586 589 OFFCURVE",
"463 724 OFFCURVE",
"251 724 CURVE SMOOTH",
"170 724 OFFCURVE",
"98 709 OFFCURVE",
"32 678 CURVE",
"74 582 LINE",
"137 610 OFFCURVE",
"195 624 OFFCURVE",
"249 624 CURVE SMOOTH"
);
}
);
width = 646;
}
);
note = afii10047;
unicode = 042D;
},
{
glyphname = afii10048;
lastChange = "2018-06-23 23:44:47 +0000";
layers = (
{
anchors = (
{
name = top;
position = "{530, 714}";
}
);
layerId = "5481159F-1A66-431E-9320-A33A99FB249E";
paths = (
{
closed = 1;
nodes = (
"1000 590 OFFCURVE",
"884 725 OFFCURVE",
"683 725 CURVE SMOOTH",
"498 725 OFFCURVE",
"386 618 OFFCURVE",
"368 422 CURVE",
"211 422 LINE",
"211 714 LINE",
"94 714 LINE",
"94 0 LINE",
"211 0 LINE",
"211 322 LINE",
"366 322 LINE",
"377 111 OFFCURVE",
"490 -10 OFFCURVE",
"683 -10 CURVE SMOOTH",
"885 -10 OFFCURVE",
"1000 125 OFFCURVE",
"1000 358 CURVE SMOOTH"
);
},
{
closed = 1;
nodes = (
"487 533 OFFCURVE",
"554 625 OFFCURVE",
"684 625 CURVE SMOOTH",
"811 625 OFFCURVE",
"878 534 OFFCURVE",
"878 358 CURVE SMOOTH",
"878 183 OFFCURVE",
"813 90 OFFCURVE",
"682 90 CURVE SMOOTH",
"553 90 OFFCURVE",
"487 182 OFFCURVE",
"487 358 CURVE SMOOTH"
);
}
);
width = 1060;
}
);
note = afii10048;
unicode = 042E;
},
{
glyphname = afii10049;
lastChange = "2018-06-23 23:44:47 +0000";
layers = (
{
anchors = (
{
name = top;
position = "{325, 714}";
}
);
layerId = "5481159F-1A66-431E-9320-A33A99FB249E";
paths = (
{
closed = 1;
nodes = (
"439 0 LINE",
"556 0 LINE",
"556 714 LINE",
"342 714 LINE SMOOTH",
"166 714 OFFCURVE",
"74 643 OFFCURVE",
"74 512 CURVE SMOOTH",
"74 411 OFFCURVE",
"120 345 OFFCURVE",
"211 313 CURVE",
"10 0 LINE",
"143 0 LINE",
"320 286 LINE",
"439 286 LINE"
);
},
{
closed = 1;
nodes = (
"350 383 LINE SMOOTH",
"243 383 OFFCURVE",
"194 428 OFFCURVE",
"194 505 CURVE SMOOTH",
"194 583 OFFCURVE",
"248 616 OFFCURVE",
"346 616 CURVE SMOOTH",
"439 616 LINE",
"439 383 LINE"
);
}
);
width = 650;
}
);
note = afii10049;
unicode = 042F;
},
{
glyphname = afii10066;
lastChange = "2018-06-23 23:44:47 +0000";
layers = (
{
layerId = "5481159F-1A66-431E-9320-A33A99FB249E";
paths = (
{
closed = 1;
nodes = (
"51 113 OFFCURVE",
"146 -10 OFFCURVE",
"304 -10 CURVE SMOOTH",
"464 -10 OFFCURVE",
"559 89 OFFCURVE",
"559 263 CURVE SMOOTH",
"559 415 OFFCURVE",
"481 503 OFFCURVE",
"348 503 CURVE SMOOTH",
"280 503 OFFCURVE",
"216 472 OFFCURVE",
"179 418 CURVE",
"172 418 LINE",
"179 549 OFFCURVE",
"220 609 OFFCURVE",
"322 628 CURVE SMOOTH",
"371 637 OFFCURVE",
"449 650 OFFCURVE",
"556 666 CURVE",
"540 767 LINE",
"452 754 OFFCURVE",
"375 741 OFFCURVE",
"307 727 CURVE SMOOTH",
"129 690 OFFCURVE",
"51 565 OFFCURVE",
"51 324 CURVE SMOOTH"
);
},
{
closed = 1;
nodes = (
"219 84 OFFCURVE",
"169 164 OFFCURVE",
"169 318 CURVE",
"178 334 OFFCURVE",
"191 349 OFFCURVE",
"208 364 CURVE SMOOTH",
"241 394 OFFCURVE",
"282 414 OFFCURVE",
"324 414 CURVE SMOOTH",
"401 414 OFFCURVE",
"440 360 OFFCURVE",
"440 252 CURVE SMOOTH",
"440 140 OFFCURVE",
"397 84 OFFCURVE",
"312 84 CURVE SMOOTH"
);
}
);
width = 609;
}
);
note = afii10066;
unicode = 0431;
},
{
glyphname = afii10067;
lastChange = "2018-06-23 23:44:47 +0000";
layers = (
{
layerId = "5481159F-1A66-431E-9320-A33A99FB249E";
paths = (
{
closed = 1;
nodes = (
"551 494 OFFCURVE",
"480 540 OFFCURVE",
"339 540 CURVE SMOOTH",
"82 540 LINE",
"82 0 LINE",
"340 0 LINE SMOOTH",
"488 0 OFFCURVE",
"568 57 OFFCURVE",
"568 159 CURVE SMOOTH",
"568 228 OFFCURVE",
"522 272 OFFCURVE",
"439 282 CURVE",
"439 286 LINE",
"514 299 OFFCURVE",
"551 338 OFFCURVE",
"551 402 CURVE SMOOTH"
);
},
{
closed = 1;
nodes = (
"450 112 OFFCURVE",
"411 85 OFFCURVE",
"332 85 CURVE SMOOTH",
"197 85 LINE",
"197 238 LINE",
"329 238 LINE SMOOTH",
"410 238 OFFCURVE",
"450 218 OFFCURVE",
"450 166 CURVE SMOOTH"
);
},
{
closed = 1;
nodes = (
"436 340 OFFCURVE",
"396 323 OFFCURVE",
"319 323 CURVE SMOOTH",
"197 323 LINE",
"197 453 LINE",
"336 453 LINE SMOOTH",
"402 453 OFFCURVE",
"436 435 OFFCURVE",
"436 392 CURVE SMOOTH"
);
}
);
width = 604;
}
);
note = afii10067;
unicode = 0432;
},
{
glyphname = afii10068;
lastChange = "2018-06-23 23:44:47 +0000";
layers = (
{
anchors = (
{
name = bottomright;
position = "{443, 0}";
},
{
name = top;
position = "{227, 540}";
}
);
layerId = "5481159F-1A66-431E-9320-A33A99FB249E";
paths = (
{
closed = 1;
nodes = (
"82 0 LINE",
"197 0 LINE",
"197 450 LINE",
"431 450 LINE",
"431 540 LINE",
"82 540 LINE"
);
}
);
width = 453;
}
);
note = afii10068;
unicode = 0433;
},
{
glyphname = afii10069;
lastChange = "2018-06-23 23:44:47 +0000";
layers = (
{
layerId = "5481159F-1A66-431E-9320-A33A99FB249E";
paths = (
{
closed = 1;
nodes = (
"521 89 LINE",
"521 540 LINE",
"193 540 LINE",
"185 360 OFFCURVE",
"138 199 OFFCURVE",
"61 89 CURVE",
"17 89 LINE",
"17 -191 LINE",
"123 -191 LINE",
"123 0 LINE",
"493 0 LINE",
"493 -191 LINE",
"600 -191 LINE",
"600 89 LINE"
);
},
{
closed = 1;
nodes = (
"238 179 OFFCURVE",
"280 318 OFFCURVE",
"292 452 CURVE",
"408 452 LINE",
"408 89 LINE",
"181 89 LINE"
);
}
);
width = 618;
}
);
note = afii10069;
unicode = 0434;
},
{
glyphname = afii10072;
lastChange = "2018-06-23 23:44:47 +0000";
layers = (
{
anchors = (
{
name = bottomright;
position = "{794, 0}";
},
{
name = top;
position = "{402, 540}";
}
);
layerId = "5481159F-1A66-431E-9320-A33A99FB249E";
paths = (
{
closed = 1;
nodes = (
"20 540 LINE",
"232 279 LINE",
"1 0 LINE",
"127 0 LINE",
"348 274 LINE",
"348 0 LINE",
"455 0 LINE",
"455 274 LINE",
"677 0 LINE",
"803 0 LINE",
"572 279 LINE",
"784 540 LINE",
"663 540 LINE",
"455 278 LINE",
"455 540 LINE",
"348 540 LINE",
"348 278 LINE",
"141 540 LINE"
);
}
);
width = 804;
}
);
note = afii10072;
unicode = 0436;
},
{
glyphname = afii10073;
lastChange = "2018-06-23 23:44:47 +0000";
layers = (
{
anchors = (
{
name = bottom;
position = "{260, 0}";
},
{
name = top;
position = "{260, 540}";
}
);
layerId = "5481159F-1A66-431E-9320-A33A99FB249E";
paths = (
{
closed = 1;
nodes = (
"144 238 LINE",
"210 238 LINE SMOOTH",
"315 238 OFFCURVE",
"364 213 OFFCURVE",
"364 159 CURVE SMOOTH",
"364 106 OFFCURVE",
"312 81 OFFCURVE",
"220 81 CURVE SMOOTH",
"156 81 OFFCURVE",
"95 95 OFFCURVE",
"35 123 CURVE",
"35 24 LINE",
"80 1 OFFCURVE",
"145 -10 OFFCURVE",
"230 -10 CURVE SMOOTH",
"386 -10 OFFCURVE",
"477 54 OFFCURVE",
"477 153 CURVE SMOOTH",
"477 217 OFFCURVE",
"442 261 OFFCURVE",
"356 284 CURVE",
"356 288 LINE",
"425 307 OFFCURVE",
"460 347 OFFCURVE",
"460 407 CURVE SMOOTH",
"460 499 OFFCURVE",
"382 550 OFFCURVE",
"248 550 CURVE SMOOTH",
"172 550 OFFCURVE",
"103 537 OFFCURVE",
"40 511 CURVE",
"77 426 LINE",
"131 449 OFFCURVE",
"185 461 OFFCURVE",
"237 461 CURVE SMOOTH",
"315 461 OFFCURVE",
"354 439 OFFCURVE",
"354 395 CURVE SMOOTH",
"354 371 OFFCURVE",
"342 353 OFFCURVE",
"317 342 CURVE SMOOTH",
"292 330 OFFCURVE",
"253 324 OFFCURVE",
"201 324 CURVE SMOOTH",
"144 324 LINE"
);
}
);
width = 519;
}
);
note = afii10073;
unicode = 0437;
},
{
glyphname = afii10074;
lastChange = "2018-06-23 23:44:47 +0000";
layers = (
{
anchors = (
{
name = bottomright;
position = "{667, 0}";
},
{
name = top;
position = "{338, 540}";
}
);
layerId = "5481159F-1A66-431E-9320-A33A99FB249E";
paths = (
{
closed = 1;
nodes = (
"82 0 LINE",
"222 0 LINE",
"492 418 LINE",
"490 387 OFFCURVE",
"485 302 OFFCURVE",
"485 272 CURVE SMOOTH",
"485 0 LINE",
"595 0 LINE",
"595 540 LINE",
"455 540 LINE",
"184 121 LINE",
"189 184 OFFCURVE",
"192 231 OFFCURVE",
"192 263 CURVE SMOOTH",
"192 540 LINE",
"82 540 LINE"
);
}
);
width = 677;
}
);
note = afii10074;
unicode = 0438;
},
{
glyphname = afii10076;
lastChange = "2018-06-23 23:44:47 +0000";
layers = (
{
anchors = (
{
name = bottomright;
position = "{559, 0}";
},
{
name = top;
position = "{285, 540}";
}
);
layerId = "5481159F-1A66-431E-9320-A33A99FB249E";
paths = (
{
closed = 1;
nodes = (
"197 540 LINE",
"82 540 LINE",
"82 0 LINE",
"197 0 LINE",
"197 274 LINE",
"430 0 LINE",
"562 0 LINE",
"320 280 LINE",
"543 540 LINE",
"417 540 LINE",
"197 278 LINE"
);
}
);
width = 569;
}
);
note = afii10076;
unicode = 043A;
},
{
glyphname = afii10077;
lastChange = "2018-06-23 23:44:47 +0000";
layers = (
{
layerId = "5481159F-1A66-431E-9320-A33A99FB249E";
paths = (
{
closed = 1;
nodes = (
"163 540 LINE",
"152 386 OFFCURVE",
"138 272 OFFCURVE",
"119 197 CURVE SMOOTH",
"100 123 OFFCURVE",
"73 85 OFFCURVE",
"40 85 CURVE SMOOTH",
"28 85 OFFCURVE",
"16 87 OFFCURVE",
"4 92 CURVE",
"4 2 LINE",
"21 -5 OFFCURVE",
"42 -9 OFFCURVE",
"67 -9 CURVE SMOOTH",
"146 -9 OFFCURVE",
"193 48 OFFCURVE",
"225 179 CURVE SMOOTH",
"240 244 OFFCURVE",
"252 334 OFFCURVE",
"261 450 CURVE",
"410 450 LINE",
"410 0 LINE",
"526 0 LINE",
"526 540 LINE"
);
}
);
width = 608;
}
);
note = afii10077;
unicode = 043B;
},
{
glyphname = afii10078;
lastChange = "2018-06-23 23:44:47 +0000";
layers = (
{
layerId = "5481159F-1A66-431E-9320-A33A99FB249E";
paths = (
{
closed = 1;
nodes = (
"375 180 OFFCURVE",
"361 228 OFFCURVE",
"351 254 CURVE SMOOTH",
"234 540 LINE",
"82 540 LINE",
"82 0 LINE",
"187 0 LINE",
"187 436 LINE",
"201 383 OFFCURVE",
"216 335 OFFCURVE",
"232 293 CURVE SMOOTH",
"350 0 LINE",
"437 0 LINE",
"555 291 LINE SMOOTH",
"565 316 OFFCURVE",
"578 354 OFFCURVE",
"592 407 CURVE SMOOTH",
"601 436 LINE",
"601 0 LINE",
"707 0 LINE",
"707 540 LINE",
"554 540 LINE",
"433 245 LINE SMOOTH",
"423 219 OFFCURVE",
"412 182 OFFCURVE",
"398 133 CURVE SMOOTH",
"392 110 LINE"
);
}
);
width = 789;
}
);
note = afii10078;
unicode = 043C;
},
{
glyphname = afii10079;
lastChange = "2018-06-23 23:44:47 +0000";
layers = (
{
anchors = (
{
name = bottomright;
position = "{638, 0}";
}
);
layerId = "5481159F-1A66-431E-9320-A33A99FB249E";
paths = (
{
closed = 1;
nodes = (
"82 0 LINE",
"197 0 LINE",
"197 233 LINE",
"451 233 LINE",
"451 0 LINE",
"566 0 LINE",
"566 540 LINE",
"451 540 LINE",
"451 323 LINE",
"197 323 LINE",
"197 540 LINE",
"82 540 LINE"
);
}
);
width = 648;
}
);
note = afii10079;
unicode = 043D;
},
{
glyphname = afii10081;
lastChange = "2018-06-23 23:44:47 +0000";
layers = (
{
anchors = (
{
name = bottomright;
position = "{626, 0}";
}
);
layerId = "5481159F-1A66-431E-9320-A33A99FB249E";
paths = (
{
closed = 1;
nodes = (
"82 0 LINE",
"197 0 LINE",
"197 449 LINE",
"439 449 LINE",
"439 0 LINE",
"554 0 LINE",
"554 540 LINE",
"82 540 LINE"
);
}
);
width = 636;
}
);
note = afii10081;
unicode = 043F;
},
{
glyphname = afii10084;
lastChange = "2018-06-23 23:44:47 +0000";
layers = (
{
anchors = (
{
name = bottomright;
position = "{500, 0}";
}
);
layerId = "5481159F-1A66-431E-9320-A33A99FB249E";
paths = (
{
closed = 1;
nodes = (
"21 450 LINE",
"197 450 LINE",
"197 0 LINE",
"312 0 LINE",
"312 450 LINE",
"488 450 LINE",
"488 540 LINE",
"21 540 LINE"
);
}
);
width = 510;
}
);
note = afii10084;
unicode = 0442;
},
{
glyphname = afii10086;
lastChange = "2018-06-23 23:44:47 +0000";
layers = (
{
layerId = "5481159F-1A66-431E-9320-A33A99FB249E";
paths = (
{
closed = 1;
nodes = (
"714 428 OFFCURVE",
"610 530 OFFCURVE",
"437 546 CURVE",
"437 760 LINE",
"329 760 LINE",
"329 546 LINE",
"151 534 OFFCURVE",
"50 435 OFFCURVE",
"50 270 CURVE SMOOTH",
"50 111 OFFCURVE",
"157 7 OFFCURVE",
"328 -6 CURVE",
"328 -240 LINE",
"437 -240 LINE",
"437 -6 LINE",
"610 7 OFFCURVE",
"714 108 OFFCURVE",
"714 270 CURVE SMOOTH"
);
},
{
closed = 1;
nodes = (
"169 377 OFFCURVE",
"222 444 OFFCURVE",
"329 456 CURVE",
"329 84 LINE",
"222 95 OFFCURVE",
"169 163 OFFCURVE",
"169 270 CURVE SMOOTH"
);
},
{
closed = 1;
nodes = (
"595 164 OFFCURVE",
"543 96 OFFCURVE",
"437 84 CURVE",
"437 454 LINE",
"542 442 OFFCURVE",
"595 375 OFFCURVE",
"595 270 CURVE SMOOTH"
);
}
);
width = 764;
}
);
note = afii10086;
unicode = 0444;
},
{
glyphname = afii10088;
lastChange = "2018-06-23 23:44:47 +0000";
layers = (
{
layerId = "5481159F-1A66-431E-9320-A33A99FB249E";
paths = (
{
closed = 1;
nodes = (
"448 540 LINE",
"448 91 LINE",
"197 91 LINE",
"197 540 LINE",
"82 540 LINE",
"82 0 LINE",
"533 0 LINE",
"533 -190 LINE",
"641 -190 LINE",
"641 89 LINE",
"563 89 LINE",
"563 540 LINE"
);
}
);
width = 657;
}
);
note = afii10088;
unicode = 0446;
},
{
glyphname = afii10089;
lastChange = "2018-06-23 23:44:47 +0000";
layers = (
{
anchors = (
{
name = bottomright;
position = "{622, 0}";
},
{
name = top;
position = "{316, 540}";
}
);
layerId = "5481159F-1A66-431E-9320-A33A99FB249E";
paths = (
{
closed = 1;
nodes = (
"68 338 LINE SMOOTH",
"68 233 OFFCURVE",
"134 172 OFFCURVE",
"247 172 CURVE SMOOTH",
"317 172 OFFCURVE",
"372 190 OFFCURVE",
"435 229 CURVE",
"435 0 LINE",
"550 0 LINE",
"550 540 LINE",
"435 540 LINE",
"435 308 LINE",
"375 274 OFFCURVE",
"324 260 OFFCURVE",
"269 260 CURVE SMOOTH",
"212 260 OFFCURVE",
"183 288 OFFCURVE",
"183 343 CURVE SMOOTH",
"183 540 LINE",
"68 540 LINE"
);
}
);
width = 632;
}
);
note = afii10089;
unicode = 0447;
},
{
glyphname = afii10090;
lastChange = "2018-06-23 23:44:47 +0000";
layers = (
{
layerId = "5481159F-1A66-431E-9320-A33A99FB249E";
paths = (
{
closed = 1;
nodes = (
"732 540 LINE",
"732 91 LINE",
"522 91 LINE",
"522 540 LINE",
"407 540 LINE",
"407 91 LINE",
"197 91 LINE",
"197 540 LINE",
"82 540 LINE",
"82 0 LINE",
"847 0 LINE",
"847 540 LINE"
);
}
);
width = 929;
}
);
note = afii10090;
unicode = 0448;
},
{
glyphname = afii10091;
lastChange = "2018-06-23 23:44:47 +0000";
layers = (
{
layerId = "5481159F-1A66-431E-9320-A33A99FB249E";
paths = (
{
closed = 1;
nodes = (
"732 540 LINE",
"732 91 LINE",
"522 91 LINE",
"522 540 LINE",
"407 540 LINE",
"407 91 LINE",
"197 91 LINE",
"197 540 LINE",
"82 540 LINE",
"82 0 LINE",
"817 0 LINE",
"817 -190 LINE",
"925 -190 LINE",
"925 89 LINE",
"847 89 LINE",
"847 540 LINE"
);
}
);
width = 941;
}
);
note = afii10091;
unicode = 0449;
},
{
glyphname = afii10092;
lastChange = "2018-06-23 23:44:47 +0000";
layers = (
{
layerId = "5481159F-1A66-431E-9320-A33A99FB249E";
paths = (
{
closed = 1;
nodes = (
"10 450 LINE",
"182 450 LINE",
"182 0 LINE",
"428 0 LINE SMOOTH",
"580 0 OFFCURVE",
"657 58 OFFCURVE",
"657 168 CURVE SMOOTH",
"657 272 OFFCURVE",
"583 324 OFFCURVE",
"426 324 CURVE SMOOTH",
"297 324 LINE",
"297 540 LINE",
"10 540 LINE"
);
},
{
closed = 1;
nodes = (
"542 112 OFFCURVE",
"503 85 OFFCURVE",
"426 85 CURVE SMOOTH",
"297 85 LINE",
"297 238 LINE",
"423 238 LINE SMOOTH",
"503 238 OFFCURVE",
"542 219 OFFCURVE",
"542 165 CURVE SMOOTH"
);
}
);
width = 702;
}
);
note = afii10092;
unicode = 044A;
},
{
glyphname = afii10093;
lastChange = "2018-06-23 23:44:47 +0000";
layers = (
{
anchors = (
{
name = top;
position = "{405, 540}";
}
);
layerId = "5481159F-1A66-431E-9320-A33A99FB249E";
paths = (
{
closed = 1;
nodes = (
"82 540 LINE",
"82 0 LINE",
"306 0 LINE SMOOTH",
"451 0 OFFCURVE",
"528 57 OFFCURVE",
"528 168 CURVE SMOOTH",
"528 272 OFFCURVE",
"457 324 OFFCURVE",
"306 324 CURVE SMOOTH",
"197 324 LINE",
"197 540 LINE"
);
},
{
closed = 1;
nodes = (
"414 110 OFFCURVE",
"375 85 OFFCURVE",
"283 85 CURVE SMOOTH",
"197 85 LINE",
"197 238 LINE",
"298 238 LINE SMOOTH",
"373 238 OFFCURVE",
"414 219 OFFCURVE",
"414 165 CURVE SMOOTH"
);
},
{
closed = 1;
nodes = (
"613 540 LINE",
"613 0 LINE",
"728 0 LINE",
"728 540 LINE"
);
}
);
width = 810;
}
);
note = afii10093;
unicode = 044B;
},
{
glyphname = afii10094;
lastChange = "2018-06-23 23:44:47 +0000";
layers = (
{
layerId = "5481159F-1A66-431E-9320-A33A99FB249E";
paths = (
{
closed = 1;
nodes = (
"82 540 LINE",
"82 0 LINE",
"332 0 LINE SMOOTH",
"480 0 OFFCURVE",
"558 58 OFFCURVE",
"558 168 CURVE SMOOTH",
"558 272 OFFCURVE",
"483 324 OFFCURVE",
"332 324 CURVE SMOOTH",
"197 324 LINE",
"197 540 LINE"
);
},
{
closed = 1;
nodes = (
"443 113 OFFCURVE",
"403 85 OFFCURVE",
"327 85 CURVE SMOOTH",
"197 85 LINE",
"197 238 LINE",
"325 238 LINE SMOOTH",
"400 238 OFFCURVE",
"443 219 OFFCURVE",
"443 165 CURVE SMOOTH"
);
}
);
width = 603;
}
);
note = afii10094;
unicode = 044C;
},
{
glyphname = afii10095;
lastChange = "2018-06-23 23:44:47 +0000";
layers = (
{
anchors = (
{
name = top;
position = "{251, 540}";
}
);
layerId = "5481159F-1A66-431E-9320-A33A99FB249E";
paths = (
{
closed = 1;
nodes = (
"358 -10 OFFCURVE",
"451 91 OFFCURVE",
"451 273 CURVE SMOOTH",
"451 455 OFFCURVE",
"367 550 OFFCURVE",
"197 550 CURVE SMOOTH",
"142 550 OFFCURVE",
"81 536 OFFCURVE",
"37 516 CURVE",
"69 431 LINE",
"121 450 OFFCURVE",
"163 459 OFFCURVE",
"195 459 CURVE SMOOTH",
"280 459 OFFCURVE",
"324 415 OFFCURVE",
"332 318 CURVE",
"94 318 LINE",
"94 234 LINE",
"332 234 LINE",
"326 132 OFFCURVE",
"276 81 OFFCURVE",
"183 81 CURVE SMOOTH",
"134 81 OFFCURVE",
"84 92 OFFCURVE",
"32 115 CURVE",
"32 21 LINE",
"74 0 OFFCURVE",
"125 -10 OFFCURVE",
"185 -10 CURVE SMOOTH"
);
}
);
width = 502;
}
);
note = afii10095;
unicode = 044D;
},
{
glyphname = afii10096;
lastChange = "2018-06-23 23:44:47 +0000";
layers = (
{
anchors = (
{
name = top;
position = "{427, 540}";
}
);
layerId = "5481159F-1A66-431E-9320-A33A99FB249E";
paths = (
{
closed = 1;
nodes = (
"803 441 OFFCURVE",
"710 550 OFFCURVE",
"560 550 CURVE SMOOTH",
"421 550 OFFCURVE",
"333 466 OFFCURVE",
"317 323 CURVE",
"197 323 LINE",
"197 540 LINE",
"82 540 LINE",
"82 0 LINE",
"197 0 LINE",
"197 233 LINE",
"316 233 LINE",
"330 77 OFFCURVE",
"416 -10 OFFCURVE",
"558 -10 CURVE SMOOTH",
"712 -10 OFFCURVE",
"803 94 OFFCURVE",
"803 271 CURVE SMOOTH"
);
},
{
closed = 1;
nodes = (
"433 393 OFFCURVE",
"470 456 OFFCURVE",
"559 456 CURVE SMOOTH",
"647 456 OFFCURVE",
"685 393 OFFCURVE",
"685 271 CURVE SMOOTH",
"685 148 OFFCURVE",
"647 84 OFFCURVE",
"559 84 CURVE SMOOTH",
"470 84 OFFCURVE",
"433 148 OFFCURVE",
"433 271 CURVE SMOOTH"
);
}
);
width = 854;
}
);
note = afii10096;
unicode = 044E;
},
{
glyphname = afii10097;
lastChange = "2018-06-23 23:44:47 +0000";
layers = (
{
anchors = (
{
name = top;
position = "{287, 540}";
}
);
layerId = "5481159F-1A66-431E-9320-A33A99FB249E";
paths = (
{
closed = 1;
nodes = (
"377 208 LINE",
"377 0 LINE",
"492 0 LINE",
"492 540 LINE",
"246 540 LINE SMOOTH",
"120 540 OFFCURVE",
"42 479 OFFCURVE",
"42 377 CURVE SMOOTH",
"42 297 OFFCURVE",
"86 242 OFFCURVE",
"159 221 CURVE",
"9 0 LINE",
"137 0 LINE",
"268 208 LINE"
);
},
{
closed = 1;
nodes = (
"154 425 OFFCURVE",
"189 453 OFFCURVE",
"252 453 CURVE SMOOTH",
"377 453 LINE",
"377 293 LINE",
"270 293 LINE SMOOTH",
"199 293 OFFCURVE",
"154 321 OFFCURVE",
"154 376 CURVE SMOOTH"
);
}
);
width = 574;
}
);
note = afii10097;
unicode = 044F;
},
{
glyphname = afii10099;
lastChange = "2018-06-23 23:44:47 +0000";
layers = (
{
layerId = "5481159F-1A66-431E-9320-A33A99FB249E";
paths = (
{
closed = 1;
nodes = (
"502 -240 OFFCURVE",
"557 -179 OFFCURVE",
"557 -70 CURVE SMOOTH",
"557 328 LINE SMOOTH",
"557 460 OFFCURVE",
"492 526 OFFCURVE",
"362 526 CURVE SMOOTH",
"293 526 OFFCURVE",
"233 500 OFFCURVE",
"198 444 CURVE",
"191 444 LINE",
"193 474 OFFCURVE",
"195 496 OFFCURVE",
"196 509 CURVE SMOOTH",
"196 522 OFFCURVE",
"197 534 OFFCURVE",
"197 543 CURVE SMOOTH",
"197 595 LINE",
"372 595 LINE",
"372 675 LINE",
"197 675 LINE",
"197 760 LINE",
"82 760 LINE",
"82 675 LINE",
"6 675 LINE",
"6 595 LINE",
"82 595 LINE",
"82 0 LINE",
"197 0 LINE",
"197 244 LINE SMOOTH",
"197 377 OFFCURVE",
"241 432 OFFCURVE",
"337 432 CURVE SMOOTH",
"407 432 OFFCURVE",
"442 393 OFFCURVE",
"442 313 CURVE SMOOTH",
"442 -62 LINE SMOOTH",
"442 -117 OFFCURVE",
"421 -145 OFFCURVE",
"381 -145 CURVE SMOOTH",
"362 -145 OFFCURVE",
"343 -142 OFFCURVE",
"324 -136 CURVE",
"324 -228 LINE",
"346 -236 OFFCURVE",
"371 -240 OFFCURVE",
"401 -240 CURVE SMOOTH"
);
}
);
width = 635;
}
);
note = afii10099;
unicode = 0452;
},
{
glyphname = afii10101;
lastChange = "2018-06-23 23:44:47 +0000";
layers = (
{
layerId = "5481159F-1A66-431E-9320-A33A99FB249E";
paths = (
{
closed = 1;
nodes = (
"370 -10 OFFCURVE",
"420 1 OFFCURVE",
"463 22 CURVE",
"463 115 LINE",
"410 92 OFFCURVE",
"358 81 OFFCURVE",
"309 81 CURVE SMOOTH",
"221 81 OFFCURVE",
"176 129 OFFCURVE",
"169 234 CURVE",
"407 234 LINE",
"407 318 LINE",
"169 318 LINE",
"180 414 OFFCURVE",
"225 459 OFFCURVE",
"312 459 CURVE SMOOTH",
"348 459 OFFCURVE",
"391 450 OFFCURVE",
"441 431 CURVE",
"475 518 LINE",
"428 539 OFFCURVE",
"375 550 OFFCURVE",
"315 550 CURVE SMOOTH",
"138 550 OFFCURVE",
"50 453 OFFCURVE",
"50 267 CURVE SMOOTH",
"50 87 OFFCURVE",
"142 -10 OFFCURVE",
"314 -10 CURVE SMOOTH"
);
}
);
width = 508;
}
);
note = afii10101;
unicode = 0454;
},
{
glyphname = afii10106;
lastChange = "2018-06-23 23:44:47 +0000";
layers = (
{
layerId = "5481159F-1A66-431E-9320-A33A99FB249E";
paths = (
{
closed = 1;
nodes = (
"740 0 OFFCURVE",
"817 57 OFFCURVE",
"817 168 CURVE SMOOTH",
"817 272 OFFCURVE",
"747 324 OFFCURVE",
"597 324 CURVE SMOOTH",
"503 324 LINE",
"503 540 LINE",
"163 540 LINE",
"152 386 OFFCURVE",
"138 272 OFFCURVE",
"119 197 CURVE SMOOTH",
"100 123 OFFCURVE",
"73 85 OFFCURVE",
"40 85 CURVE SMOOTH",
"28 85 OFFCURVE",
"16 87 OFFCURVE",
"4 92 CURVE",
"4 2 LINE",
"19 -4 OFFCURVE",
"41 -8 OFFCURVE",
"68 -8 CURVE SMOOTH",
"146 -8 OFFCURVE",
"194 49 OFFCURVE",
"225 178 CURVE SMOOTH",
"240 242 OFFCURVE",
"252 333 OFFCURVE",
"261 450 CURVE",
"382 450 LINE",
"382 0 LINE",
"593 0 LINE SMOOTH"
);
},
{
closed = 1;
nodes = (
"702 113 OFFCURVE",
"663 85 OFFCURVE",
"588 85 CURVE SMOOTH",
"498 85 LINE",
"498 238 LINE",
"586 238 LINE SMOOTH",
"662 238 OFFCURVE",
"702 219 OFFCURVE",
"702 165 CURVE SMOOTH"
);
}
);
width = 862;
}
);
note = afii10106;
unicode = 0459;
},
{
glyphname = afii10107;
lastChange = "2018-06-23 23:44:47 +0000";
layers = (
{
layerId = "5481159F-1A66-431E-9320-A33A99FB249E";
paths = (
{
closed = 1;
nodes = (
"407 540 LINE",
"407 323 LINE",
"198 323 LINE",
"198 540 LINE",
"82 540 LINE",
"82 0 LINE",
"198 0 LINE",
"198 233 LINE",
"406 233 LINE",
"406 0 LINE",
"618 0 LINE SMOOTH",
"766 0 OFFCURVE",
"841 57 OFFCURVE",
"841 168 CURVE SMOOTH",
"841 272 OFFCURVE",
"771 324 OFFCURVE",
"620 324 CURVE SMOOTH",
"523 324 LINE",
"523 540 LINE"
);
},
{
closed = 1;
nodes = (
"727 112 OFFCURVE",
"689 85 OFFCURVE",
"613 85 CURVE SMOOTH",
"522 85 LINE",
"522 238 LINE",
"611 238 LINE SMOOTH",
"687 238 OFFCURVE",
"727 219 OFFCURVE",
"727 165 CURVE SMOOTH"
);
}
);
width = 887;
}
);
note = afii10107;
unicode = 045A;
},
{
glyphname = afii10108;
lastChange = "2018-06-23 23:44:47 +0000";
layers = (
{
layerId = "5481159F-1A66-431E-9320-A33A99FB249E";
paths = (
{
closed = 1;
nodes = (
"557 460 OFFCURVE",
"492 526 OFFCURVE",
"362 526 CURVE SMOOTH",
"293 526 OFFCURVE",
"233 500 OFFCURVE",
"198 444 CURVE",
"191 444 LINE",
"193 474 OFFCURVE",
"195 496 OFFCURVE",
"196 509 CURVE SMOOTH",
"196 522 OFFCURVE",
"197 534 OFFCURVE",
"197 543 CURVE SMOOTH",
"197 595 LINE",
"383 595 LINE",
"383 675 LINE",
"197 675 LINE",
"197 760 LINE",
"82 760 LINE",
"82 675 LINE",
"6 675 LINE",
"6 595 LINE",
"82 595 LINE",
"82 0 LINE",
"197 0 LINE",
"197 244 LINE SMOOTH",
"197 379 OFFCURVE",
"241 432 OFFCURVE",
"337 432 CURVE SMOOTH",
"410 432 OFFCURVE",
"442 391 OFFCURVE",
"442 308 CURVE SMOOTH",
"442 0 LINE",
"557 0 LINE",
"557 328 LINE SMOOTH"
);
}
);
width = 635;
}
);
note = afii10108;
unicode = 045B;
},
{
glyphname = afii10193;
lastChange = "2018-06-23 23:44:47 +0000";
layers = (
{
layerId = "5481159F-1A66-431E-9320-A33A99FB249E";
paths = (
{
closed = 1;
nodes = (
"271 -190 LINE",
"378 -190 LINE",
"378 0 LINE",
"564 0 LINE",
"564 540 LINE",
"449 540 LINE",
"449 91 LINE",
"197 91 LINE",
"197 540 LINE",
"82 540 LINE",
"82 0 LINE",
"271 0 LINE"
);
}
);
width = 646;
}
);
note = afii10193;
unicode = 045F;
},
{
glyphname = afii10050;
lastChange = "2018-06-23 23:44:47 +0000";
layers = (
{
layerId = "5481159F-1A66-431E-9320-A33A99FB249E";
paths = (
{
closed = 1;
nodes = (
"532 614 LINE",
"532 863 LINE",
"427 863 LINE",
"427 714 LINE",
"94 714 LINE",
"94 0 LINE",
"211 0 LINE",
"211 614 LINE"
);
}
);
width = 554;
}
);
note = afii10050;
unicode = 0490;
},
{
glyphname = afii10098;
lastChange = "2018-06-23 23:44:47 +0000";
layers = (
{
layerId = "5481159F-1A66-431E-9320-A33A99FB249E";
paths = (
{
closed = 1;
nodes = (
"442 453 LINE",
"442 693 LINE",
"334 693 LINE",
"334 540 LINE",
"82 540 LINE",
"82 0 LINE",
"197 0 LINE",
"197 453 LINE"
);
}
);
width = 470;
}
);
note = afii10098;
unicode = 0491;
},
{
glyphname = endash;
lastChange = "2018-06-23 23:44:47 +0000";
layers = (
{
layerId = "5481159F-1A66-431E-9320-A33A99FB249E";
paths = (
{
closed = 1;
nodes = (
"460 315 LINE",
"40 315 LINE",
"40 222 LINE",
"460 222 LINE"
);
}
);
width = 500;
}
);
note = endash;
unicode = 2013;
},
{
glyphname = emdash;
lastChange = "2018-06-23 23:44:47 +0000";
layers = (
{
layerId = "5481159F-1A66-431E-9320-A33A99FB249E";
paths = (
{
closed = 1;
nodes = (
"960 315 LINE",
"40 315 LINE",
"40 222 LINE",
"960 222 LINE"
);
}
);
width = 1000;
}
);
note = emdash;
unicode = 2014;
},
{
glyphname = afii00208;
lastChange = "2018-06-23 23:44:47 +0000";
layers = (
{
layerId = "5481159F-1A66-431E-9320-A33A99FB249E";
paths = (
{
closed = 1;
nodes = (
"960 315 LINE",
"40 315 LINE",
"40 222 LINE",
"960 222 LINE"
);
}
);
width = 1000;
}
);
note = afii00208;
unicode = 2015;
},
{
glyphname = underscoredbl;
lastChange = "2018-06-23 23:44:47 +0000";
layers = (
{
layerId = "5481159F-1A66-431E-9320-A33A99FB249E";
paths = (
{
closed = 1;
nodes = (
"-2 -158 LINE",
"-2 -226 LINE",
"413 -226 LINE",
"413 -158 LINE"
);
},
{
closed = 1;
nodes = (
"-2 -22 LINE",
"-2 -90 LINE",
"413 -90 LINE",
"413 -22 LINE"
);
}
);
width = 411;
}
);
note = underscoredbl;
unicode = 2017;
},
{
glyphname = quoteleft;
lastChange = "2018-06-23 23:44:47 +0000";
layers = (
{
layerId = "5481159F-1A66-431E-9320-A33A99FB249E";
paths = (
{
closed = 1;
nodes = (
"144 549 OFFCURVE",
"160 630 OFFCURVE",
"181 714 CURVE",
"98 714 LINE",
"63 640 OFFCURVE",
"25 534 OFFCURVE",
"12 480 CURVE",
"18 469 LINE",
"132 469 LINE"
);
}
);
width = 193;
}
);
note = quoteleft;
unicode = 2018;
},
{
glyphname = quoteright;
lastChange = "2018-06-23 23:44:47 +0000";
layers = (
{
layerId = "5481159F-1A66-431E-9320-A33A99FB249E";
paths = (
{
closed = 1;
nodes = (
"51 645 OFFCURVE",
"35 563 OFFCURVE",
"12 469 CURVE",
"95 469 LINE",
"135 557 OFFCURVE",
"164 635 OFFCURVE",
"181 703 CURVE",
"174 714 LINE",
"61 714 LINE"
);
}
);
width = 193;
}
);
note = quoteright;
unicode = 2019;
},
{
glyphname = quotesinglbase;
lastChange = "2018-06-23 23:44:47 +0000";
layers = (
{
layerId = "5481159F-1A66-431E-9320-A33A99FB249E";
paths = (
{
closed = 1;
nodes = (
"81 116 LINE",
"70 41 OFFCURVE",
"53 -41 OFFCURVE",
"31 -129 CURVE",
"115 -129 LINE",
"157 -34 OFFCURVE",
"186 44 OFFCURVE",
"201 105 CURVE",
"194 116 LINE"
);
}
);
width = 268;
}
);
note = quotesinglbase;
unicode = 201A;
},
{
glyphname = quotereversed;
lastChange = "2018-06-23 23:44:47 +0000";
layers = (
{
layerId = "5481159F-1A66-431E-9320-A33A99FB249E";
paths = (
{
closed = 1;
nodes = (
"12 703 LINE",
"26 643 OFFCURVE",
"63 542 OFFCURVE",
"98 469 CURVE",
"182 469 LINE",
"160 558 OFFCURVE",
"143 639 OFFCURVE",
"132 714 CURVE",
"19 714 LINE"
);
}
);
width = 193;
}
);
note = quotereversed;
unicode = 201B;
},
{
glyphname = quotedblleft;
lastChange = "2018-06-23 23:44:47 +0000";
layers = (
{
layerId = "5481159F-1A66-431E-9320-A33A99FB249E";
paths = (
{
closed = 1;
nodes = (
"336 469 LINE",
"346 536 OFFCURVE",
"362 618 OFFCURVE",
"385 714 CURVE",
"302 714 LINE",
"261 624 OFFCURVE",
"232 546 OFFCURVE",
"215 480 CURVE",
"222 469 LINE"
);
},
{
closed = 1;
nodes = (
"132 469 LINE",
"144 549 OFFCURVE",
"160 630 OFFCURVE",
"181 714 CURVE",
"98 714 LINE",
"63 640 OFFCURVE",
"25 534 OFFCURVE",
"12 480 CURVE",
"18 469 LINE"
);
}
);
width = 397;
}
);
note = quotedblleft;
unicode = 201C;
},
{
glyphname = quotedblright;
lastChange = "2018-06-23 23:44:47 +0000";
layers = (
{
layerId = "5481159F-1A66-431E-9320-A33A99FB249E";
paths = (
{
closed = 1;
nodes = (
"61 714 LINE",
"51 645 OFFCURVE",
"35 563 OFFCURVE",
"12 469 CURVE",
"95 469 LINE",
"135 557 OFFCURVE",
"164 635 OFFCURVE",
"181 703 CURVE",
"174 714 LINE"
);
},
{
closed = 1;
nodes = (
"265 714 LINE",
"254 639 OFFCURVE",
"237 558 OFFCURVE",
"215 469 CURVE",
"299 469 LINE",
"339 557 OFFCURVE",
"368 635 OFFCURVE",
"385 703 CURVE",
"378 714 LINE"
);
}
);
width = 397;
}
);
note = quotedblright;
unicode = 201D;
},
{
glyphname = quotedblbase;
lastChange = "2018-06-23 23:44:47 +0000";
layers = (
{
layerId = "5481159F-1A66-431E-9320-A33A99FB249E";
paths = (
{
closed = 1;
nodes = (
"71 116 LINE",
"59 38 OFFCURVE",
"42 -44 OFFCURVE",
"21 -129 CURVE",
"105 -129 LINE",
"145 -42 OFFCURVE",
"173 35 OFFCURVE",
"191 105 CURVE",
"184 116 LINE"
);
},
{
closed = 1;
nodes = (
"275 116 LINE",
"263 38 OFFCURVE",
"247 -44 OFFCURVE",
"225 -129 CURVE",
"309 -129 LINE",
"351 -34 OFFCURVE",
"379 44 OFFCURVE",
"395 105 CURVE",
"388 116 LINE"
);
}
);
width = 461;
}
);
note = quotedblbase;
unicode = 201E;
},
{
glyphname = dagger;
lastChange = "2018-06-23 23:44:47 +0000";
layers = (
{
layerId = "5481159F-1A66-431E-9320-A33A99FB249E";
paths = (
{
closed = 1;
nodes = (
"282 556 LINE",
"307 760 LINE",
"191 760 LINE",
"217 556 LINE",
"60 571 LINE",
"60 470 LINE",
"217 485 LINE",
"191 0 LINE",
"307 0 LINE",
"282 485 LINE",
"449 470 LINE",
"449 571 LINE"
);
}
);
width = 509;
}
);
note = dagger;
unicode = 2020;
},
